  0
SECTION
  2
HEADER
  9
$ACADVER
  1
AC1027
  9
$ACADMAINTVER
 70
     8
  9
$DWGCODEPAGE
  3
ANSI_1252
  9
$REQUIREDVERSIONS
160
                 0
  9
$INSBASE
 10
0.0
 20
0.0
 30
0.0
  9
$EXTMIN
 10
-56.186342
 20
-56.708278
 30
0.0
  9
$EXTMAX
 10
338.552518
 20
312.671094
 30
0.0
  9
$LIMMIN
 10
0.0
 20
0.0
  9
$LIMMAX
 10
420.0
 20
297.0
  9
$ORTHOMODE
 70
     0
  9
$REGENMODE
 70
     1
  9
$FILLMODE
 70
     1
  9
$QTEXTMODE
 70
     0
  9
$MIRRTEXT
 70
     0
  9
$LTSCALE
 40
1.0
  9
$ATTMODE
 70
     1
  9
$TEXTSIZE
 40
2.5
  9
$TRACEWID
 40
1.0
  9
$TEXTSTYLE
  7
Standard
  9
$CLAYER
  8
0
  9
$CELTYPE
  6
ByLayer
  9
$CECOLOR
 62
   256
  9
$CELTSCALE
 40
1.0
  9
$DISPSILH
 70
     0
  9
$DIMSCALE
 40
1.0
  9
$DIMASZ
 40
2.5
  9
$DIMEXO
 40
0.5
  9
$DIMDLI
 40
6.0
  9
$DIMRND
 40
0.0
  9
$DIMDLE
 40
0.0
  9
$DIMEXE
 40
0.0
  9
$DIMTP
 40
0.0
  9
$DIMTM
 40
0.0
  9
$DIMTXT
 40
2.5
  9
$DIMCEN
 40
2.5
  9
$DIMTSZ
 40
0.0
  9
$DIMTOL
 70
     0
  9
$DIMLIM
 70
     0
  9
$DIMTIH
 70
     0
  9
$DIMTOH
 70
     1
  9
$DIMSE1
 70
     0
  9
$DIMSE2
 70
     0
  9
$DIMTAD
 70
     0
  9
$DIMZIN
 70
     0
  9
$DIMBLK
  1

  9
$DIMASO
 70
     1
  9
$DIMSHO
 70
     1
  9
$DIMPOST
  1

  9
$DIMAPOST
  1

  9
$DIMALT
 70
     0
  9
$DIMALTD
 70
     2
  9
$DIMALTF
 40
25.4
  9
$DIMLFAC
 40
1.0
  9
$DIMTOFL
 70
     0
  9
$DIMTVP
 40
0.0
  9
$DIMTIX
 70
     0
  9
$DIMSOXD
 70
     0
  9
$DIMSAH
 70
     0
  9
$DIMBLK1
  1

  9
$DIMBLK2
  1

  9
$DIMSTYLE
  2
Standard
  9
$DIMCLRD
 70
     0
  9
$DIMCLRE
 70
     0
  9
$DIMCLRT
 70
     0
  9
$DIMTFAC
 40
1.0
  9
$DIMGAP
 40
1.0
  9
$DIMJUST
 70
     0
  9
$DIMSD1
 70
     0
  9
$DIMSD2
 70
     0
  9
$DIMTOLJ
 70
     1
  9
$DIMTZIN
 70
     0
  9
$DIMALTZ
 70
     0
  9
$DIMALTTZ
 70
     0
  9
$DIMUPT
 70
     0
  9
$DIMDEC
 70
     4
  9
$DIMTDEC
 70
     4
  9
$DIMALTU
 70
     2
  9
$DIMALTTD
 70
     2
  9
$DIMTXSTY
  7
Standard
  9
$DIMAUNIT
 70
     0
  9
$DIMADEC
 70
     0
  9
$DIMALTRND
 40
0.0
  9
$DIMAZIN
 70
     0
  9
$DIMDSEP
 70
    46
  9
$DIMATFIT
 70
     3
  9
$DIMFRAC
 70
     0
  9
$DIMLDRBLK
  1

  9
$DIMLUNIT
 70
     2
  9
$DIMLWD
 70
    -2
  9
$DIMLWE
 70
    -2
  9
$DIMTMOVE
 70
     0
  9
$DIMFXL
 40
1.0
  9
$DIMFXLON
 70
     0
  9
$DIMJOGANG
 40
0.785398
  9
$DIMTFILL
 70
     0
  9
$DIMTFILLCLR
 70
     0
  9
$DIMARCSYM
 70
     0
  9
$DIMLTYPE
  6
ByLayer
  9
$DIMLTEX1
  6
ByLayer
  9
$DIMLTEX2
  6
ByLayer
  9
$DIMTXTDIRECTION
 70
     0
  9
$LUNITS
 70
     2
  9
$LUPREC
 70
     4
  9
$SKETCHINC
 40
1.0
  9
$FILLETRAD
 40
0.0
  9
$AUNITS
 70
     0
  9
$AUPREC
 70
     0
  9
$MENU
  1
.
  9
$ELEVATION
 40
0.0
  9
$PELEVATION
 40
0.0
  9
$THICKNESS
 40
0.0
  9
$LIMCHECK
 70
     0
  9
$CHAMFERA
 40
0.0
  9
$CHAMFERB
 40
0.0
  9
$CHAMFERC
 40
0.0
  9
$CHAMFERD
 40
0.0
  9
$SKPOLY
 70
     0
  9
$TDCREATE
 40
2454082.616716713
  9
$TDUCREATE
 40
2454082.90838338
  9
$TDUPDATE
 40
2458667.466543599
  9
$TDUUPDATE
 40
2458667.758210266
  9
$TDINDWG
 40
0.0105753588
  9
$TDUSRTIMER
 40
0.0105751736
  9
$USRTIMER
 70
     1
  9
$ANGBASE
 50
0.0
  9
$ANGDIR
 70
     0
  9
$PDMODE
 70
     0
  9
$PDSIZE
 40
0.0
  9
$PLINEWID
 40
0.0
  9
$SPLFRAME
 70
     0
  9
$SPLINETYPE
 70
     6
  9
$SPLINESEGS
 70
     8
  9
$HANDSEED
  5
22B
  9
$SURFTAB1
 70
     6
  9
$SURFTAB2
 70
     6
  9
$SURFTYPE
 70
     6
  9
$SURFU
 70
     6
  9
$SURFV
 70
     6
  9
$UCSBASE
  2

  9
$UCSNAME
  2

  9
$UCSORG
 10
0.0
 20
0.0
 30
0.0
  9
$UCSXDIR
 10
1.0
 20
0.0
 30
0.0
  9
$UCSYDIR
 10
0.0
 20
1.0
 30
0.0
  9
$UCSORTHOREF
  2

  9
$UCSORTHOVIEW
 70
     0
  9
$UCSORGTOP
 10
0.0
 20
0.0
 30
0.0
  9
$UCSORGBOTTOM
 10
0.0
 20
0.0
 30
0.0
  9
$UCSORGLEFT
 10
0.0
 20
0.0
 30
0.0
  9
$UCSORGRIGHT
 10
0.0
 20
0.0
 30
0.0
  9
$UCSORGFRONT
 10
0.0
 20
0.0
 30
0.0
  9
$UCSORGBACK
 10
0.0
 20
0.0
 30
0.0
  9
$PUCSBASE
  2

  9
$PUCSNAME
  2

  9
$PUCSORG
 10
0.0
 20
0.0
 30
0.0
  9
$PUCSXDIR
 10
1.0
 20
0.0
 30
0.0
  9
$PUCSYDIR
 10
0.0
 20
1.0
 30
0.0
  9
$PUCSORTHOREF
  2

  9
$PUCSORTHOVIEW
 70
     0
  9
$PUCSORGTOP
 10
0.0
 20
0.0
 30
0.0
  9
$PUCSORGBOTTOM
 10
0.0
 20
0.0
 30
0.0
  9
$PUCSORGLEFT
 10
0.0
 20
0.0
 30
0.0
  9
$PUCSORGRIGHT
 10
0.0
 20
0.0
 30
0.0
  9
$PUCSORGFRONT
 10
0.0
 20
0.0
 30
0.0
  9
$PUCSORGBACK
 10
0.0
 20
0.0
 30
0.0
  9
$USERI1
 70
     0
  9
$USERI2
 70
     0
  9
$USERI3
 70
     0
  9
$USERI4
 70
     0
  9
$USERI5
 70
     0
  9
$USERR1
 40
0.0
  9
$USERR2
 40
0.0
  9
$USERR3
 40
0.0
  9
$USERR4
 40
0.0
  9
$USERR5
 40
0.0
  9
$WORLDVIEW
 70
     1
  9
$SHADEDGE
 70
     3
  9
$SHADEDIF
 70
    70
  9
$TILEMODE
 70
     1
  9
$MAXACTVP
 70
    64
  9
$PINSBASE
 10
0.0
 20
0.0
 30
0.0
  9
$PLIMCHECK
 70
     0
  9
$PEXTMIN
 10
0.0
 20
0.0
 30
0.0
  9
$PEXTMAX
 10
0.0
 20
0.0
 30
0.0
  9
$PLIMMIN
 10
-20.0
 20
-7.5
  9
$PLIMMAX
 10
277.0
 20
202.5
  9
$UNITMODE
 70
     0
  9
$VISRETAIN
 70
     1
  9
$PLINEGEN
 70
     0
  9
$PSLTSCALE
 70
     0
  9
$TREEDEPTH
 70
  3020
  9
$CMLSTYLE
  2
Standard
  9
$CMLJUST
 70
     0
  9
$CMLSCALE
 40
20.0
  9
$PROXYGRAPHICS
 70
     1
  9
$MEASUREMENT
 70
     1
  9
$CELWEIGHT
370
    -1
  9
$ENDCAPS
280
     0
  9
$JOINSTYLE
280
     0
  9
$LWDISPLAY
290
     1
  9
$INSUNITS
 70
     4
  9
$HYPERLINKBASE
  1

  9
$STYLESHEET
  1

  9
$XEDIT
290
     1
  9
$CEPSNTYPE
380
     0
  9
$PSTYLEMODE
290
     1
  9
$FINGERPRINTGUID
  2
{78B0F746-B111-4909-95E5-2EF5CBA97683}
  9
$VERSIONGUID
  2
{88884FFE-1838-4093-901C-E4DA6EFB818F}
  9
$EXTNAMES
290
     1
  9
$PSVPSCALE
 40
0.0
  9
$OLESTARTUP
290
     0
  9
$SORTENTS
280
   127
  9
$INDEXCTL
280
     0
  9
$HIDETEXT
280
     1
  9
$XCLIPFRAME
280
     0
  9
$HALOGAP
280
     0
  9
$OBSCOLOR
 70
   257
  9
$OBSLTYPE
280
     0
  9
$INTERSECTIONDISPLAY
280
     0
  9
$INTERSECTIONCOLOR
 70
   257
  9
$DIMASSOC
280
     2
  9
$PROJECTNAME
  1

  9
$CAMERADISPLAY
290
     0
  9
$LENSLENGTH
 40
50.0
  9
$CAMERAHEIGHT
 40
0.0
  9
$STEPSPERSEC
 40
2.0
  9
$STEPSIZE
 40
6.0
  9
$3DDWFPREC
 40
2.0
  9
$PSOLWIDTH
 40
5.0
  9
$PSOLHEIGHT
 40
80.0
  9
$LOFTANG1
 40
1.570796
  9
$LOFTANG2
 40
1.570796
  9
$LOFTMAG1
 40
0.0
  9
$LOFTMAG2
 40
0.0
  9
$LOFTPARAM
 70
     7
  9
$LOFTNORMALS
280
     1
  9
$LATITUDE
 40
37.795
  9
$LONGITUDE
 40
-122.394
  9
$NORTHDIRECTION
 40
0.0
  9
$TIMEZONE
 70
 -8000
  9
$LIGHTGLYPHDISPLAY
280
     1
  9
$TILEMODELIGHTSYNCH
280
     1
  9
$CMATERIAL
347
10
  9
$SOLIDHIST
280
     1
  9
$SHOWHIST
280
     1
  9
$DWFFRAME
280
     2
  9
$DGNFRAME
280
     0
  9
$REALWORLDSCALE
290
     1
  9
$INTERFERECOLOR
 62
     1
  9
$CSHADOW
280
     0
  9
$SHADOWPLANELOCATION
 40
0.0
  0
ENDSEC
  0
SECTION
  2
CLASSES
  0
CLASS
  1
ACDBDICTIONARYWDFLT
  2
AcDbDictionaryWithDefault
  3
ObjectDBX Classes
 90
        0
 91
        7
280
     0
281
     0
  0
CLASS
  1
MATERIAL
  2
AcDbMaterial
  3
ObjectDBX Classes
 90
     1153
 91
        6
280
     0
281
     0
  0
CLASS
  1
SORTENTSTABLE
  2
AcDbSortentsTable
  3
ObjectDBX Classes
 90
        0
 91
        5
280
     0
281
     0
  0
CLASS
  1
LAYOUTPRINTCONFIG
  2
CAcLayoutPrintConfig
  3
"CSD_APP"
 90
     4095
 91
        5
280
     0
281
     1
  0
CLASS
  1
VISUALSTYLE
  2
AcDbVisualStyle
  3
ObjectDBX Classes
 90
     4095
 91
        6
280
     0
281
     0
  0
CLASS
  1
SUN
  2
AcDbSun
  3
SCENEOE
 90
     1153
 91
        6
280
     0
281
     0
  0
CLASS
  1
SCALE
  2
AcDbScale
  3
ObjectDBX Classes
 90
     1153
 91
        6
280
     0
281
     0
  0
CLASS
  1
DICTIONARYVAR
  2
AcDbDictionaryVar
  3
ObjectDBX Classes
 90
        0
 91
        5
280
     0
281
     0
  0
ENDSEC
  0
SECTION
  2
TABLES
  0
TABLE
  2
VPORT
  5
26
330
0
100
AcDbSymbolTable
 70
     1
  0
VPORT
  5
2B
330
26
100
AcDbSymbolTableRecord
100
AcDbViewportTableRecord
  2
*Active
 70
     0
 10
0.0
 20
0.0
 11
1.0
 21
1.0
 12
1089.257985
 22
-398.920808
 13
0.0
 23
0.0
 14
10.0
 24
10.0
 15
10.0
 25
10.0
 16
0.0
 26
0.0
 36
1.0
 17
210.0
 27
148.5
 37
0.0
 40
1981.777861
 41
2.082461
 42
50.0
 43
0.0
 44
0.0
 50
0.0
 51
0.0
 71
    16
 72
  1000
 73
     1
 74
     3
 75
     0
 76
     0
 77
     0
 78
     0
281
     0
 65
     1
110
0.0
120
0.0
130
0.0
111
1.0
121
0.0
131
0.0
112
0.0
122
1.0
132
0.0
 79
     0
146
0.0
348
2C
 60
     2
 61
     5
292
     1
282
     1
141
0.0
142
0.0
 63
   250
421
  3355443
361
2D
  0
ENDTAB
  0
TABLE
  2
LTYPE
  5
B
330
0
100
AcDbSymbolTable
 70
     1
  0
LTYPE
  5
C
330
B
100
AcDbSymbolTableRecord
100
AcDbLinetypeTableRecord
  2
ByBlock
 70
     0
  3

 72
    65
 73
     0
 40
0.0
  0
LTYPE
  5
D
330
B
100
AcDbSymbolTableRecord
100
AcDbLinetypeTableRecord
  2
ByLayer
 70
     0
  3

 72
    65
 73
     0
 40
0.0
  0
LTYPE
  5
A
330
B
100
AcDbSymbolTableRecord
100
AcDbLinetypeTableRecord
  2
Continuous
 70
     0
  3
Solid line
 72
    65
 73
     0
 40
0.0
  0
ENDTAB
  0
TABLE
  2
LAYER
  5
2
330
0
100
AcDbSymbolTable
 70
     4
  0
LAYER
  5
1
330
2
100
AcDbSymbolTableRecord
100
AcDbLayerTableRecord
  2
0
 70
     0
 62
     7
  6
Continuous
370
    -3
390
3
347
6
348
0
  0
ENDTAB
  0
TABLE
  2
STYLE
  5
F
330
0
100
AcDbSymbolTable
 70
     3
  0
STYLE
  5
E
330
F
100
AcDbSymbolTableRecord
100
AcDbTextStyleTableRecord
  2
Standard
 70
     0
 40
0.0
 41
1.0
 50
0.0
 71
     0
 42
2.5
  3
txt.shx
  4

  0
ENDTAB
  0
TABLE
  2
VIEW
  5
24
330
0
100
AcDbSymbolTable
 70
     0
  0
ENDTAB
  0
TABLE
  2
UCS
  5
25
330
0
100
AcDbSymbolTable
 70
     0
  0
ENDTAB
  0
TABLE
  2
APPID
  5
9
330
0
100
AcDbSymbolTable
 70
    16
  0
APPID
  5
8
330
9
100
AcDbSymbolTableRecord
100
AcDbRegAppTableRecord
  2
ACAD
 70
     0
  0
APPID
  5
1F
330
9
100
AcDbSymbolTableRecord
100
AcDbRegAppTableRecord
  2
ACAD_PSEXT
 70
     0
  0
APPID
  5
55
330
9
100
AcDbSymbolTableRecord
100
AcDbRegAppTableRecord
  2
McsXdata5
 70
     0
  0
APPID
  5
223
330
9
100
AcDbSymbolTableRecord
100
AcDbRegAppTableRecord
  2
MC_VERSION_DATA
 70
     0
  0
ENDTAB
  0
TABLE
  2
DIMSTYLE
  5
12
330
0
100
AcDbSymbolTable
 70
     1
100
AcDbDimStyleTable
  0
DIMSTYLE
105
11
330
12
100
AcDbSymbolTableRecord
100
AcDbDimStyleTableRecord
  2
Standard
 70
     0
 40
100.0
 41
2.5
 42
0.5
 43
6.0
 44
0.0
 50
45.000001
 73
     0
140
2.5
141
2.5
143
25.4
147
1.0
178
     0
340
E
345
D
346
D
347
D
  0
ENDTAB
  0
TABLE
  2
BLOCK_RECORD
  5
15
330
0
100
AcDbSymbolTable
 70
    96
  0
BLOCK_RECORD
  5
16
102
{ACAD_XDICTIONARY
360
17
102
}
330
15
100
AcDbSymbolTableRecord
100
AcDbBlockTableRecord
  2
*Model_Space
340
1B
 70
     0
280
     1
281
     0
  0
BLOCK_RECORD
  5
20
330
15
100
AcDbSymbolTableRecord
100
AcDbBlockTableRecord
  2
*Paper_Space
340
23
 70
     0
280
     1
281
     0
  0
BLOCK_RECORD
  5
210
330
15
100
AcDbSymbolTableRecord
100
AcDbBlockTableRecord
  2
*Paper_Space0
340
213
 70
     0
280
     1
281
     0
  0
BLOCK_RECORD
  5
21A
330
15
100
AcDbSymbolTableRecord
100
AcDbBlockTableRecord
  2
*Paper_Space4
340
21D
 70
     0
280
     1
281
     0
  0
BLOCK_RECORD
  5
200
330
15
100
AcDbSymbolTableRecord
100
AcDbBlockTableRecord
  2
*Paper_Space5
340
203
 70
     0
280
     1
281
     0
  0
BLOCK_RECORD
  5
215
330
15
100
AcDbSymbolTableRecord
100
AcDbBlockTableRecord
  2
*Paper_Space6
340
218
 70
     0
280
     1
281
     0
  0
BLOCK_RECORD
  5
206
330
15
100
AcDbSymbolTableRecord
100
AcDbBlockTableRecord
  2
*Paper_Space7
340
209
 70
     0
280
     1
281
     0
  0
BLOCK_RECORD
  5
20B
330
15
100
AcDbSymbolTableRecord
100
AcDbBlockTableRecord
  2
*Paper_Space8
340
20E
 70
     0
280
     1
281
     0
  0
ENDTAB
  0
ENDSEC
  0
SECTION
  2
BLOCKS
  0
BLOCK
  5
19
330
16
100
AcDbEntity
  8
0
100
AcDbBlockBegin
  2
*Model_Space
 70
     0
 10
0.0
 20
0.0
 30
0.0
  3
*Model_Space
  1
*Model_Space
  0
ENDBLK
  5
1A
330
16
100
AcDbEntity
  8
0
100
AcDbBlockEnd
  0
BLOCK
  5
21
330
20
100
AcDbEntity
 67
     1
  8
0
100
AcDbBlockBegin
  2
*Paper_Space
 70
     0
 10
0.0
 20
0.0
 30
0.0
  3
*Paper_Space
  1
*Paper_Space
  0
ENDBLK
  5
22
330
20
100
AcDbEntity
 67
     1
  8
0
100
AcDbBlockEnd
  0
BLOCK
  5
211
330
210
100
AcDbEntity
  8
0
100
AcDbBlockBegin
  2
*Paper_Space0
 70
     0
 10
0.0
 20
0.0
 30
0.0
  3
*Paper_Space0
  1
*Paper_Space0
  0
VIEWPORT
  5
214
330
210
100
AcDbEntity
  8
0
 48
100.0
100
AcDbViewport
 10
0.0
 20
0.0
 30
0.0
 40
840.779612
 41
486.114466
 68
     1
 69
     1
 12
328.692132
 22
196.71883
 13
0.0
 23
0.0
 14
10.0
 24
10.0
 15
10.0
 25
10.0
 16
0.0
 26
0.0
 36
1.0
 17
0.0
 27
0.0
 37
0.0
 42
50.0
 43
0.0
 44
0.0
 45
486.114466
 50
0.0
 51
0.0
 72
   100
 90
   557168
  1

281
     0
 71
     1
 74
     0
110
0.0
120
0.0
130
0.0
111
1.0
121
0.0
131
0.0
112
0.0
122
1.0
132
0.0
 79
     0
146
0.0
170
     0
 61
     5
348
2C
292
     1
282
     1
141
0.0
142
0.0
 63
   256
  0
ENDBLK
  5
212
330
210
100
AcDbEntity
  8
0
100
AcDbBlockEnd
  0
BLOCK
  5
21B
330
21A
100
AcDbEntity
  8
0
100
AcDbBlockBegin
  2
*Paper_Space4
 70
     0
 10
0.0
 20
0.0
 30
0.0
  3
*Paper_Space4
  1
*Paper_Space4
  0
VIEWPORT
  5
21E
330
21A
100
AcDbEntity
  8
0
 48
100.0
100
AcDbViewport
 10
0.0
 20
0.0
 30
0.0
 40
1715.87676
 41
992.070339
 68
     1
 69
     1
 12
497.20797
 22
380.27835
 13
0.0
 23
0.0
 14
10.0
 24
10.0
 15
10.0
 25
10.0
 16
0.0
 26
0.0
 36
1.0
 17
0.0
 27
0.0
 37
0.0
 42
50.0
 43
0.0
 44
0.0
 45
992.070339
 50
0.0
 51
0.0
 72
   100
 90
   557168
  1

281
     0
 71
     1
 74
     0
110
0.0
120
0.0
130
0.0
111
1.0
121
0.0
131
0.0
112
0.0
122
1.0
132
0.0
 79
     0
146
0.0
170
     0
 61
     5
348
2C
292
     1
282
     1
141
0.0
142
0.0
 63
   256
  0
ENDBLK
  5
21C
330
21A
100
AcDbEntity
  8
0
100
AcDbBlockEnd
  0
BLOCK
  5
201
330
200
100
AcDbEntity
  8
0
100
AcDbBlockBegin
  2
*Paper_Space5
 70
     0
 10
0.0
 20
0.0
 30
0.0
  3
*Paper_Space5
  1
*Paper_Space5
  0
VIEWPORT
  5
204
330
200
100
AcDbEntity
  8
0
 48
100.0
100
AcDbViewport
 10
0.0
 20
0.0
 30
0.0
 40
460.802478
 41
238.196088
 68
     1
 69
     1
 12
128.5
 22
97.5
 13
0.0
 23
0.0
 14
10.0
 24
10.0
 15
10.0
 25
10.0
 16
0.0
 26
0.0
 36
1.0
 17
0.0
 27
0.0
 37
0.0
 42
50.0
 43
0.0
 44
0.0
 45
238.196088
 50
0.0
 51
0.0
 72
   100
 90
   557168
  1

281
     0
 71
     1
 74
     0
110
0.0
120
0.0
130
0.0
111
1.0
121
0.0
131
0.0
112
0.0
122
1.0
132
0.0
 79
     0
146
0.0
170
     0
 61
     5
348
2C
292
     1
282
     1
141
0.0
142
0.0
 63
   256
  0
ENDBLK
  5
202
330
200
100
AcDbEntity
  8
0
100
AcDbBlockEnd
  0
BLOCK
  5
216
330
215
100
AcDbEntity
  8
0
100
AcDbBlockBegin
  2
*Paper_Space6
 70
     0
 10
0.0
 20
0.0
 30
0.0
  3
*Paper_Space6
  1
*Paper_Space6
  0
VIEWPORT
  5
219
330
215
100
AcDbEntity
  8
0
 48
100.0
100
AcDbViewport
 10
0.0
 20
0.0
 30
0.0
 40
1201.113732
 41
694.449237
 68
     1
 69
     1
 12
454.893705
 22
285.342469
 13
0.0
 23
0.0
 14
10.0
 24
10.0
 15
10.0
 25
10.0
 16
0.0
 26
0.0
 36
1.0
 17
0.0
 27
0.0
 37
0.0
 42
50.0
 43
0.0
 44
0.0
 45
694.449237
 50
0.0
 51
0.0
 72
   100
 90
   557168
  1

281
     0
 71
     1
 74
     0
110
0.0
120
0.0
130
0.0
111
1.0
121
0.0
131
0.0
112
0.0
122
1.0
132
0.0
 79
     0
146
0.0
170
     0
 61
     5
348
2C
292
     1
282
     1
141
0.0
142
0.0
 63
   256
  0
ENDBLK
  5
217
330
215
100
AcDbEntity
  8
0
100
AcDbBlockEnd
  0
BLOCK
  5
207
330
206
100
AcDbEntity
  8
0
100
AcDbBlockBegin
  2
*Paper_Space7
 70
     0
 10
0.0
 20
0.0
 30
0.0
  3
*Paper_Space7
  1
*Paper_Space7
  0
VIEWPORT
  5
20A
330
206
100
AcDbEntity
  8
0
 48
100.0
100
AcDbViewport
 10
0.0
 20
0.0
 30
0.0
 40
588.545729
 41
340.280126
 68
     1
 69
     1
 12
151.627136
 22
129.479246
 13
0.0
 23
0.0
 14
10.0
 24
10.0
 15
10.0
 25
10.0
 16
0.0
 26
0.0
 36
1.0
 17
0.0
 27
0.0
 37
0.0
 42
50.0
 43
0.0
 44
0.0
 45
340.280126
 50
0.0
 51
0.0
 72
   100
 90
   557168
  1

281
     0
 71
     1
 74
     0
110
0.0
120
0.0
130
0.0
111
1.0
121
0.0
131
0.0
112
0.0
122
1.0
132
0.0
 79
     0
146
0.0
170
     0
 61
     5
348
2C
292
     1
282
     1
141
0.0
142
0.0
 63
   256
  0
ENDBLK
  5
208
330
206
100
AcDbEntity
  8
0
100
AcDbBlockEnd
  0
BLOCK
  5
20C
330
20B
100
AcDbEntity
  8
0
100
AcDbBlockBegin
  2
*Paper_Space8
 70
     0
 10
0.0
 20
0.0
 30
0.0
  3
*Paper_Space8
  1
*Paper_Space8
  0
VIEWPORT
  5
20F
330
20B
100
AcDbEntity
  8
0
 48
100.0
100
AcDbViewport
 10
0.0
 20
0.0
 30
0.0
 40
588.545729
 41
340.280126
 68
     1
 69
     1
 12
213.910905
 22
130.914724
 13
0.0
 23
0.0
 14
10.0
 24
10.0
 15
10.0
 25
10.0
 16
0.0
 26
0.0
 36
1.0
 17
0.0
 27
0.0
 37
0.0
 42
50.0
 43
0.0
 44
0.0
 45
340.280126
 50
0.0
 51
0.0
 72
   100
 90
   557168
  1

281
     0
 71
     1
 74
     0
110
0.0
120
0.0
130
0.0
111
1.0
121
0.0
131
0.0
112
0.0
122
1.0
132
0.0
 79
     0
146
0.0
170
     0
 61
     5
348
2C
292
     1
282
     1
141
0.0
142
0.0
 63
   256
  0
ENDBLK
  5
20D
330
20B
100
AcDbEntity
  8
0
100
AcDbBlockEnd
  0
ENDSEC
  0
SECTION
  2
ENTITIES
  0
LINE
  5
53
330
16
100
AcDbEntity
  8
0
100
AcDbLine
 10
138.393715
 20
431.440929
 30
0.0
 11
26.393715
 21
431.440929
 31
0.0
  0
ARC
  5
54
330
16
100
AcDbEntity
  8
0
100
AcDbCircle
 10
26.393715
 20
423.940929
 30
0.0
 40
7.499999999998622
100
AcDbArc
 50
90.0
 51
180.0
1001
McsXdata5
1071
      167
1004
06000000000000008B0000001C000000E404000000000000000000001F050A025C020509020FEE020C4D43535F46494C4C45545F3109020FEE020C4D43535F46494C4C45545F3209020FEE020C4D43535F46494C4C45545F3309020FEE020C4D43535F46494C4C45545F3409020FEE020C4D43535F46494C4C45545F351202
1004
2602050201030201030202020103020326020402010302012202010302010302010201030201221A
  0
LINE
  5
56
330
16
100
AcDbEntity
  8
0
100
AcDbLine
 10
18.893715
 20
356.940929
 30
0.0
 11
18.893715
 21
423.940929
 31
0.0
  0
ARC
  5
57
330
16
100
AcDbEntity
  8
0
100
AcDbCircle
 10
26.393715
 20
356.940929
 30
0.0
 40
7.499999999999318
100
AcDbArc
 50
180.0
 51
270.0
1001
McsXdata5
1071
      167
1004
06000000000000008B0000001C000000E404000000000000000000001F050A025C020509020FEE020C4D43535F46494C4C45545F3109020FEE020C4D43535F46494C4C45545F3209020FEE020C4D43535F46494C4C45545F3309020FEE020C4D43535F46494C4C45545F3409020FEE020C4D43535F46494C4C45545F351202
1004
2602050201030201030202020103020326020402010302012202010302010302010201030201221A
  0
LINE
  5
58
330
16
100
AcDbEntity
  8
0
100
AcDbLine
 10
26.393715
 20
349.440929
 30
0.0
 11
138.393715
 21
349.440929
 31
0.0
  0
ARC
  5
59
330
16
100
AcDbEntity
  8
0
100
AcDbCircle
 10
138.393715
 20
356.940929
 30
0.0
 40
7.500000000000405
100
AcDbArc
 50
270.0
 51
0.0
1001
McsXdata5
1071
      167
1004
06000000000000008B0000001C000000E404000000000000000000001F050A025C020509020FEE020C4D43535F46494C4C45545F3109020FEE020C4D43535F46494C4C45545F3209020FEE020C4D43535F46494C4C45545F3309020FEE020C4D43535F46494C4C45545F3409020FEE020C4D43535F46494C4C45545F351202
1004
2602050201030201030202020103020326020402010302012202010302010302010201030201221A
  0
LINE
  5
5A
330
16
100
AcDbEntity
  8
0
100
AcDbLine
 10
145.893715
 20
356.940929
 30
0.0
 11
145.893715
 21
423.940929
 31
0.0
  0
ARC
  5
5B
330
16
100
AcDbEntity
  8
0
100
AcDbCircle
 10
138.393715
 20
423.940929
 30
0.0
 40
7.500000000003922
100
AcDbArc
 50
0.0
 51
90.0
1001
McsXdata5
1071
      167
1004
06000000000000008B0000001C000000E404000000000000000000001F050A025C020509020FEE020C4D43535F46494C4C45545F3109020FEE020C4D43535F46494C4C45545F3209020FEE020C4D43535F46494C4C45545F3309020FEE020C4D43535F46494C4C45545F3409020FEE020C4D43535F46494C4C45545F351202
1004
2602050201030201030202020103020326020402010302012202010302010302010201030201221A
  0
CIRCLE
  5
5C
330
16
100
AcDbEntity
  8
0
100
AcDbCircle
 10
39.893715
 20
368.690929
 30
0.0
 40
1.7
  0
CIRCLE
  5
5D
330
16
100
AcDbEntity
  8
0
100
AcDbCircle
 10
54.893715
 20
368.690929
 30
0.0
 40
1.7
  0
CIRCLE
  5
5E
330
16
100
AcDbEntity
  8
0
100
AcDbCircle
 10
78.393715
 20
368.690929
 30
0.0
 40
1.7
  0
CIRCLE
  5
5F
330
16
100
AcDbEntity
  8
0
100
AcDbCircle
 10
124.893715
 20
368.690929
 30
0.0
 40
1.7
  0
CIRCLE
  5
60
330
16
100
AcDbEntity
  8
0
100
AcDbCircle
 10
109.893715
 20
368.690929
 30
0.0
 40
1.7
  0
CIRCLE
  5
61
330
16
100
AcDbEntity
  8
0
100
AcDbCircle
 10
86.393715
 20
368.690929
 30
0.0
 40
1.7
  0
CIRCLE
  5
62
330
16
100
AcDbEntity
  8
0
100
AcDbCircle
 10
39.893715
 20
412.190929
 30
0.0
 40
1.7
  0
CIRCLE
  5
63
330
16
100
AcDbEntity
  8
0
100
AcDbCircle
 10
78.393715
 20
412.190929
 30
0.0
 40
1.7
  0
CIRCLE
  5
64
330
16
100
AcDbEntity
  8
0
100
AcDbCircle
 10
124.893715
 20
412.190929
 30
0.0
 40
1.7
  0
CIRCLE
  5
65
330
16
100
AcDbEntity
  8
0
100
AcDbCircle
 10
86.393715
 20
412.190929
 30
0.0
 40
1.7
  0
CIRCLE
  5
66
330
16
100
AcDbEntity
  8
0
100
AcDbCircle
 10
62.893715
 20
412.190929
 30
0.0
 40
1.7
  0
CIRCLE
  5
67
330
16
100
AcDbEntity
  8
0
100
AcDbCircle
 10
101.893715
 20
412.190929
 30
0.0
 40
1.7
  0
CIRCLE
  5
68
330
16
100
AcDbEntity
  8
0
100
AcDbCircle
 10
53.393715
 20
378.940929
 30
0.0
 40
1.375
  0
CIRCLE
  5
69
330
16
100
AcDbEntity
  8
0
100
AcDbCircle
 10
53.393715
 20
401.940929
 30
0.0
 40
1.375
  0
CIRCLE
  5
6A
330
16
100
AcDbEntity
  8
0
100
AcDbCircle
 10
111.393715
 20
401.940929
 30
0.0
 40
1.375
  0
CIRCLE
  5
6B
330
16
100
AcDbEntity
  8
0
100
AcDbCircle
 10
111.393715
 20
378.940929
 30
0.0
 40
1.375
  0
CIRCLE
  5
6C
330
16
100
AcDbEntity
  8
0
100
AcDbCircle
 10
27.979502
 20
358.526716
 30
0.0
 40
1.1
  0
CIRCLE
  5
6D
330
16
100
AcDbEntity
  8
0
100
AcDbCircle
 10
27.979502
 20
422.355143
 30
0.0
 40
1.1
  0
CIRCLE
  5
6E
330
16
100
AcDbEntity
  8
0
100
AcDbCircle
 10
136.807929
 20
358.526716
 30
0.0
 40
1.1
  0
CIRCLE
  5
6F
330
16
100
AcDbEntity
  8
0
100
AcDbCircle
 10
136.807929
 20
422.355143
 30
0.0
 40
1.1
  0
LINE
  5
70
330
16
100
AcDbEntity
  8
0
100
AcDbLine
 10
299.891615
 20
431.440929
 30
0.0
 11
187.891615
 21
431.440929
 31
0.0
  0
ARC
  5
71
330
16
100
AcDbEntity
  8
0
100
AcDbCircle
 10
187.891615
 20
423.940929
 30
0.0
 40
7.499999999998622
100
AcDbArc
 50
90.0
 51
180.0
1001
McsXdata5
1071
      167
1004
06000000000000008B0000001C000000E404000000000000000000001F050A025C020509020FEE020C4D43535F46494C4C45545F3109020FEE020C4D43535F46494C4C45545F3209020FEE020C4D43535F46494C4C45545F3309020FEE020C4D43535F46494C4C45545F3409020FEE020C4D43535F46494C4C45545F351202
1004
2602050201030201030202020103020326020402010302012202010302010302010201030201221A
  0
LINE
  5
72
330
16
100
AcDbEntity
  8
0
100
AcDbLine
 10
180.391615
 20
356.940929
 30
0.0
 11
180.391615
 21
423.940929
 31
0.0
  0
ARC
  5
73
330
16
100
AcDbEntity
  8
0
100
AcDbCircle
 10
187.891615
 20
356.940929
 30
0.0
 40
7.499999999999318
100
AcDbArc
 50
180.0
 51
270.0
1001
McsXdata5
1071
      167
1004
06000000000000008B0000001C000000E404000000000000000000001F050A025C020509020FEE020C4D43535F46494C4C45545F3109020FEE020C4D43535F46494C4C45545F3209020FEE020C4D43535F46494C4C45545F3309020FEE020C4D43535F46494C4C45545F3409020FEE020C4D43535F46494C4C45545F351202
1004
2602050201030201030202020103020326020402010302012202010302010302010201030201221A
  0
LINE
  5
74
330
16
100
AcDbEntity
  8
0
100
AcDbLine
 10
187.891615
 20
349.440929
 30
0.0
 11
299.891615
 21
349.440929
 31
0.0
  0
ARC
  5
75
330
16
100
AcDbEntity
  8
0
100
AcDbCircle
 10
299.891615
 20
356.940929
 30
0.0
 40
7.500000000000405
100
AcDbArc
 50
270.0
 51
0.0
1001
McsXdata5
1071
      167
1004
06000000000000008B0000001C000000E404000000000000000000001F050A025C020509020FEE020C4D43535F46494C4C45545F3109020FEE020C4D43535F46494C4C45545F3209020FEE020C4D43535F46494C4C45545F3309020FEE020C4D43535F46494C4C45545F3409020FEE020C4D43535F46494C4C45545F351202
1004
2602050201030201030202020103020326020402010302012202010302010302010201030201221A
  0
LINE
  5
76
330
16
100
AcDbEntity
  8
0
100
AcDbLine
 10
307.391615
 20
356.940929
 30
0.0
 11
307.391615
 21
423.940929
 31
0.0
  0
ARC
  5
77
330
16
100
AcDbEntity
  8
0
100
AcDbCircle
 10
299.891615
 20
423.940929
 30
0.0
 40
7.500000000003922
100
AcDbArc
 50
0.0
 51
90.0
1001
McsXdata5
1071
      167
1004
06000000000000008B0000001C000000E404000000000000000000001F050A025C020509020FEE020C4D43535F46494C4C45545F3109020FEE020C4D43535F46494C4C45545F3209020FEE020C4D43535F46494C4C45545F3309020FEE020C4D43535F46494C4C45545F3409020FEE020C4D43535F46494C4C45545F351202
1004
2602050201030201030202020103020326020402010302012202010302010302010201030201221A
  0
CIRCLE
  5
78
330
16
100
AcDbEntity
  8
0
100
AcDbCircle
 10
189.477401
 20
358.526716
 30
0.0
 40
1.1
  0
CIRCLE
  5
79
330
16
100
AcDbEntity
  8
0
100
AcDbCircle
 10
189.477401
 20
422.355143
 30
0.0
 40
1.1
  0
CIRCLE
  5
7A
330
16
100
AcDbEntity
  8
0
100
AcDbCircle
 10
298.305828
 20
358.526716
 30
0.0
 40
1.1
  0
CIRCLE
  5
7B
330
16
100
AcDbEntity
  8
0
100
AcDbCircle
 10
298.305828
 20
422.355143
 30
0.0
 40
1.1
  0
CIRCLE
  5
7C
330
16
100
AcDbEntity
  8
0
100
AcDbCircle
 10
208.891615
 20
370.690929
 30
0.0
 40
7.5
  0
CIRCLE
  5
7D
330
16
100
AcDbEntity
  8
0
100
AcDbCircle
 10
232.141615
 20
370.690929
 30
0.0
 40
7.5
  0
CIRCLE
  5
7E
330
16
100
AcDbEntity
  8
0
100
AcDbCircle
 10
255.641615
 20
370.690929
 30
0.0
 40
7.5
  0
CIRCLE
  5
7F
330
16
100
AcDbEntity
  8
0
100
AcDbCircle
 10
278.891615
 20
370.690929
 30
0.0
 40
7.5
  0
LINE
  5
80
330
16
100
AcDbEntity
  8
0
100
AcDbLine
 10
28.463454
 20
259.587264
 30
0.0
 11
64.363454
 21
259.587264
 31
0.0
  0
LINE
  5
81
330
16
100
AcDbEntity
  8
0
100
AcDbLine
 10
28.463454
 20
259.587264
 30
0.0
 11
28.463454
 21
286.487264
 31
0.0
  0
LINE
  5
82
330
16
100
AcDbEntity
  8
0
100
AcDbLine
 10
64.363454
 20
259.587264
 30
0.0
 11
64.363454
 21
286.487264
 31
0.0
  0
LINE
  5
83
330
16
100
AcDbEntity
  8
0
100
AcDbLine
 10
28.463454
 20
286.487264
 30
0.0
 11
64.363454
 21
286.487264
 31
0.0
  0
LINE
  5
84
330
16
100
AcDbEntity
  8
0
100
AcDbLine
 10
21.549093
 20
244.590248
 30
0.0
 11
121.549093
 21
244.590248
 31
0.0
  0
LINE
  5
85
330
16
100
AcDbEntity
  8
0
100
AcDbLine
 10
121.549093
 20
244.590248
 30
0.0
 11
121.549093
 21
299.590248
 31
0.0
  0
LINE
  5
86
330
16
100
AcDbEntity
  8
0
100
AcDbLine
 10
21.549093
 20
244.590248
 30
0.0
 11
21.549093
 21
299.590248
 31
0.0
  0
LINE
  5
87
330
16
100
AcDbEntity
  8
0
100
AcDbLine
 10
15.549093
 20
234.590248
 30
0.0
 11
127.549093
 21
234.590248
 31
0.0
  0
LINE
  5
88
330
16
100
AcDbEntity
  8
0
100
AcDbLine
 10
11.549093
 20
238.590248
 30
0.0
 11
11.549093
 21
305.590248
 31
0.0
  0
LINE
  5
89
330
16
100
AcDbEntity
  8
0
100
AcDbLine
 10
131.549093
 20
238.590248
 30
0.0
 11
131.549093
 21
305.590248
 31
0.0
  0
ARC
  5
8A
330
16
100
AcDbEntity
  8
0
100
AcDbCircle
 10
15.549093
 20
305.590248
 30
0.0
 40
3.999999999998622
100
AcDbArc
 50
90.0
 51
180.0
1001
McsXdata5
1071
      167
1004
06000000000000008B0000001C000000E404000000000000000000001F050A025C020509020FEE020C4D43535F46494C4C45545F3109020FEE020C4D43535F46494C4C45545F3209020FEE020C4D43535F46494C4C45545F3309020FEE020C4D43535F46494C4C45545F3409020FEE020C4D43535F46494C4C45545F351202
1004
2602050201030201030202020103020326020402010302012202010302010302010201030201221A
  0
ARC
  5
8B
330
16
100
AcDbEntity
  8
0
100
AcDbCircle
 10
127.549093
 20
305.590248
 30
0.0
 40
4.000000000003922
100
AcDbArc
 50
0.0
 51
90.0
1001
McsXdata5
1071
      167
1004
06000000000000008B0000001C000000E404000000000000000000001F050A025C020509020FEE020C4D43535F46494C4C45545F3109020FEE020C4D43535F46494C4C45545F3209020FEE020C4D43535F46494C4C45545F3309020FEE020C4D43535F46494C4C45545F3409020FEE020C4D43535F46494C4C45545F351202
1004
2602050201030201030202020103020326020402010302012202010302010302010201030201221A
  0
ARC
  5
8C
330
16
100
AcDbEntity
  8
0
100
AcDbCircle
 10
127.549093
 20
238.590248
 30
0.0
 40
4.000000000000405
100
AcDbArc
 50
270.0
 51
0.0
1001
McsXdata5
1071
      167
1004
06000000000000008B0000001C000000E404000000000000000000001F050A025C020509020FEE020C4D43535F46494C4C45545F3109020FEE020C4D43535F46494C4C45545F3209020FEE020C4D43535F46494C4C45545F3309020FEE020C4D43535F46494C4C45545F3409020FEE020C4D43535F46494C4C45545F351202
1004
2602050201030201030202020103020326020402010302012202010302010302010201030201221A
  0
ARC
  5
8D
330
16
100
AcDbEntity
  8
0
100
AcDbCircle
 10
15.549093
 20
238.590248
 30
0.0
 40
3.999999999999318
100
AcDbArc
 50
180.0
 51
270.0
1001
McsXdata5
1071
      167
1004
06000000000000008B0000001C000000E404000000000000000000001F050A025C020509020FEE020C4D43535F46494C4C45545F3109020FEE020C4D43535F46494C4C45545F3209020FEE020C4D43535F46494C4C45545F3309020FEE020C4D43535F46494C4C45545F3409020FEE020C4D43535F46494C4C45545F351202
1004
2602050201030201030202020103020326020402010302012202010302010302010201030201221A
  0
ARC
  5
8E
330
16
100
AcDbEntity
  8
0
100
AcDbCircle
 10
81.954768
 20
307.590248
 30
0.0
 40
2.000000000002075
100
AcDbArc
 50
0.0
 51
90.0
1001
McsXdata5
1071
      167
1004
06000000000000008B0000001C000000E404000000000000000000001F050A025C020509020FEE020C4D43535F46494C4C45545F3109020FEE020C4D43535F46494C4C45545F3209020FEE020C4D43535F46494C4C45545F3309020FEE020C4D43535F46494C4C45545F3409020FEE020C4D43535F46494C4C45545F351202
1004
2602050201030201030202020103020326020202010302012202010302010302010201030201221A
  0
ARC
  5
8F
330
16
100
AcDbEntity
  8
0
100
AcDbCircle
 10
115.954768
 20
307.590248
 30
0.0
 40
1.999999999999446
100
AcDbArc
 50
90.0
 51
180.0
1001
McsXdata5
1071
      167
1004
06000000000000008B0000001C000000E404000000000000000000001F050A025C020509020FEE020C4D43535F46494C4C45545F3109020FEE020C4D43535F46494C4C45545F3209020FEE020C4D43535F46494C4C45545F3309020FEE020C4D43535F46494C4C45545F3409020FEE020C4D43535F46494C4C45545F351202
1004
2602050201030201030202020103020326020202010302012202010302010302010201030201221A
  0
LINE
  5
90
330
16
100
AcDbEntity
  8
0
100
AcDbLine
 10
80.954768
 20
302.590248
 30
0.0
 11
80.954768
 21
305.640248
 31
0.0
  0
LINE
  5
91
330
16
100
AcDbEntity
  8
0
100
AcDbLine
 10
83.954768
 20
299.590248
 30
0.0
 11
83.954768
 21
302.590248
 31
0.0
  0
LINE
  5
92
330
16
100
AcDbEntity
  8
0
100
AcDbLine
 10
83.954768
 20
305.640248
 30
0.0
 11
83.954768
 21
307.590248
 31
0.0
  0
LINE
  5
93
330
16
100
AcDbEntity
  8
0
100
AcDbLine
 10
83.954768
 20
305.640248
 30
0.0
 11
80.954768
 21
305.640248
 31
0.0
  0
LINE
  5
94
330
16
100
AcDbEntity
  8
0
100
AcDbLine
 10
83.954768
 20
302.590248
 30
0.0
 11
80.954768
 21
302.590248
 31
0.0
  0
LINE
  5
95
330
16
100
AcDbEntity
  8
0
100
AcDbLine
 10
113.954768
 20
299.590248
 30
0.0
 11
113.954768
 21
302.590248
 31
0.0
  0
LINE
  5
96
330
16
100
AcDbEntity
  8
0
100
AcDbLine
 10
113.954768
 20
305.640248
 30
0.0
 11
113.954768
 21
307.590248
 31
0.0
  0
LINE
  5
97
330
16
100
AcDbEntity
  8
0
100
AcDbLine
 10
116.954768
 20
305.640248
 30
0.0
 11
113.954768
 21
305.640248
 31
0.0
  0
LINE
  5
98
330
16
100
AcDbEntity
  8
0
100
AcDbLine
 10
116.954768
 20
302.590248
 30
0.0
 11
113.954768
 21
302.590248
 31
0.0
  0
LINE
  5
99
330
16
100
AcDbEntity
  8
0
100
AcDbLine
 10
116.954768
 20
302.590248
 30
0.0
 11
116.954768
 21
305.640248
 31
0.0
  0
CIRCLE
  5
9A
330
16
100
AcDbEntity
  8
0
100
AcDbCircle
 10
17.134879
 20
240.176034
 30
0.0
 40
1.1
  0
CIRCLE
  5
9B
330
16
100
AcDbEntity
  8
0
100
AcDbCircle
 10
17.134879
 20
304.004461
 30
0.0
 40
1.1
  0
CIRCLE
  5
9C
330
16
100
AcDbEntity
  8
0
100
AcDbCircle
 10
125.963306
 20
240.176034
 30
0.0
 40
1.1
  0
CIRCLE
  5
9D
330
16
100
AcDbEntity
  8
0
100
AcDbCircle
 10
125.963306
 20
304.004461
 30
0.0
 40
1.1
  0
LINE
  5
9E
330
16
100
AcDbEntity
  8
0
100
AcDbLine
 10
21.549093
 20
299.590248
 30
0.0
 11
83.954768
 21
299.590248
 31
0.0
  0
LINE
  5
9F
330
16
100
AcDbEntity
  8
0
100
AcDbLine
 10
81.954768
 20
309.590248
 30
0.0
 11
15.549093
 21
309.590248
 31
0.0
  0
LINE
  5
A0
330
16
100
AcDbEntity
  8
0
100
AcDbLine
 10
113.954768
 20
299.590248
 30
0.0
 11
121.549093
 21
299.590248
 31
0.0
  0
LINE
  5
A1
330
16
100
AcDbEntity
  8
0
100
AcDbLine
 10
115.954768
 20
309.590248
 30
0.0
 11
127.549093
 21
309.590248
 31
0.0
  0
LINE
  5
A2
330
16
100
AcDbEntity
  8
0
100
AcDbLine
 10
203.787876
 20
324.568972
 30
0.0
 11
103.787876
 21
324.568972
 31
0.0
  0
LINE
  5
A3
330
16
100
AcDbEntity
  8
0
100
AcDbLine
 10
103.787876
 20
324.568972
 30
0.0
 11
103.787876
 21
269.568972
 31
0.0
  0
LINE
  5
A4
330
16
100
AcDbEntity
  8
0
100
AcDbLine
 10
203.787876
 20
324.568972
 30
0.0
 11
203.787876
 21
269.568972
 31
0.0
  0
LINE
  5
A5
330
16
100
AcDbEntity
  8
0
100
AcDbLine
 10
144.3822
 20
266.568972
 30
0.0
 11
144.3822
 21
263.518972
 31
0.0
  0
LINE
  5
A6
330
16
100
AcDbEntity
  8
0
100
AcDbLine
 10
141.3822
 20
269.568972
 30
0.0
 11
141.3822
 21
266.568972
 31
0.0
  0
LINE
  5
A7
330
16
100
AcDbEntity
  8
0
100
AcDbLine
 10
141.3822
 20
263.518972
 30
0.0
 11
141.3822
 21
258.068972
 31
0.0
  0
LINE
  5
A8
330
16
100
AcDbEntity
  8
0
100
AcDbLine
 10
141.3822
 20
263.518972
 30
0.0
 11
144.3822
 21
263.518972
 31
0.0
  0
LINE
  5
A9
330
16
100
AcDbEntity
  8
0
100
AcDbLine
 10
141.3822
 20
266.568972
 30
0.0
 11
144.3822
 21
266.568972
 31
0.0
  0
LINE
  5
AA
330
16
100
AcDbEntity
  8
0
100
AcDbLine
 10
111.3822
 20
269.568972
 30
0.0
 11
111.3822
 21
266.568972
 31
0.0
  0
LINE
  5
AB
330
16
100
AcDbEntity
  8
0
100
AcDbLine
 10
111.3822
 20
263.518972
 30
0.0
 11
111.3822
 21
258.068972
 31
0.0
  0
LINE
  5
AC
330
16
100
AcDbEntity
  8
0
100
AcDbLine
 10
108.3822
 20
263.518972
 30
0.0
 11
111.3822
 21
263.518972
 31
0.0
  0
LINE
  5
AD
330
16
100
AcDbEntity
  8
0
100
AcDbLine
 10
108.3822
 20
266.568972
 30
0.0
 11
111.3822
 21
266.568972
 31
0.0
  0
LINE
  5
AE
330
16
100
AcDbEntity
  8
0
100
AcDbLine
 10
108.3822
 20
266.568972
 30
0.0
 11
108.3822
 21
263.518972
 31
0.0
  0
ARC
  5
AF
330
16
100
AcDbEntity
  8
0
100
AcDbCircle
 10
209.787876
 20
263.568972
 30
0.0
 40
7.499999999998622
100
AcDbArc
 50
270.0
 51
0.0
1001
McsXdata5
1071
      167
1004
06000000000000008B0000001C000000E404000000000000000000001F050A025C020509020FEE020C4D43535F46494C4C45545F3109020FEE020C4D43535F46494C4C45545F3209020FEE020C4D43535F46494C4C45545F3309020FEE020C4D43535F46494C4C45545F3409020FEE020C4D43535F46494C4C45545F351202
1004
2602050201030201030202020103020326020402010302012202010302010302010201030201221A
  0
LINE
  5
B0
330
16
100
AcDbEntity
  8
0
100
AcDbLine
 10
217.287876
 20
330.568972
 30
0.0
 11
217.287876
 21
263.568972
 31
0.0
  0
ARC
  5
B1
330
16
100
AcDbEntity
  8
0
100
AcDbCircle
 10
209.787876
 20
330.568972
 30
0.0
 40
7.499999999999318
100
AcDbArc
 50
0.0
 51
90.0
1001
McsXdata5
1071
      167
1004
06000000000000008B0000001C000000E404000000000000000000001F050A025C020509020FEE020C4D43535F46494C4C45545F3109020FEE020C4D43535F46494C4C45545F3209020FEE020C4D43535F46494C4C45545F3309020FEE020C4D43535F46494C4C45545F3409020FEE020C4D43535F46494C4C45545F351202
1004
2602050201030201030202020103020326020402010302012202010302010302010201030201221A
  0
LINE
  5
B2
330
16
100
AcDbEntity
  8
0
100
AcDbLine
 10
209.787876
 20
338.068972
 30
0.0
 11
97.787876
 21
338.068972
 31
0.0
  0
ARC
  5
B3
330
16
100
AcDbEntity
  8
0
100
AcDbCircle
 10
97.787876
 20
330.568972
 30
0.0
 40
7.500000000000405
100
AcDbArc
 50
90.0
 51
180.0
1001
McsXdata5
1071
      167
1004
06000000000000008B0000001C000000E404000000000000000000001F050A025C020509020FEE020C4D43535F46494C4C45545F3109020FEE020C4D43535F46494C4C45545F3209020FEE020C4D43535F46494C4C45545F3309020FEE020C4D43535F46494C4C45545F3409020FEE020C4D43535F46494C4C45545F351202
1004
2602050201030201030202020103020326020402010302012202010302010302010201030201221A
  0
LINE
  5
B4
330
16
100
AcDbEntity
  8
0
100
AcDbLine
 10
90.287876
 20
330.568972
 30
0.0
 11
90.287876
 21
263.568972
 31
0.0
  0
ARC
  5
B5
330
16
100
AcDbEntity
  8
0
100
AcDbCircle
 10
97.787876
 20
263.568972
 30
0.0
 40
7.500000000003922
100
AcDbArc
 50
180.0
 51
270.0
1001
McsXdata5
1071
      167
1004
06000000000000008B0000001C000000E404000000000000000000001F050A025C020509020FEE020C4D43535F46494C4C45545F3109020FEE020C4D43535F46494C4C45545F3209020FEE020C4D43535F46494C4C45545F3309020FEE020C4D43535F46494C4C45545F3409020FEE020C4D43535F46494C4C45545F351202
1004
2602050201030201030202020103020326020402010302012202010302010302010201030201221A
  0
ARC
  5
B6
330
16
100
AcDbEntity
  8
0
100
AcDbCircle
 10
143.3822
 20
258.068972
 30
0.0
 40
2.000000000012818
100
AcDbArc
 50
180.0
 51
270.0
1001
McsXdata5
1071
      167
1004
06000000000000008B0000001C000000E404000000000000000000001F050A025C020509020FEE020C4D43535F46494C4C45545F3109020FEE020C4D43535F46494C4C45545F3209020FEE020C4D43535F46494C4C45545F3309020FEE020C4D43535F46494C4C45545F3409020FEE020C4D43535F46494C4C45545F351202
1004
2602050201030201030202020103020326020202010302012202010302010302010201030201221A
  0
ARC
  5
B7
330
16
100
AcDbEntity
  8
0
100
AcDbCircle
 10
109.3822
 20
258.068972
 30
0.0
 40
2.00000000000054
100
AcDbArc
 50
270.0
 51
0.0
1001
McsXdata5
1071
      167
1004
06000000000000008B0000001C000000E404000000000000000000001F050A025C020509020FEE020C4D43535F46494C4C45545F3109020FEE020C4D43535F46494C4C45545F3209020FEE020C4D43535F46494C4C45545F3309020FEE020C4D43535F46494C4C45545F3409020FEE020C4D43535F46494C4C45545F351202
1004
2602050201030201030202020103020326020202010302012202010302010302010201030201221A
  0
CIRCLE
  5
B8
330
16
100
AcDbEntity
  8
0
100
AcDbCircle
 10
208.20209
 20
328.983186
 30
0.0
 40
1.1
  0
CIRCLE
  5
B9
330
16
100
AcDbEntity
  8
0
100
AcDbCircle
 10
208.20209
 20
265.154759
 30
0.0
 40
1.1
  0
CIRCLE
  5
BA
330
16
100
AcDbEntity
  8
0
100
AcDbCircle
 10
99.373662
 20
328.983186
 30
0.0
 40
1.1
  0
CIRCLE
  5
BB
330
16
100
AcDbEntity
  8
0
100
AcDbCircle
 10
99.373662
 20
265.154759
 30
0.0
 40
1.1
  0
LINE
  5
BC
330
16
100
AcDbEntity
  8
0
100
AcDbLine
 10
111.3822
 20
269.568972
 30
0.0
 11
103.787876
 21
269.568972
 31
0.0
  0
LINE
  5
BD
330
16
100
AcDbEntity
  8
0
100
AcDbLine
 10
109.3822
 20
256.068972
 30
0.0
 11
97.787876
 21
256.068972
 31
0.0
  0
LINE
  5
BE
330
16
100
AcDbEntity
  8
0
100
AcDbLine
 10
209.787876
 20
256.068972
 30
0.0
 11
143.3822
 21
256.068972
 31
0.0
  0
LINE
  5
BF
330
16
100
AcDbEntity
  8
0
100
AcDbLine
 10
141.3822
 20
269.568972
 30
0.0
 11
203.787876
 21
269.568972
 31
0.0
  0
LINE
  5
C0
330
16
100
AcDbEntity
  8
0
100
AcDbLine
 10
234.829433
 20
244.590248
 30
0.0
 11
334.829433
 21
244.590248
 31
0.0
  0
LINE
  5
C1
330
16
100
AcDbEntity
  8
0
100
AcDbLine
 10
334.829433
 20
244.590248
 30
0.0
 11
334.829433
 21
299.590248
 31
0.0
  0
LINE
  5
C2
330
16
100
AcDbEntity
  8
0
100
AcDbLine
 10
234.829433
 20
244.590248
 30
0.0
 11
234.829433
 21
299.590248
 31
0.0
  0
LINE
  5
C3
330
16
100
AcDbEntity
  8
0
100
AcDbLine
 10
228.829433
 20
234.590248
 30
0.0
 11
340.829433
 21
234.590248
 31
0.0
  0
LINE
  5
C4
330
16
100
AcDbEntity
  8
0
100
AcDbLine
 10
224.829433
 20
238.590248
 30
0.0
 11
224.829433
 21
305.590248
 31
0.0
  0
LINE
  5
C5
330
16
100
AcDbEntity
  8
0
100
AcDbLine
 10
344.829433
 20
238.590248
 30
0.0
 11
344.829433
 21
305.590248
 31
0.0
  0
ARC
  5
C6
330
16
100
AcDbEntity
  8
0
100
AcDbCircle
 10
228.829433
 20
305.590248
 30
0.0
 40
3.999999999998622
100
AcDbArc
 50
90.0
 51
180.0
1001
McsXdata5
1071
      167
1004
06000000000000008B0000001C000000E404000000000000000000001F050A025C020509020FEE020C4D43535F46494C4C45545F3109020FEE020C4D43535F46494C4C45545F3209020FEE020C4D43535F46494C4C45545F3309020FEE020C4D43535F46494C4C45545F3409020FEE020C4D43535F46494C4C45545F351202
1004
2602050201030201030202020103020326020402010302012202010302010302010201030201221A
  0
ARC
  5
C7
330
16
100
AcDbEntity
  8
0
100
AcDbCircle
 10
340.829433
 20
305.590248
 30
0.0
 40
4.000000000003922
100
AcDbArc
 50
0.0
 51
90.0
1001
McsXdata5
1071
      167
1004
06000000000000008B0000001C000000E404000000000000000000001F050A025C020509020FEE020C4D43535F46494C4C45545F3109020FEE020C4D43535F46494C4C45545F3209020FEE020C4D43535F46494C4C45545F3309020FEE020C4D43535F46494C4C45545F3409020FEE020C4D43535F46494C4C45545F351202
1004
2602050201030201030202020103020326020402010302012202010302010302010201030201221A
  0
ARC
  5
C8
330
16
100
AcDbEntity
  8
0
100
AcDbCircle
 10
340.829433
 20
238.590248
 30
0.0
 40
4.000000000000405
100
AcDbArc
 50
270.0
 51
0.0
1001
McsXdata5
1071
      167
1004
06000000000000008B0000001C000000E404000000000000000000001F050A025C020509020FEE020C4D43535F46494C4C45545F3109020FEE020C4D43535F46494C4C45545F3209020FEE020C4D43535F46494C4C45545F3309020FEE020C4D43535F46494C4C45545F3409020FEE020C4D43535F46494C4C45545F351202
1004
2602050201030201030202020103020326020402010302012202010302010302010201030201221A
  0
ARC
  5
C9
330
16
100
AcDbEntity
  8
0
100
AcDbCircle
 10
228.829433
 20
238.590248
 30
0.0
 40
3.999999999999318
100
AcDbArc
 50
180.0
 51
270.0
1001
McsXdata5
1071
      167
1004
06000000000000008B0000001C000000E404000000000000000000001F050A025C020509020FEE020C4D43535F46494C4C45545F3109020FEE020C4D43535F46494C4C45545F3209020FEE020C4D43535F46494C4C45545F3309020FEE020C4D43535F46494C4C45545F3409020FEE020C4D43535F46494C4C45545F351202
1004
2602050201030201030202020103020326020402010302012202010302010302010201030201221A
  0
ARC
  5
CA
330
16
100
AcDbEntity
  8
0
100
AcDbCircle
 10
295.235108
 20
307.590248
 30
0.0
 40
2.000000000002075
100
AcDbArc
 50
0.0
 51
90.0
1001
McsXdata5
1071
      167
1004
06000000000000008B0000001C000000E404000000000000000000001F050A025C020509020FEE020C4D43535F46494C4C45545F3109020FEE020C4D43535F46494C4C45545F3209020FEE020C4D43535F46494C4C45545F3309020FEE020C4D43535F46494C4C45545F3409020FEE020C4D43535F46494C4C45545F351202
1004
2602050201030201030202020103020326020202010302012202010302010302010201030201221A
  0
ARC
  5
CB
330
16
100
AcDbEntity
  8
0
100
AcDbCircle
 10
329.235108
 20
307.590248
 30
0.0
 40
1.999999999999446
100
AcDbArc
 50
90.0
 51
180.0
1001
McsXdata5
1071
      167
1004
06000000000000008B0000001C000000E404000000000000000000001F050A025C020509020FEE020C4D43535F46494C4C45545F3109020FEE020C4D43535F46494C4C45545F3209020FEE020C4D43535F46494C4C45545F3309020FEE020C4D43535F46494C4C45545F3409020FEE020C4D43535F46494C4C45545F351202
1004
2602050201030201030202020103020326020202010302012202010302010302010201030201221A
  0
LINE
  5
CC
330
16
100
AcDbEntity
  8
0
100
AcDbLine
 10
294.235108
 20
302.590248
 30
0.0
 11
294.235108
 21
305.640248
 31
0.0
  0
LINE
  5
CD
330
16
100
AcDbEntity
  8
0
100
AcDbLine
 10
297.235108
 20
299.590248
 30
0.0
 11
297.235108
 21
302.590248
 31
0.0
  0
LINE
  5
CE
330
16
100
AcDbEntity
  8
0
100
AcDbLine
 10
297.235108
 20
305.640248
 30
0.0
 11
297.235108
 21
307.590248
 31
0.0
  0
LINE
  5
CF
330
16
100
AcDbEntity
  8
0
100
AcDbLine
 10
297.235108
 20
305.640248
 30
0.0
 11
294.235108
 21
305.640248
 31
0.0
  0
LINE
  5
D0
330
16
100
AcDbEntity
  8
0
100
AcDbLine
 10
297.235108
 20
302.590248
 30
0.0
 11
294.235108
 21
302.590248
 31
0.0
  0
LINE
  5
D1
330
16
100
AcDbEntity
  8
0
100
AcDbLine
 10
327.235108
 20
299.590248
 30
0.0
 11
327.235108
 21
302.590248
 31
0.0
  0
LINE
  5
D2
330
16
100
AcDbEntity
  8
0
100
AcDbLine
 10
327.235108
 20
305.640248
 30
0.0
 11
327.235108
 21
307.590248
 31
0.0
  0
LINE
  5
D3
330
16
100
AcDbEntity
  8
0
100
AcDbLine
 10
330.235108
 20
305.640248
 30
0.0
 11
327.235108
 21
305.640248
 31
0.0
  0
LINE
  5
D4
330
16
100
AcDbEntity
  8
0
100
AcDbLine
 10
330.235108
 20
302.590248
 30
0.0
 11
327.235108
 21
302.590248
 31
0.0
  0
LINE
  5
D5
330
16
100
AcDbEntity
  8
0
100
AcDbLine
 10
330.235108
 20
302.590248
 30
0.0
 11
330.235108
 21
305.640248
 31
0.0
  0
CIRCLE
  5
D6
330
16
100
AcDbEntity
  8
0
100
AcDbCircle
 10
230.415219
 20
240.176034
 30
0.0
 40
1.1
  0
CIRCLE
  5
D7
330
16
100
AcDbEntity
  8
0
100
AcDbCircle
 10
230.415219
 20
304.004461
 30
0.0
 40
1.1
  0
CIRCLE
  5
D8
330
16
100
AcDbEntity
  8
0
100
AcDbCircle
 10
339.243646
 20
240.176034
 30
0.0
 40
1.1
  0
CIRCLE
  5
D9
330
16
100
AcDbEntity
  8
0
100
AcDbCircle
 10
339.243646
 20
304.004461
 30
0.0
 40
1.1
  0
LINE
  5
DA
330
16
100
AcDbEntity
  8
0
100
AcDbLine
 10
234.829433
 20
299.590248
 30
0.0
 11
297.235108
 21
299.590248
 31
0.0
  0
LINE
  5
DB
330
16
100
AcDbEntity
  8
0
100
AcDbLine
 10
295.235108
 20
309.590248
 30
0.0
 11
228.829433
 21
309.590248
 31
0.0
  0
LINE
  5
DC
330
16
100
AcDbEntity
  8
0
100
AcDbLine
 10
327.235108
 20
299.590248
 30
0.0
 11
334.829433
 21
299.590248
 31
0.0
  0
LINE
  5
DD
330
16
100
AcDbEntity
  8
0
100
AcDbLine
 10
329.235108
 20
309.590248
 30
0.0
 11
340.829433
 21
309.590248
 31
0.0
  0
LINE
  5
DE
330
16
100
AcDbEntity
  8
0
100
AcDbLine
 10
417.068216
 20
324.568972
 30
0.0
 11
317.068216
 21
324.568972
 31
0.0
  0
LINE
  5
DF
330
16
100
AcDbEntity
  8
0
100
AcDbLine
 10
317.068216
 20
324.568972
 30
0.0
 11
317.068216
 21
269.568972
 31
0.0
  0
LINE
  5
E0
330
16
100
AcDbEntity
  8
0
100
AcDbLine
 10
417.068216
 20
324.568972
 30
0.0
 11
417.068216
 21
269.568972
 31
0.0
  0
LINE
  5
E1
330
16
100
AcDbEntity
  8
0
100
AcDbLine
 10
357.66254
 20
266.568972
 30
0.0
 11
357.66254
 21
263.518972
 31
0.0
  0
LINE
  5
E2
330
16
100
AcDbEntity
  8
0
100
AcDbLine
 10
354.66254
 20
269.568972
 30
0.0
 11
354.66254
 21
266.568972
 31
0.0
  0
LINE
  5
E3
330
16
100
AcDbEntity
  8
0
100
AcDbLine
 10
354.66254
 20
263.518972
 30
0.0
 11
354.66254
 21
258.068972
 31
0.0
  0
LINE
  5
E4
330
16
100
AcDbEntity
  8
0
100
AcDbLine
 10
354.66254
 20
263.518972
 30
0.0
 11
357.66254
 21
263.518972
 31
0.0
  0
LINE
  5
E5
330
16
100
AcDbEntity
  8
0
100
AcDbLine
 10
354.66254
 20
266.568972
 30
0.0
 11
357.66254
 21
266.568972
 31
0.0
  0
LINE
  5
E6
330
16
100
AcDbEntity
  8
0
100
AcDbLine
 10
324.66254
 20
269.568972
 30
0.0
 11
324.66254
 21
266.568972
 31
0.0
  0
LINE
  5
E7
330
16
100
AcDbEntity
  8
0
100
AcDbLine
 10
324.66254
 20
263.518972
 30
0.0
 11
324.66254
 21
258.068972
 31
0.0
  0
LINE
  5
E8
330
16
100
AcDbEntity
  8
0
100
AcDbLine
 10
321.66254
 20
263.518972
 30
0.0
 11
324.66254
 21
263.518972
 31
0.0
  0
LINE
  5
E9
330
16
100
AcDbEntity
  8
0
100
AcDbLine
 10
321.66254
 20
266.568972
 30
0.0
 11
324.66254
 21
266.568972
 31
0.0
  0
LINE
  5
EA
330
16
100
AcDbEntity
  8
0
100
AcDbLine
 10
321.66254
 20
266.568972
 30
0.0
 11
321.66254
 21
263.518972
 31
0.0
  0
ARC
  5
EB
330
16
100
AcDbEntity
  8
0
100
AcDbCircle
 10
423.068216
 20
263.568972
 30
0.0
 40
7.499999999998622
100
AcDbArc
 50
270.0
 51
0.0
1001
McsXdata5
1071
      167
1004
06000000000000008B0000001C000000E404000000000000000000001F050A025C020509020FEE020C4D43535F46494C4C45545F3109020FEE020C4D43535F46494C4C45545F3209020FEE020C4D43535F46494C4C45545F3309020FEE020C4D43535F46494C4C45545F3409020FEE020C4D43535F46494C4C45545F351202
1004
2602050201030201030202020103020326020402010302012202010302010302010201030201221A
  0
LINE
  5
EC
330
16
100
AcDbEntity
  8
0
100
AcDbLine
 10
430.568216
 20
330.568972
 30
0.0
 11
430.568216
 21
263.568972
 31
0.0
  0
ARC
  5
ED
330
16
100
AcDbEntity
  8
0
100
AcDbCircle
 10
423.068216
 20
330.568972
 30
0.0
 40
7.499999999999318
100
AcDbArc
 50
0.0
 51
90.0
1001
McsXdata5
1071
      167
1004
06000000000000008B0000001C000000E404000000000000000000001F050A025C020509020FEE020C4D43535F46494C4C45545F3109020FEE020C4D43535F46494C4C45545F3209020FEE020C4D43535F46494C4C45545F3309020FEE020C4D43535F46494C4C45545F3409020FEE020C4D43535F46494C4C45545F351202
1004
2602050201030201030202020103020326020402010302012202010302010302010201030201221A
  0
LINE
  5
EE
330
16
100
AcDbEntity
  8
0
100
AcDbLine
 10
423.068216
 20
338.068972
 30
0.0
 11
311.068216
 21
338.068972
 31
0.0
  0
ARC
  5
EF
330
16
100
AcDbEntity
  8
0
100
AcDbCircle
 10
311.068216
 20
330.568972
 30
0.0
 40
7.500000000000405
100
AcDbArc
 50
90.0
 51
180.0
1001
McsXdata5
1071
      167
1004
06000000000000008B0000001C000000E404000000000000000000001F050A025C020509020FEE020C4D43535F46494C4C45545F3109020FEE020C4D43535F46494C4C45545F3209020FEE020C4D43535F46494C4C45545F3309020FEE020C4D43535F46494C4C45545F3409020FEE020C4D43535F46494C4C45545F351202
1004
2602050201030201030202020103020326020402010302012202010302010302010201030201221A
  0
LINE
  5
F0
330
16
100
AcDbEntity
  8
0
100
AcDbLine
 10
303.568216
 20
330.568972
 30
0.0
 11
303.568216
 21
263.568972
 31
0.0
  0
ARC
  5
F1
330
16
100
AcDbEntity
  8
0
100
AcDbCircle
 10
311.068216
 20
263.568972
 30
0.0
 40
7.500000000003922
100
AcDbArc
 50
180.0
 51
270.0
1001
McsXdata5
1071
      167
1004
06000000000000008B0000001C000000E404000000000000000000001F050A025C020509020FEE020C4D43535F46494C4C45545F3109020FEE020C4D43535F46494C4C45545F3209020FEE020C4D43535F46494C4C45545F3309020FEE020C4D43535F46494C4C45545F3409020FEE020C4D43535F46494C4C45545F351202
1004
2602050201030201030202020103020326020402010302012202010302010302010201030201221A
  0
ARC
  5
F2
330
16
100
AcDbEntity
  8
0
100
AcDbCircle
 10
356.66254
 20
258.068972
 30
0.0
 40
2.000000000012818
100
AcDbArc
 50
180.0
 51
270.0
1001
McsXdata5
1071
      167
1004
06000000000000008B0000001C000000E404000000000000000000001F050A025C020509020FEE020C4D43535F46494C4C45545F3109020FEE020C4D43535F46494C4C45545F3209020FEE020C4D43535F46494C4C45545F3309020FEE020C4D43535F46494C4C45545F3409020FEE020C4D43535F46494C4C45545F351202
1004
2602050201030201030202020103020326020202010302012202010302010302010201030201221A
  0
ARC
  5
F3
330
16
100
AcDbEntity
  8
0
100
AcDbCircle
 10
322.66254
 20
258.068972
 30
0.0
 40
2.00000000000054
100
AcDbArc
 50
270.0
 51
0.0
1001
McsXdata5
1071
      167
1004
06000000000000008B0000001C000000E404000000000000000000001F050A025C020509020FEE020C4D43535F46494C4C45545F3109020FEE020C4D43535F46494C4C45545F3209020FEE020C4D43535F46494C4C45545F3309020FEE020C4D43535F46494C4C45545F3409020FEE020C4D43535F46494C4C45545F351202
1004
2602050201030201030202020103020326020202010302012202010302010302010201030201221A
  0
CIRCLE
  5
F4
330
16
100
AcDbEntity
  8
0
100
AcDbCircle
 10
421.482429
 20
328.983186
 30
0.0
 40
1.1
  0
CIRCLE
  5
F5
330
16
100
AcDbEntity
  8
0
100
AcDbCircle
 10
421.482429
 20
265.154759
 30
0.0
 40
1.1
  0
CIRCLE
  5
F6
330
16
100
AcDbEntity
  8
0
100
AcDbCircle
 10
312.654002
 20
328.983186
 30
0.0
 40
1.1
  0
CIRCLE
  5
F7
330
16
100
AcDbEntity
  8
0
100
AcDbCircle
 10
312.654002
 20
265.154759
 30
0.0
 40
1.1
  0
LINE
  5
F8
330
16
100
AcDbEntity
  8
0
100
AcDbLine
 10
324.66254
 20
269.568972
 30
0.0
 11
317.068216
 21
269.568972
 31
0.0
  0
LINE
  5
F9
330
16
100
AcDbEntity
  8
0
100
AcDbLine
 10
322.66254
 20
256.068972
 30
0.0
 11
311.068216
 21
256.068972
 31
0.0
  0
LINE
  5
FA
330
16
100
AcDbEntity
  8
0
100
AcDbLine
 10
423.068216
 20
256.068972
 30
0.0
 11
356.66254
 21
256.068972
 31
0.0
  0
LINE
  5
FB
330
16
100
AcDbEntity
  8
0
100
AcDbLine
 10
354.66254
 20
269.568972
 30
0.0
 11
417.068216
 21
269.568972
 31
0.0
  0
LINE
  5
FC
330
16
100
AcDbEntity
  8
0
100
AcDbLine
 10
21.549093
 20
129.48207
 30
0.0
 11
121.549093
 21
129.48207
 31
0.0
  0
LINE
  5
FD
330
16
100
AcDbEntity
  8
0
100
AcDbLine
 10
121.549093
 20
129.48207
 30
0.0
 11
121.549093
 21
184.48207
 31
0.0
  0
LINE
  5
FE
330
16
100
AcDbEntity
  8
0
100
AcDbLine
 10
21.549093
 20
129.48207
 30
0.0
 11
21.549093
 21
184.48207
 31
0.0
  0
LINE
  5
FF
330
16
100
AcDbEntity
  8
0
100
AcDbLine
 10
15.549093
 20
119.48207
 30
0.0
 11
127.549093
 21
119.48207
 31
0.0
  0
LINE
  5
100
330
16
100
AcDbEntity
  8
0
100
AcDbLine
 10
11.549093
 20
123.48207
 30
0.0
 11
11.549093
 21
190.48207
 31
0.0
  0
LINE
  5
101
330
16
100
AcDbEntity
  8
0
100
AcDbLine
 10
131.549093
 20
123.48207
 30
0.0
 11
131.549093
 21
190.48207
 31
0.0
  0
ARC
  5
102
330
16
100
AcDbEntity
  8
0
100
AcDbCircle
 10
15.549093
 20
190.48207
 30
0.0
 40
3.999999999998622
100
AcDbArc
 50
90.0
 51
180.0
1001
McsXdata5
1071
      167
1004
06000000000000008B0000001C000000E404000000000000000000001F050A025C020509020FEE020C4D43535F46494C4C45545F3109020FEE020C4D43535F46494C4C45545F3209020FEE020C4D43535F46494C4C45545F3309020FEE020C4D43535F46494C4C45545F3409020FEE020C4D43535F46494C4C45545F351202
1004
2602050201030201030202020103020326020402010302012202010302010302010201030201221A
  0
ARC
  5
103
330
16
100
AcDbEntity
  8
0
100
AcDbCircle
 10
127.549093
 20
190.48207
 30
0.0
 40
4.000000000003922
100
AcDbArc
 50
0.0
 51
90.0
1001
McsXdata5
1071
      167
1004
06000000000000008B0000001C000000E404000000000000000000001F050A025C020509020FEE020C4D43535F46494C4C45545F3109020FEE020C4D43535F46494C4C45545F3209020FEE020C4D43535F46494C4C45545F3309020FEE020C4D43535F46494C4C45545F3409020FEE020C4D43535F46494C4C45545F351202
1004
2602050201030201030202020103020326020402010302012202010302010302010201030201221A
  0
ARC
  5
104
330
16
100
AcDbEntity
  8
0
100
AcDbCircle
 10
127.549093
 20
123.48207
 30
0.0
 40
4.000000000000405
100
AcDbArc
 50
270.0
 51
0.0
1001
McsXdata5
1071
      167
1004
06000000000000008B0000001C000000E404000000000000000000001F050A025C020509020FEE020C4D43535F46494C4C45545F3109020FEE020C4D43535F46494C4C45545F3209020FEE020C4D43535F46494C4C45545F3309020FEE020C4D43535F46494C4C45545F3409020FEE020C4D43535F46494C4C45545F351202
1004
2602050201030201030202020103020326020402010302012202010302010302010201030201221A
  0
ARC
  5
105
330
16
100
AcDbEntity
  8
0
100
AcDbCircle
 10
15.549093
 20
123.48207
 30
0.0
 40
3.999999999999318
100
AcDbArc
 50
180.0
 51
270.0
1001
McsXdata5
1071
      167
1004
06000000000000008B0000001C000000E404000000000000000000001F050A025C020509020FEE020C4D43535F46494C4C45545F3109020FEE020C4D43535F46494C4C45545F3209020FEE020C4D43535F46494C4C45545F3309020FEE020C4D43535F46494C4C45545F3409020FEE020C4D43535F46494C4C45545F351202
1004
2602050201030201030202020103020326020402010302012202010302010302010201030201221A
  0
ARC
  5
106
330
16
100
AcDbEntity
  8
0
100
AcDbCircle
 10
81.954768
 20
192.48207
 30
0.0
 40
2.000000000002075
100
AcDbArc
 50
0.0
 51
90.0
1001
McsXdata5
1071
      167
1004
06000000000000008B0000001C000000E404000000000000000000001F050A025C020509020FEE020C4D43535F46494C4C45545F3109020FEE020C4D43535F46494C4C45545F3209020FEE020C4D43535F46494C4C45545F3309020FEE020C4D43535F46494C4C45545F3409020FEE020C4D43535F46494C4C45545F351202
1004
2602050201030201030202020103020326020202010302012202010302010302010201030201221A
  0
ARC
  5
107
330
16
100
AcDbEntity
  8
0
100
AcDbCircle
 10
115.954768
 20
192.48207
 30
0.0
 40
1.999999999999446
100
AcDbArc
 50
90.0
 51
180.0
1001
McsXdata5
1071
      167
1004
06000000000000008B0000001C000000E404000000000000000000001F050A025C020509020FEE020C4D43535F46494C4C45545F3109020FEE020C4D43535F46494C4C45545F3209020FEE020C4D43535F46494C4C45545F3309020FEE020C4D43535F46494C4C45545F3409020FEE020C4D43535F46494C4C45545F351202
1004
2602050201030201030202020103020326020202010302012202010302010302010201030201221A
  0
LINE
  5
108
330
16
100
AcDbEntity
  8
0
100
AcDbLine
 10
80.954768
 20
187.48207
 30
0.0
 11
80.954768
 21
190.53207
 31
0.0
  0
LINE
  5
109
330
16
100
AcDbEntity
  8
0
100
AcDbLine
 10
83.954768
 20
184.48207
 30
0.0
 11
83.954768
 21
187.48207
 31
0.0
  0
LINE
  5
10A
330
16
100
AcDbEntity
  8
0
100
AcDbLine
 10
83.954768
 20
190.53207
 30
0.0
 11
83.954768
 21
192.48207
 31
0.0
  0
LINE
  5
10B
330
16
100
AcDbEntity
  8
0
100
AcDbLine
 10
83.954768
 20
190.53207
 30
0.0
 11
80.954768
 21
190.53207
 31
0.0
  0
LINE
  5
10C
330
16
100
AcDbEntity
  8
0
100
AcDbLine
 10
83.954768
 20
187.48207
 30
0.0
 11
80.954768
 21
187.48207
 31
0.0
  0
LINE
  5
10D
330
16
100
AcDbEntity
  8
0
100
AcDbLine
 10
113.954768
 20
184.48207
 30
0.0
 11
113.954768
 21
187.48207
 31
0.0
  0
LINE
  5
10E
330
16
100
AcDbEntity
  8
0
100
AcDbLine
 10
113.954768
 20
190.53207
 30
0.0
 11
113.954768
 21
192.48207
 31
0.0
  0
LINE
  5
10F
330
16
100
AcDbEntity
  8
0
100
AcDbLine
 10
116.954768
 20
190.53207
 30
0.0
 11
113.954768
 21
190.53207
 31
0.0
  0
LINE
  5
110
330
16
100
AcDbEntity
  8
0
100
AcDbLine
 10
116.954768
 20
187.48207
 30
0.0
 11
113.954768
 21
187.48207
 31
0.0
  0
LINE
  5
111
330
16
100
AcDbEntity
  8
0
100
AcDbLine
 10
116.954768
 20
187.48207
 30
0.0
 11
116.954768
 21
190.53207
 31
0.0
  0
CIRCLE
  5
112
330
16
100
AcDbEntity
  8
0
100
AcDbCircle
 10
17.134879
 20
125.067856
 30
0.0
 40
1.1
  0
CIRCLE
  5
113
330
16
100
AcDbEntity
  8
0
100
AcDbCircle
 10
17.134879
 20
188.896283
 30
0.0
 40
1.1
  0
CIRCLE
  5
114
330
16
100
AcDbEntity
  8
0
100
AcDbCircle
 10
125.963306
 20
125.067856
 30
0.0
 40
1.1
  0
CIRCLE
  5
115
330
16
100
AcDbEntity
  8
0
100
AcDbCircle
 10
125.963306
 20
188.896283
 30
0.0
 40
1.1
  0
LINE
  5
116
330
16
100
AcDbEntity
  8
0
100
AcDbLine
 10
21.549093
 20
184.48207
 30
0.0
 11
83.954768
 21
184.48207
 31
0.0
  0
LINE
  5
117
330
16
100
AcDbEntity
  8
0
100
AcDbLine
 10
81.954768
 20
194.48207
 30
0.0
 11
15.549093
 21
194.48207
 31
0.0
  0
LINE
  5
118
330
16
100
AcDbEntity
  8
0
100
AcDbLine
 10
113.954768
 20
184.48207
 30
0.0
 11
121.549093
 21
184.48207
 31
0.0
  0
LINE
  5
119
330
16
100
AcDbEntity
  8
0
100
AcDbLine
 10
115.954768
 20
194.48207
 30
0.0
 11
127.549093
 21
194.48207
 31
0.0
  0
LINE
  5
11A
330
16
100
AcDbEntity
  8
0
100
AcDbLine
 10
203.787876
 20
209.460795
 30
0.0
 11
103.787876
 21
209.460795
 31
0.0
  0
LINE
  5
11B
330
16
100
AcDbEntity
  8
0
100
AcDbLine
 10
103.787876
 20
209.460795
 30
0.0
 11
103.787876
 21
154.460795
 31
0.0
  0
LINE
  5
11C
330
16
100
AcDbEntity
  8
0
100
AcDbLine
 10
203.787876
 20
209.460795
 30
0.0
 11
203.787876
 21
154.460795
 31
0.0
  0
LINE
  5
11D
330
16
100
AcDbEntity
  8
0
100
AcDbLine
 10
144.3822
 20
151.460795
 30
0.0
 11
144.3822
 21
148.410795
 31
0.0
  0
LINE
  5
11E
330
16
100
AcDbEntity
  8
0
100
AcDbLine
 10
141.3822
 20
154.460795
 30
0.0
 11
141.3822
 21
151.460795
 31
0.0
  0
LINE
  5
11F
330
16
100
AcDbEntity
  8
0
100
AcDbLine
 10
141.3822
 20
148.410795
 30
0.0
 11
141.3822
 21
142.960795
 31
0.0
  0
LINE
  5
120
330
16
100
AcDbEntity
  8
0
100
AcDbLine
 10
141.3822
 20
148.410795
 30
0.0
 11
144.3822
 21
148.410795
 31
0.0
  0
LINE
  5
121
330
16
100
AcDbEntity
  8
0
100
AcDbLine
 10
141.3822
 20
151.460795
 30
0.0
 11
144.3822
 21
151.460795
 31
0.0
  0
LINE
  5
122
330
16
100
AcDbEntity
  8
0
100
AcDbLine
 10
111.3822
 20
154.460795
 30
0.0
 11
111.3822
 21
151.460795
 31
0.0
  0
LINE
  5
123
330
16
100
AcDbEntity
  8
0
100
AcDbLine
 10
111.3822
 20
148.410795
 30
0.0
 11
111.3822
 21
142.960795
 31
0.0
  0
LINE
  5
124
330
16
100
AcDbEntity
  8
0
100
AcDbLine
 10
108.3822
 20
148.410795
 30
0.0
 11
111.3822
 21
148.410795
 31
0.0
  0
LINE
  5
125
330
16
100
AcDbEntity
  8
0
100
AcDbLine
 10
108.3822
 20
151.460795
 30
0.0
 11
111.3822
 21
151.460795
 31
0.0
  0
LINE
  5
126
330
16
100
AcDbEntity
  8
0
100
AcDbLine
 10
108.3822
 20
151.460795
 30
0.0
 11
108.3822
 21
148.410795
 31
0.0
  0
ARC
  5
127
330
16
100
AcDbEntity
  8
0
100
AcDbCircle
 10
209.787876
 20
148.460795
 30
0.0
 40
7.499999999998622
100
AcDbArc
 50
270.0
 51
0.0
1001
McsXdata5
1071
      167
1004
06000000000000008B0000001C000000E404000000000000000000001F050A025C020509020FEE020C4D43535F46494C4C45545F3109020FEE020C4D43535F46494C4C45545F3209020FEE020C4D43535F46494C4C45545F3309020FEE020C4D43535F46494C4C45545F3409020FEE020C4D43535F46494C4C45545F351202
1004
2602050201030201030202020103020326020402010302012202010302010302010201030201221A
  0
LINE
  5
128
330
16
100
AcDbEntity
  8
0
100
AcDbLine
 10
217.287876
 20
215.460795
 30
0.0
 11
217.287876
 21
148.460795
 31
0.0
  0
ARC
  5
129
330
16
100
AcDbEntity
  8
0
100
AcDbCircle
 10
209.787876
 20
215.460795
 30
0.0
 40
7.499999999999318
100
AcDbArc
 50
0.0
 51
90.0
1001
McsXdata5
1071
      167
1004
06000000000000008B0000001C000000E404000000000000000000001F050A025C020509020FEE020C4D43535F46494C4C45545F3109020FEE020C4D43535F46494C4C45545F3209020FEE020C4D43535F46494C4C45545F3309020FEE020C4D43535F46494C4C45545F3409020FEE020C4D43535F46494C4C45545F351202
1004
2602050201030201030202020103020326020402010302012202010302010302010201030201221A
  0
LINE
  5
12A
330
16
100
AcDbEntity
  8
0
100
AcDbLine
 10
209.787876
 20
222.960795
 30
0.0
 11
97.787876
 21
222.960795
 31
0.0
  0
ARC
  5
12B
330
16
100
AcDbEntity
  8
0
100
AcDbCircle
 10
97.787876
 20
215.460795
 30
0.0
 40
7.500000000000405
100
AcDbArc
 50
90.0
 51
180.0
1001
McsXdata5
1071
      167
1004
06000000000000008B0000001C000000E404000000000000000000001F050A025C020509020FEE020C4D43535F46494C4C45545F3109020FEE020C4D43535F46494C4C45545F3209020FEE020C4D43535F46494C4C45545F3309020FEE020C4D43535F46494C4C45545F3409020FEE020C4D43535F46494C4C45545F351202
1004
2602050201030201030202020103020326020402010302012202010302010302010201030201221A
  0
LINE
  5
12C
330
16
100
AcDbEntity
  8
0
100
AcDbLine
 10
90.287876
 20
215.460795
 30
0.0
 11
90.287876
 21
148.460795
 31
0.0
  0
ARC
  5
12D
330
16
100
AcDbEntity
  8
0
100
AcDbCircle
 10
97.787876
 20
148.460795
 30
0.0
 40
7.500000000003922
100
AcDbArc
 50
180.0
 51
270.0
1001
McsXdata5
1071
      167
1004
06000000000000008B0000001C000000E404000000000000000000001F050A025C020509020FEE020C4D43535F46494C4C45545F3109020FEE020C4D43535F46494C4C45545F3209020FEE020C4D43535F46494C4C45545F3309020FEE020C4D43535F46494C4C45545F3409020FEE020C4D43535F46494C4C45545F351202
1004
2602050201030201030202020103020326020402010302012202010302010302010201030201221A
  0
ARC
  5
12E
330
16
100
AcDbEntity
  8
0
100
AcDbCircle
 10
143.3822
 20
142.960795
 30
0.0
 40
2.000000000012818
100
AcDbArc
 50
180.0
 51
270.0
1001
McsXdata5
1071
      167
1004
06000000000000008B0000001C000000E404000000000000000000001F050A025C020509020FEE020C4D43535F46494C4C45545F3109020FEE020C4D43535F46494C4C45545F3209020FEE020C4D43535F46494C4C45545F3309020FEE020C4D43535F46494C4C45545F3409020FEE020C4D43535F46494C4C45545F351202
1004
2602050201030201030202020103020326020202010302012202010302010302010201030201221A
  0
ARC
  5
12F
330
16
100
AcDbEntity
  8
0
100
AcDbCircle
 10
109.3822
 20
142.960795
 30
0.0
 40
2.00000000000054
100
AcDbArc
 50
270.0
 51
0.0
1001
McsXdata5
1071
      167
1004
06000000000000008B0000001C000000E404000000000000000000001F050A025C020509020FEE020C4D43535F46494C4C45545F3109020FEE020C4D43535F46494C4C45545F3209020FEE020C4D43535F46494C4C45545F3309020FEE020C4D43535F46494C4C45545F3409020FEE020C4D43535F46494C4C45545F351202
1004
2602050201030201030202020103020326020202010302012202010302010302010201030201221A
  0
CIRCLE
  5
130
330
16
100
AcDbEntity
  8
0
100
AcDbCircle
 10
208.20209
 20
213.875008
 30
0.0
 40
1.1
  0
CIRCLE
  5
131
330
16
100
AcDbEntity
  8
0
100
AcDbCircle
 10
208.20209
 20
150.046581
 30
0.0
 40
1.1
  0
CIRCLE
  5
132
330
16
100
AcDbEntity
  8
0
100
AcDbCircle
 10
99.373662
 20
213.875008
 30
0.0
 40
1.1
  0
CIRCLE
  5
133
330
16
100
AcDbEntity
  8
0
100
AcDbCircle
 10
99.373662
 20
150.046581
 30
0.0
 40
1.1
  0
LINE
  5
134
330
16
100
AcDbEntity
  8
0
100
AcDbLine
 10
111.3822
 20
154.460795
 30
0.0
 11
103.787876
 21
154.460795
 31
0.0
  0
LINE
  5
135
330
16
100
AcDbEntity
  8
0
100
AcDbLine
 10
109.3822
 20
140.960795
 30
0.0
 11
97.787876
 21
140.960795
 31
0.0
  0
LINE
  5
136
330
16
100
AcDbEntity
  8
0
100
AcDbLine
 10
209.787876
 20
140.960795
 30
0.0
 11
143.3822
 21
140.960795
 31
0.0
  0
LINE
  5
137
330
16
100
AcDbEntity
  8
0
100
AcDbLine
 10
141.3822
 20
154.460795
 30
0.0
 11
203.787876
 21
154.460795
 31
0.0
  0
LINE
  5
138
330
16
100
AcDbEntity
  8
0
100
AcDbLine
 10
234.829433
 20
129.48207
 30
0.0
 11
334.829433
 21
129.48207
 31
0.0
  0
LINE
  5
139
330
16
100
AcDbEntity
  8
0
100
AcDbLine
 10
334.829433
 20
129.48207
 30
0.0
 11
334.829433
 21
184.48207
 31
0.0
  0
LINE
  5
13A
330
16
100
AcDbEntity
  8
0
100
AcDbLine
 10
234.829433
 20
129.48207
 30
0.0
 11
234.829433
 21
184.48207
 31
0.0
  0
LINE
  5
13B
330
16
100
AcDbEntity
  8
0
100
AcDbLine
 10
228.829433
 20
119.48207
 30
0.0
 11
340.829433
 21
119.48207
 31
0.0
  0
LINE
  5
13C
330
16
100
AcDbEntity
  8
0
100
AcDbLine
 10
224.829433
 20
123.48207
 30
0.0
 11
224.829433
 21
190.48207
 31
0.0
  0
LINE
  5
13D
330
16
100
AcDbEntity
  8
0
100
AcDbLine
 10
344.829433
 20
123.48207
 30
0.0
 11
344.829433
 21
190.48207
 31
0.0
  0
ARC
  5
13E
330
16
100
AcDbEntity
  8
0
100
AcDbCircle
 10
228.829433
 20
190.48207
 30
0.0
 40
3.999999999998622
100
AcDbArc
 50
90.0
 51
180.0
1001
McsXdata5
1071
      167
1004
06000000000000008B0000001C000000E404000000000000000000001F050A025C020509020FEE020C4D43535F46494C4C45545F3109020FEE020C4D43535F46494C4C45545F3209020FEE020C4D43535F46494C4C45545F3309020FEE020C4D43535F46494C4C45545F3409020FEE020C4D43535F46494C4C45545F351202
1004
2602050201030201030202020103020326020402010302012202010302010302010201030201221A
  0
ARC
  5
13F
330
16
100
AcDbEntity
  8
0
100
AcDbCircle
 10
340.829433
 20
190.48207
 30
0.0
 40
4.000000000003922
100
AcDbArc
 50
0.0
 51
90.0
1001
McsXdata5
1071
      167
1004
06000000000000008B0000001C000000E404000000000000000000001F050A025C020509020FEE020C4D43535F46494C4C45545F3109020FEE020C4D43535F46494C4C45545F3209020FEE020C4D43535F46494C4C45545F3309020FEE020C4D43535F46494C4C45545F3409020FEE020C4D43535F46494C4C45545F351202
1004
2602050201030201030202020103020326020402010302012202010302010302010201030201221A
  0
ARC
  5
140
330
16
100
AcDbEntity
  8
0
100
AcDbCircle
 10
340.829433
 20
123.48207
 30
0.0
 40
4.000000000000405
100
AcDbArc
 50
270.0
 51
0.0
1001
McsXdata5
1071
      167
1004
06000000000000008B0000001C000000E404000000000000000000001F050A025C020509020FEE020C4D43535F46494C4C45545F3109020FEE020C4D43535F46494C4C45545F3209020FEE020C4D43535F46494C4C45545F3309020FEE020C4D43535F46494C4C45545F3409020FEE020C4D43535F46494C4C45545F351202
1004
2602050201030201030202020103020326020402010302012202010302010302010201030201221A
  0
ARC
  5
141
330
16
100
AcDbEntity
  8
0
100
AcDbCircle
 10
228.829433
 20
123.48207
 30
0.0
 40
3.999999999999318
100
AcDbArc
 50
180.0
 51
270.0
1001
McsXdata5
1071
      167
1004
06000000000000008B0000001C000000E404000000000000000000001F050A025C020509020FEE020C4D43535F46494C4C45545F3109020FEE020C4D43535F46494C4C45545F3209020FEE020C4D43535F46494C4C45545F3309020FEE020C4D43535F46494C4C45545F3409020FEE020C4D43535F46494C4C45545F351202
1004
2602050201030201030202020103020326020402010302012202010302010302010201030201221A
  0
ARC
  5
142
330
16
100
AcDbEntity
  8
0
100
AcDbCircle
 10
295.235108
 20
192.48207
 30
0.0
 40
2.000000000002075
100
AcDbArc
 50
0.0
 51
90.0
1001
McsXdata5
1071
      167
1004
06000000000000008B0000001C000000E404000000000000000000001F050A025C020509020FEE020C4D43535F46494C4C45545F3109020FEE020C4D43535F46494C4C45545F3209020FEE020C4D43535F46494C4C45545F3309020FEE020C4D43535F46494C4C45545F3409020FEE020C4D43535F46494C4C45545F351202
1004
2602050201030201030202020103020326020202010302012202010302010302010201030201221A
  0
ARC
  5
143
330
16
100
AcDbEntity
  8
0
100
AcDbCircle
 10
329.235108
 20
192.48207
 30
0.0
 40
1.999999999999446
100
AcDbArc
 50
90.0
 51
180.0
1001
McsXdata5
1071
      167
1004
06000000000000008B0000001C000000E404000000000000000000001F050A025C020509020FEE020C4D43535F46494C4C45545F3109020FEE020C4D43535F46494C4C45545F3209020FEE020C4D43535F46494C4C45545F3309020FEE020C4D43535F46494C4C45545F3409020FEE020C4D43535F46494C4C45545F351202
1004
2602050201030201030202020103020326020202010302012202010302010302010201030201221A
  0
LINE
  5
144
330
16
100
AcDbEntity
  8
0
100
AcDbLine
 10
294.235108
 20
187.48207
 30
0.0
 11
294.235108
 21
190.53207
 31
0.0
  0
LINE
  5
145
330
16
100
AcDbEntity
  8
0
100
AcDbLine
 10
297.235108
 20
184.48207
 30
0.0
 11
297.235108
 21
187.48207
 31
0.0
  0
LINE
  5
146
330
16
100
AcDbEntity
  8
0
100
AcDbLine
 10
297.235108
 20
190.53207
 30
0.0
 11
297.235108
 21
192.48207
 31
0.0
  0
LINE
  5
147
330
16
100
AcDbEntity
  8
0
100
AcDbLine
 10
297.235108
 20
190.53207
 30
0.0
 11
294.235108
 21
190.53207
 31
0.0
  0
LINE
  5
148
330
16
100
AcDbEntity
  8
0
100
AcDbLine
 10
297.235108
 20
187.48207
 30
0.0
 11
294.235108
 21
187.48207
 31
0.0
  0
LINE
  5
149
330
16
100
AcDbEntity
  8
0
100
AcDbLine
 10
327.235108
 20
184.48207
 30
0.0
 11
327.235108
 21
187.48207
 31
0.0
  0
LINE
  5
14A
330
16
100
AcDbEntity
  8
0
100
AcDbLine
 10
327.235108
 20
190.53207
 30
0.0
 11
327.235108
 21
192.48207
 31
0.0
  0
LINE
  5
14B
330
16
100
AcDbEntity
  8
0
100
AcDbLine
 10
330.235108
 20
190.53207
 30
0.0
 11
327.235108
 21
190.53207
 31
0.0
  0
LINE
  5
14C
330
16
100
AcDbEntity
  8
0
100
AcDbLine
 10
330.235108
 20
187.48207
 30
0.0
 11
327.235108
 21
187.48207
 31
0.0
  0
LINE
  5
14D
330
16
100
AcDbEntity
  8
0
100
AcDbLine
 10
330.235108
 20
187.48207
 30
0.0
 11
330.235108
 21
190.53207
 31
0.0
  0
CIRCLE
  5
14E
330
16
100
AcDbEntity
  8
0
100
AcDbCircle
 10
230.415219
 20
125.067856
 30
0.0
 40
1.1
  0
CIRCLE
  5
14F
330
16
100
AcDbEntity
  8
0
100
AcDbCircle
 10
230.415219
 20
188.896283
 30
0.0
 40
1.1
  0
CIRCLE
  5
150
330
16
100
AcDbEntity
  8
0
100
AcDbCircle
 10
339.243646
 20
125.067856
 30
0.0
 40
1.1
  0
CIRCLE
  5
151
330
16
100
AcDbEntity
  8
0
100
AcDbCircle
 10
339.243646
 20
188.896283
 30
0.0
 40
1.1
  0
LINE
  5
152
330
16
100
AcDbEntity
  8
0
100
AcDbLine
 10
234.829433
 20
184.48207
 30
0.0
 11
297.235108
 21
184.48207
 31
0.0
  0
LINE
  5
153
330
16
100
AcDbEntity
  8
0
100
AcDbLine
 10
295.235108
 20
194.48207
 30
0.0
 11
228.829433
 21
194.48207
 31
0.0
  0
LINE
  5
154
330
16
100
AcDbEntity
  8
0
100
AcDbLine
 10
327.235108
 20
184.48207
 30
0.0
 11
334.829433
 21
184.48207
 31
0.0
  0
LINE
  5
155
330
16
100
AcDbEntity
  8
0
100
AcDbLine
 10
329.235108
 20
194.48207
 30
0.0
 11
340.829433
 21
194.48207
 31
0.0
  0
LINE
  5
156
330
16
100
AcDbEntity
  8
0
100
AcDbLine
 10
417.068216
 20
209.460795
 30
0.0
 11
317.068216
 21
209.460795
 31
0.0
  0
LINE
  5
157
330
16
100
AcDbEntity
  8
0
100
AcDbLine
 10
317.068216
 20
209.460795
 30
0.0
 11
317.068216
 21
154.460795
 31
0.0
  0
LINE
  5
158
330
16
100
AcDbEntity
  8
0
100
AcDbLine
 10
417.068216
 20
209.460795
 30
0.0
 11
417.068216
 21
154.460795
 31
0.0
  0
LINE
  5
159
330
16
100
AcDbEntity
  8
0
100
AcDbLine
 10
357.66254
 20
151.460795
 30
0.0
 11
357.66254
 21
148.410795
 31
0.0
  0
LINE
  5
15A
330
16
100
AcDbEntity
  8
0
100
AcDbLine
 10
354.66254
 20
154.460795
 30
0.0
 11
354.66254
 21
151.460795
 31
0.0
  0
LINE
  5
15B
330
16
100
AcDbEntity
  8
0
100
AcDbLine
 10
354.66254
 20
148.410795
 30
0.0
 11
354.66254
 21
142.960795
 31
0.0
  0
LINE
  5
15C
330
16
100
AcDbEntity
  8
0
100
AcDbLine
 10
354.66254
 20
148.410795
 30
0.0
 11
357.66254
 21
148.410795
 31
0.0
  0
LINE
  5
15D
330
16
100
AcDbEntity
  8
0
100
AcDbLine
 10
354.66254
 20
151.460795
 30
0.0
 11
357.66254
 21
151.460795
 31
0.0
  0
LINE
  5
15E
330
16
100
AcDbEntity
  8
0
100
AcDbLine
 10
324.66254
 20
154.460795
 30
0.0
 11
324.66254
 21
151.460795
 31
0.0
  0
LINE
  5
15F
330
16
100
AcDbEntity
  8
0
100
AcDbLine
 10
324.66254
 20
148.410795
 30
0.0
 11
324.66254
 21
142.960795
 31
0.0
  0
LINE
  5
160
330
16
100
AcDbEntity
  8
0
100
AcDbLine
 10
321.66254
 20
148.410795
 30
0.0
 11
324.66254
 21
148.410795
 31
0.0
  0
LINE
  5
161
330
16
100
AcDbEntity
  8
0
100
AcDbLine
 10
321.66254
 20
151.460795
 30
0.0
 11
324.66254
 21
151.460795
 31
0.0
  0
LINE
  5
162
330
16
100
AcDbEntity
  8
0
100
AcDbLine
 10
321.66254
 20
151.460795
 30
0.0
 11
321.66254
 21
148.410795
 31
0.0
  0
ARC
  5
163
330
16
100
AcDbEntity
  8
0
100
AcDbCircle
 10
423.068216
 20
148.460795
 30
0.0
 40
7.499999999998622
100
AcDbArc
 50
270.0
 51
0.0
1001
McsXdata5
1071
      167
1004
06000000000000008B0000001C000000E404000000000000000000001F050A025C020509020FEE020C4D43535F46494C4C45545F3109020FEE020C4D43535F46494C4C45545F3209020FEE020C4D43535F46494C4C45545F3309020FEE020C4D43535F46494C4C45545F3409020FEE020C4D43535F46494C4C45545F351202
1004
2602050201030201030202020103020326020402010302012202010302010302010201030201221A
  0
LINE
  5
164
330
16
100
AcDbEntity
  8
0
100
AcDbLine
 10
430.568216
 20
215.460795
 30
0.0
 11
430.568216
 21
148.460795
 31
0.0
  0
ARC
  5
165
330
16
100
AcDbEntity
  8
0
100
AcDbCircle
 10
423.068216
 20
215.460795
 30
0.0
 40
7.499999999999318
100
AcDbArc
 50
0.0
 51
90.0
1001
McsXdata5
1071
      167
1004
06000000000000008B0000001C000000E404000000000000000000001F050A025C020509020FEE020C4D43535F46494C4C45545F3109020FEE020C4D43535F46494C4C45545F3209020FEE020C4D43535F46494C4C45545F3309020FEE020C4D43535F46494C4C45545F3409020FEE020C4D43535F46494C4C45545F351202
1004
2602050201030201030202020103020326020402010302012202010302010302010201030201221A
  0
LINE
  5
166
330
16
100
AcDbEntity
  8
0
100
AcDbLine
 10
423.068216
 20
222.960795
 30
0.0
 11
311.068216
 21
222.960795
 31
0.0
  0
ARC
  5
167
330
16
100
AcDbEntity
  8
0
100
AcDbCircle
 10
311.068216
 20
215.460795
 30
0.0
 40
7.500000000000405
100
AcDbArc
 50
90.0
 51
180.0
1001
McsXdata5
1071
      167
1004
06000000000000008B0000001C000000E404000000000000000000001F050A025C020509020FEE020C4D43535F46494C4C45545F3109020FEE020C4D43535F46494C4C45545F3209020FEE020C4D43535F46494C4C45545F3309020FEE020C4D43535F46494C4C45545F3409020FEE020C4D43535F46494C4C45545F351202
1004
2602050201030201030202020103020326020402010302012202010302010302010201030201221A
  0
LINE
  5
168
330
16
100
AcDbEntity
  8
0
100
AcDbLine
 10
303.568216
 20
215.460795
 30
0.0
 11
303.568216
 21
148.460795
 31
0.0
  0
ARC
  5
169
330
16
100
AcDbEntity
  8
0
100
AcDbCircle
 10
311.068216
 20
148.460795
 30
0.0
 40
7.500000000003922
100
AcDbArc
 50
180.0
 51
270.0
1001
McsXdata5
1071
      167
1004
06000000000000008B0000001C000000E404000000000000000000001F050A025C020509020FEE020C4D43535F46494C4C45545F3109020FEE020C4D43535F46494C4C45545F3209020FEE020C4D43535F46494C4C45545F3309020FEE020C4D43535F46494C4C45545F3409020FEE020C4D43535F46494C4C45545F351202
1004
2602050201030201030202020103020326020402010302012202010302010302010201030201221A
  0
ARC
  5
16A
330
16
100
AcDbEntity
  8
0
100
AcDbCircle
 10
356.66254
 20
142.960795
 30
0.0
 40
2.000000000012818
100
AcDbArc
 50
180.0
 51
270.0
1001
McsXdata5
1071
      167
1004
06000000000000008B0000001C000000E404000000000000000000001F050A025C020509020FEE020C4D43535F46494C4C45545F3109020FEE020C4D43535F46494C4C45545F3209020FEE020C4D43535F46494C4C45545F3309020FEE020C4D43535F46494C4C45545F3409020FEE020C4D43535F46494C4C45545F351202
1004
2602050201030201030202020103020326020202010302012202010302010302010201030201221A
  0
ARC
  5
16B
330
16
100
AcDbEntity
  8
0
100
AcDbCircle
 10
322.66254
 20
142.960795
 30
0.0
 40
2.00000000000054
100
AcDbArc
 50
270.0
 51
0.0
1001
McsXdata5
1071
      167
1004
06000000000000008B0000001C000000E404000000000000000000001F050A025C020509020FEE020C4D43535F46494C4C45545F3109020FEE020C4D43535F46494C4C45545F3209020FEE020C4D43535F46494C4C45545F3309020FEE020C4D43535F46494C4C45545F3409020FEE020C4D43535F46494C4C45545F351202
1004
2602050201030201030202020103020326020202010302012202010302010302010201030201221A
  0
CIRCLE
  5
16C
330
16
100
AcDbEntity
  8
0
100
AcDbCircle
 10
421.482429
 20
213.875008
 30
0.0
 40
1.1
  0
CIRCLE
  5
16D
330
16
100
AcDbEntity
  8
0
100
AcDbCircle
 10
421.482429
 20
150.046581
 30
0.0
 40
1.1
  0
CIRCLE
  5
16E
330
16
100
AcDbEntity
  8
0
100
AcDbCircle
 10
312.654002
 20
213.875008
 30
0.0
 40
1.1
  0
CIRCLE
  5
16F
330
16
100
AcDbEntity
  8
0
100
AcDbCircle
 10
312.654002
 20
150.046581
 30
0.0
 40
1.1
  0
LINE
  5
170
330
16
100
AcDbEntity
  8
0
100
AcDbLine
 10
324.66254
 20
154.460795
 30
0.0
 11
317.068216
 21
154.460795
 31
0.0
  0
LINE
  5
171
330
16
100
AcDbEntity
  8
0
100
AcDbLine
 10
322.66254
 20
140.960795
 30
0.0
 11
311.068216
 21
140.960795
 31
0.0
  0
LINE
  5
172
330
16
100
AcDbEntity
  8
0
100
AcDbLine
 10
423.068216
 20
140.960795
 30
0.0
 11
356.66254
 21
140.960795
 31
0.0
  0
LINE
  5
173
330
16
100
AcDbEntity
  8
0
100
AcDbLine
 10
354.66254
 20
154.460795
 30
0.0
 11
417.068216
 21
154.460795
 31
0.0
  0
LINE
  5
174
330
16
100
AcDbEntity
  8
0
100
AcDbLine
 10
21.549093
 20
14.195399
 30
0.0
 11
121.549093
 21
14.195399
 31
0.0
  0
LINE
  5
175
330
16
100
AcDbEntity
  8
0
100
AcDbLine
 10
121.549093
 20
14.195399
 30
0.0
 11
121.549093
 21
69.195399
 31
0.0
  0
LINE
  5
176
330
16
100
AcDbEntity
  8
0
100
AcDbLine
 10
21.549093
 20
14.195399
 30
0.0
 11
21.549093
 21
69.195399
 31
0.0
  0
LINE
  5
177
330
16
100
AcDbEntity
  8
0
100
AcDbLine
 10
15.549093
 20
4.195399
 30
0.0
 11
127.549093
 21
4.195399
 31
0.0
  0
LINE
  5
178
330
16
100
AcDbEntity
  8
0
100
AcDbLine
 10
11.549093
 20
8.195399
 30
0.0
 11
11.549093
 21
75.195399
 31
0.0
  0
LINE
  5
179
330
16
100
AcDbEntity
  8
0
100
AcDbLine
 10
131.549093
 20
8.195399
 30
0.0
 11
131.549093
 21
75.195399
 31
0.0
  0
ARC
  5
17A
330
16
100
AcDbEntity
  8
0
100
AcDbCircle
 10
15.549093
 20
75.195399
 30
0.0
 40
3.999999999998622
100
AcDbArc
 50
90.0
 51
180.0
1001
McsXdata5
1071
      167
1004
06000000000000008B0000001C000000E404000000000000000000001F050A025C020509020FEE020C4D43535F46494C4C45545F3109020FEE020C4D43535F46494C4C45545F3209020FEE020C4D43535F46494C4C45545F3309020FEE020C4D43535F46494C4C45545F3409020FEE020C4D43535F46494C4C45545F351202
1004
2602050201030201030202020103020326020402010302012202010302010302010201030201221A
  0
ARC
  5
17B
330
16
100
AcDbEntity
  8
0
100
AcDbCircle
 10
127.549093
 20
75.195399
 30
0.0
 40
4.000000000003922
100
AcDbArc
 50
0.0
 51
90.0
1001
McsXdata5
1071
      167
1004
06000000000000008B0000001C000000E404000000000000000000001F050A025C020509020FEE020C4D43535F46494C4C45545F3109020FEE020C4D43535F46494C4C45545F3209020FEE020C4D43535F46494C4C45545F3309020FEE020C4D43535F46494C4C45545F3409020FEE020C4D43535F46494C4C45545F351202
1004
2602050201030201030202020103020326020402010302012202010302010302010201030201221A
  0
ARC
  5
17C
330
16
100
AcDbEntity
  8
0
100
AcDbCircle
 10
127.549093
 20
8.195399
 30
0.0
 40
4.000000000000405
100
AcDbArc
 50
270.0
 51
0.0
1001
McsXdata5
1071
      167
1004
06000000000000008B0000001C000000E404000000000000000000001F050A025C020509020FEE020C4D43535F46494C4C45545F3109020FEE020C4D43535F46494C4C45545F3209020FEE020C4D43535F46494C4C45545F3309020FEE020C4D43535F46494C4C45545F3409020FEE020C4D43535F46494C4C45545F351202
1004
2602050201030201030202020103020326020402010302012202010302010302010201030201221A
  0
ARC
  5
17D
330
16
100
AcDbEntity
  8
0
100
AcDbCircle
 10
15.549093
 20
8.195399
 30
0.0
 40
3.999999999999318
100
AcDbArc
 50
180.0
 51
270.0
1001
McsXdata5
1071
      167
1004
06000000000000008B0000001C000000E404000000000000000000001F050A025C020509020FEE020C4D43535F46494C4C45545F3109020FEE020C4D43535F46494C4C45545F3209020FEE020C4D43535F46494C4C45545F3309020FEE020C4D43535F46494C4C45545F3409020FEE020C4D43535F46494C4C45545F351202
1004
2602050201030201030202020103020326020402010302012202010302010302010201030201221A
  0
ARC
  5
17E
330
16
100
AcDbEntity
  8
0
100
AcDbCircle
 10
81.954768
 20
77.195399
 30
0.0
 40
2.000000000002075
100
AcDbArc
 50
0.0
 51
90.0
1001
McsXdata5
1071
      167
1004
06000000000000008B0000001C000000E404000000000000000000001F050A025C020509020FEE020C4D43535F46494C4C45545F3109020FEE020C4D43535F46494C4C45545F3209020FEE020C4D43535F46494C4C45545F3309020FEE020C4D43535F46494C4C45545F3409020FEE020C4D43535F46494C4C45545F351202
1004
2602050201030201030202020103020326020202010302012202010302010302010201030201221A
  0
ARC
  5
17F
330
16
100
AcDbEntity
  8
0
100
AcDbCircle
 10
115.954768
 20
77.195399
 30
0.0
 40
1.999999999999446
100
AcDbArc
 50
90.0
 51
180.0
1001
McsXdata5
1071
      167
1004
06000000000000008B0000001C000000E404000000000000000000001F050A025C020509020FEE020C4D43535F46494C4C45545F3109020FEE020C4D43535F46494C4C45545F3209020FEE020C4D43535F46494C4C45545F3309020FEE020C4D43535F46494C4C45545F3409020FEE020C4D43535F46494C4C45545F351202
1004
2602050201030201030202020103020326020202010302012202010302010302010201030201221A
  0
LINE
  5
180
330
16
100
AcDbEntity
  8
0
100
AcDbLine
 10
80.954768
 20
72.195399
 30
0.0
 11
80.954768
 21
75.245399
 31
0.0
  0
LINE
  5
181
330
16
100
AcDbEntity
  8
0
100
AcDbLine
 10
83.954768
 20
69.195399
 30
0.0
 11
83.954768
 21
72.195399
 31
0.0
  0
LINE
  5
182
330
16
100
AcDbEntity
  8
0
100
AcDbLine
 10
83.954768
 20
75.245399
 30
0.0
 11
83.954768
 21
77.195399
 31
0.0
  0
LINE
  5
183
330
16
100
AcDbEntity
  8
0
100
AcDbLine
 10
83.954768
 20
75.245399
 30
0.0
 11
80.954768
 21
75.245399
 31
0.0
  0
LINE
  5
184
330
16
100
AcDbEntity
  8
0
100
AcDbLine
 10
83.954768
 20
72.195399
 30
0.0
 11
80.954768
 21
72.195399
 31
0.0
  0
LINE
  5
185
330
16
100
AcDbEntity
  8
0
100
AcDbLine
 10
113.954768
 20
69.195399
 30
0.0
 11
113.954768
 21
72.195399
 31
0.0
  0
LINE
  5
186
330
16
100
AcDbEntity
  8
0
100
AcDbLine
 10
113.954768
 20
75.245399
 30
0.0
 11
113.954768
 21
77.195399
 31
0.0
  0
LINE
  5
187
330
16
100
AcDbEntity
  8
0
100
AcDbLine
 10
116.954768
 20
75.245399
 30
0.0
 11
113.954768
 21
75.245399
 31
0.0
  0
LINE
  5
188
330
16
100
AcDbEntity
  8
0
100
AcDbLine
 10
116.954768
 20
72.195399
 30
0.0
 11
113.954768
 21
72.195399
 31
0.0
  0
LINE
  5
189
330
16
100
AcDbEntity
  8
0
100
AcDbLine
 10
116.954768
 20
72.195399
 30
0.0
 11
116.954768
 21
75.245399
 31
0.0
  0
CIRCLE
  5
18A
330
16
100
AcDbEntity
  8
0
100
AcDbCircle
 10
17.134879
 20
9.781186
 30
0.0
 40
1.1
  0
CIRCLE
  5
18B
330
16
100
AcDbEntity
  8
0
100
AcDbCircle
 10
17.134879
 20
73.609613
 30
0.0
 40
1.1
  0
CIRCLE
  5
18C
330
16
100
AcDbEntity
  8
0
100
AcDbCircle
 10
125.963306
 20
9.781186
 30
0.0
 40
1.1
  0
CIRCLE
  5
18D
330
16
100
AcDbEntity
  8
0
100
AcDbCircle
 10
125.963306
 20
73.609613
 30
0.0
 40
1.1
  0
LINE
  5
18E
330
16
100
AcDbEntity
  8
0
100
AcDbLine
 10
21.549093
 20
69.195399
 30
0.0
 11
83.954768
 21
69.195399
 31
0.0
  0
LINE
  5
18F
330
16
100
AcDbEntity
  8
0
100
AcDbLine
 10
81.954768
 20
79.195399
 30
0.0
 11
15.549093
 21
79.195399
 31
0.0
  0
LINE
  5
190
330
16
100
AcDbEntity
  8
0
100
AcDbLine
 10
113.954768
 20
69.195399
 30
0.0
 11
121.549093
 21
69.195399
 31
0.0
  0
LINE
  5
191
330
16
100
AcDbEntity
  8
0
100
AcDbLine
 10
115.954768
 20
79.195399
 30
0.0
 11
127.549093
 21
79.195399
 31
0.0
  0
LINE
  5
192
330
16
100
AcDbEntity
  8
0
100
AcDbLine
 10
203.787876
 20
94.174124
 30
0.0
 11
103.787876
 21
94.174124
 31
0.0
  0
LINE
  5
193
330
16
100
AcDbEntity
  8
0
100
AcDbLine
 10
103.787876
 20
94.174124
 30
0.0
 11
103.787876
 21
39.174124
 31
0.0
  0
LINE
  5
194
330
16
100
AcDbEntity
  8
0
100
AcDbLine
 10
203.787876
 20
94.174124
 30
0.0
 11
203.787876
 21
39.174124
 31
0.0
  0
LINE
  5
195
330
16
100
AcDbEntity
  8
0
100
AcDbLine
 10
144.3822
 20
36.174124
 30
0.0
 11
144.3822
 21
33.124124
 31
0.0
  0
LINE
  5
196
330
16
100
AcDbEntity
  8
0
100
AcDbLine
 10
141.3822
 20
39.174124
 30
0.0
 11
141.3822
 21
36.174124
 31
0.0
  0
LINE
  5
197
330
16
100
AcDbEntity
  8
0
100
AcDbLine
 10
141.3822
 20
33.124124
 30
0.0
 11
141.3822
 21
27.674124
 31
0.0
  0
LINE
  5
198
330
16
100
AcDbEntity
  8
0
100
AcDbLine
 10
141.3822
 20
33.124124
 30
0.0
 11
144.3822
 21
33.124124
 31
0.0
  0
LINE
  5
199
330
16
100
AcDbEntity
  8
0
100
AcDbLine
 10
141.3822
 20
36.174124
 30
0.0
 11
144.3822
 21
36.174124
 31
0.0
  0
LINE
  5
19A
330
16
100
AcDbEntity
  8
0
100
AcDbLine
 10
111.3822
 20
39.174124
 30
0.0
 11
111.3822
 21
36.174124
 31
0.0
  0
LINE
  5
19B
330
16
100
AcDbEntity
  8
0
100
AcDbLine
 10
111.3822
 20
33.124124
 30
0.0
 11
111.3822
 21
27.674124
 31
0.0
  0
LINE
  5
19C
330
16
100
AcDbEntity
  8
0
100
AcDbLine
 10
108.3822
 20
33.124124
 30
0.0
 11
111.3822
 21
33.124124
 31
0.0
  0
LINE
  5
19D
330
16
100
AcDbEntity
  8
0
100
AcDbLine
 10
108.3822
 20
36.174124
 30
0.0
 11
111.3822
 21
36.174124
 31
0.0
  0
LINE
  5
19E
330
16
100
AcDbEntity
  8
0
100
AcDbLine
 10
108.3822
 20
36.174124
 30
0.0
 11
108.3822
 21
33.124124
 31
0.0
  0
ARC
  5
19F
330
16
100
AcDbEntity
  8
0
100
AcDbCircle
 10
209.787876
 20
33.174124
 30
0.0
 40
7.499999999998622
100
AcDbArc
 50
270.0
 51
0.0
1001
McsXdata5
1071
      167
1004
06000000000000008B0000001C000000E404000000000000000000001F050A025C020509020FEE020C4D43535F46494C4C45545F3109020FEE020C4D43535F46494C4C45545F3209020FEE020C4D43535F46494C4C45545F3309020FEE020C4D43535F46494C4C45545F3409020FEE020C4D43535F46494C4C45545F351202
1004
2602050201030201030202020103020326020402010302012202010302010302010201030201221A
  0
LINE
  5
1A0
330
16
100
AcDbEntity
  8
0
100
AcDbLine
 10
217.287876
 20
100.174124
 30
0.0
 11
217.287876
 21
33.174124
 31
0.0
  0
ARC
  5
1A1
330
16
100
AcDbEntity
  8
0
100
AcDbCircle
 10
209.787876
 20
100.174124
 30
0.0
 40
7.499999999999318
100
AcDbArc
 50
0.0
 51
90.0
1001
McsXdata5
1071
      167
1004
06000000000000008B0000001C000000E404000000000000000000001F050A025C020509020FEE020C4D43535F46494C4C45545F3109020FEE020C4D43535F46494C4C45545F3209020FEE020C4D43535F46494C4C45545F3309020FEE020C4D43535F46494C4C45545F3409020FEE020C4D43535F46494C4C45545F351202
1004
2602050201030201030202020103020326020402010302012202010302010302010201030201221A
  0
LINE
  5
1A2
330
16
100
AcDbEntity
  8
0
100
AcDbLine
 10
209.787876
 20
107.674124
 30
0.0
 11
97.787876
 21
107.674124
 31
0.0
  0
ARC
  5
1A3
330
16
100
AcDbEntity
  8
0
100
AcDbCircle
 10
97.787876
 20
100.174124
 30
0.0
 40
7.500000000000405
100
AcDbArc
 50
90.0
 51
180.0
1001
McsXdata5
1071
      167
1004
06000000000000008B0000001C000000E404000000000000000000001F050A025C020509020FEE020C4D43535F46494C4C45545F3109020FEE020C4D43535F46494C4C45545F3209020FEE020C4D43535F46494C4C45545F3309020FEE020C4D43535F46494C4C45545F3409020FEE020C4D43535F46494C4C45545F351202
1004
2602050201030201030202020103020326020402010302012202010302010302010201030201221A
  0
LINE
  5
1A4
330
16
100
AcDbEntity
  8
0
100
AcDbLine
 10
90.287876
 20
100.174124
 30
0.0
 11
90.287876
 21
33.174124
 31
0.0
  0
ARC
  5
1A5
330
16
100
AcDbEntity
  8
0
100
AcDbCircle
 10
97.787876
 20
33.174124
 30
0.0
 40
7.500000000003922
100
AcDbArc
 50
180.0
 51
270.0
1001
McsXdata5
1071
      167
1004
06000000000000008B0000001C000000E404000000000000000000001F050A025C020509020FEE020C4D43535F46494C4C45545F3109020FEE020C4D43535F46494C4C45545F3209020FEE020C4D43535F46494C4C45545F3309020FEE020C4D43535F46494C4C45545F3409020FEE020C4D43535F46494C4C45545F351202
1004
2602050201030201030202020103020326020402010302012202010302010302010201030201221A
  0
ARC
  5
1A6
330
16
100
AcDbEntity
  8
0
100
AcDbCircle
 10
143.3822
 20
27.674124
 30
0.0
 40
2.000000000012818
100
AcDbArc
 50
180.0
 51
270.0
1001
McsXdata5
1071
      167
1004
06000000000000008B0000001C000000E404000000000000000000001F050A025C020509020FEE020C4D43535F46494C4C45545F3109020FEE020C4D43535F46494C4C45545F3209020FEE020C4D43535F46494C4C45545F3309020FEE020C4D43535F46494C4C45545F3409020FEE020C4D43535F46494C4C45545F351202
1004
2602050201030201030202020103020326020202010302012202010302010302010201030201221A
  0
ARC
  5
1A7
330
16
100
AcDbEntity
  8
0
100
AcDbCircle
 10
109.3822
 20
27.674124
 30
0.0
 40
2.00000000000054
100
AcDbArc
 50
270.0
 51
0.0
1001
McsXdata5
1071
      167
1004
06000000000000008B0000001C000000E404000000000000000000001F050A025C020509020FEE020C4D43535F46494C4C45545F3109020FEE020C4D43535F46494C4C45545F3209020FEE020C4D43535F46494C4C45545F3309020FEE020C4D43535F46494C4C45545F3409020FEE020C4D43535F46494C4C45545F351202
1004
2602050201030201030202020103020326020202010302012202010302010302010201030201221A
  0
CIRCLE
  5
1A8
330
16
100
AcDbEntity
  8
0
100
AcDbCircle
 10
208.20209
 20
98.588338
 30
0.0
 40
1.1
  0
CIRCLE
  5
1A9
330
16
100
AcDbEntity
  8
0
100
AcDbCircle
 10
208.20209
 20
34.759911
 30
0.0
 40
1.1
  0
CIRCLE
  5
1AA
330
16
100
AcDbEntity
  8
0
100
AcDbCircle
 10
99.373662
 20
98.588338
 30
0.0
 40
1.1
  0
CIRCLE
  5
1AB
330
16
100
AcDbEntity
  8
0
100
AcDbCircle
 10
99.373662
 20
34.759911
 30
0.0
 40
1.1
  0
LINE
  5
1AC
330
16
100
AcDbEntity
  8
0
100
AcDbLine
 10
111.3822
 20
39.174124
 30
0.0
 11
103.787876
 21
39.174124
 31
0.0
  0
LINE
  5
1AD
330
16
100
AcDbEntity
  8
0
100
AcDbLine
 10
109.3822
 20
25.674124
 30
0.0
 11
97.787876
 21
25.674124
 31
0.0
  0
LINE
  5
1AE
330
16
100
AcDbEntity
  8
0
100
AcDbLine
 10
209.787876
 20
25.674124
 30
0.0
 11
143.3822
 21
25.674124
 31
0.0
  0
LINE
  5
1AF
330
16
100
AcDbEntity
  8
0
100
AcDbLine
 10
141.3822
 20
39.174124
 30
0.0
 11
203.787876
 21
39.174124
 31
0.0
  0
LINE
  5
1B0
330
16
100
AcDbEntity
  8
0
100
AcDbLine
 10
234.829433
 20
14.195399
 30
0.0
 11
334.829433
 21
14.195399
 31
0.0
  0
LINE
  5
1B1
330
16
100
AcDbEntity
  8
0
100
AcDbLine
 10
334.829433
 20
14.195399
 30
0.0
 11
334.829433
 21
69.195399
 31
0.0
  0
LINE
  5
1B2
330
16
100
AcDbEntity
  8
0
100
AcDbLine
 10
234.829433
 20
14.195399
 30
0.0
 11
234.829433
 21
69.195399
 31
0.0
  0
LINE
  5
1B3
330
16
100
AcDbEntity
  8
0
100
AcDbLine
 10
228.829433
 20
4.195399
 30
0.0
 11
340.829433
 21
4.195399
 31
0.0
  0
LINE
  5
1B4
330
16
100
AcDbEntity
  8
0
100
AcDbLine
 10
224.829433
 20
8.195399
 30
0.0
 11
224.829433
 21
75.195399
 31
0.0
  0
LINE
  5
1B5
330
16
100
AcDbEntity
  8
0
100
AcDbLine
 10
344.829433
 20
8.195399
 30
0.0
 11
344.829433
 21
75.195399
 31
0.0
  0
ARC
  5
1B6
330
16
100
AcDbEntity
  8
0
100
AcDbCircle
 10
228.829433
 20
75.195399
 30
0.0
 40
3.999999999998622
100
AcDbArc
 50
90.0
 51
180.0
1001
McsXdata5
1071
      167
1004
06000000000000008B0000001C000000E404000000000000000000001F050A025C020509020FEE020C4D43535F46494C4C45545F3109020FEE020C4D43535F46494C4C45545F3209020FEE020C4D43535F46494C4C45545F3309020FEE020C4D43535F46494C4C45545F3409020FEE020C4D43535F46494C4C45545F351202
1004
2602050201030201030202020103020326020402010302012202010302010302010201030201221A
  0
ARC
  5
1B7
330
16
100
AcDbEntity
  8
0
100
AcDbCircle
 10
340.829433
 20
75.195399
 30
0.0
 40
4.000000000003922
100
AcDbArc
 50
0.0
 51
90.0
1001
McsXdata5
1071
      167
1004
06000000000000008B0000001C000000E404000000000000000000001F050A025C020509020FEE020C4D43535F46494C4C45545F3109020FEE020C4D43535F46494C4C45545F3209020FEE020C4D43535F46494C4C45545F3309020FEE020C4D43535F46494C4C45545F3409020FEE020C4D43535F46494C4C45545F351202
1004
2602050201030201030202020103020326020402010302012202010302010302010201030201221A
  0
ARC
  5
1B8
330
16
100
AcDbEntity
  8
0
100
AcDbCircle
 10
340.829433
 20
8.195399
 30
0.0
 40
4.000000000000405
100
AcDbArc
 50
270.0
 51
0.0
1001
McsXdata5
1071
      167
1004
06000000000000008B0000001C000000E404000000000000000000001F050A025C020509020FEE020C4D43535F46494C4C45545F3109020FEE020C4D43535F46494C4C45545F3209020FEE020C4D43535F46494C4C45545F3309020FEE020C4D43535F46494C4C45545F3409020FEE020C4D43535F46494C4C45545F351202
1004
2602050201030201030202020103020326020402010302012202010302010302010201030201221A
  0
ARC
  5
1B9
330
16
100
AcDbEntity
  8
0
100
AcDbCircle
 10
228.829433
 20
8.195399
 30
0.0
 40
3.999999999999318
100
AcDbArc
 50
180.0
 51
270.0
1001
McsXdata5
1071
      167
1004
06000000000000008B0000001C000000E404000000000000000000001F050A025C020509020FEE020C4D43535F46494C4C45545F3109020FEE020C4D43535F46494C4C45545F3209020FEE020C4D43535F46494C4C45545F3309020FEE020C4D43535F46494C4C45545F3409020FEE020C4D43535F46494C4C45545F351202
1004
2602050201030201030202020103020326020402010302012202010302010302010201030201221A
  0
ARC
  5
1BA
330
16
100
AcDbEntity
  8
0
100
AcDbCircle
 10
295.235108
 20
77.195399
 30
0.0
 40
2.000000000002075
100
AcDbArc
 50
0.0
 51
90.0
1001
McsXdata5
1071
      167
1004
06000000000000008B0000001C000000E404000000000000000000001F050A025C020509020FEE020C4D43535F46494C4C45545F3109020FEE020C4D43535F46494C4C45545F3209020FEE020C4D43535F46494C4C45545F3309020FEE020C4D43535F46494C4C45545F3409020FEE020C4D43535F46494C4C45545F351202
1004
2602050201030201030202020103020326020202010302012202010302010302010201030201221A
  0
ARC
  5
1BB
330
16
100
AcDbEntity
  8
0
100
AcDbCircle
 10
329.235108
 20
77.195399
 30
0.0
 40
1.999999999999446
100
AcDbArc
 50
90.0
 51
180.0
1001
McsXdata5
1071
      167
1004
06000000000000008B0000001C000000E404000000000000000000001F050A025C020509020FEE020C4D43535F46494C4C45545F3109020FEE020C4D43535F46494C4C45545F3209020FEE020C4D43535F46494C4C45545F3309020FEE020C4D43535F46494C4C45545F3409020FEE020C4D43535F46494C4C45545F351202
1004
2602050201030201030202020103020326020202010302012202010302010302010201030201221A
  0
LINE
  5
1BC
330
16
100
AcDbEntity
  8
0
100
AcDbLine
 10
294.235108
 20
72.195399
 30
0.0
 11
294.235108
 21
75.245399
 31
0.0
  0
LINE
  5
1BD
330
16
100
AcDbEntity
  8
0
100
AcDbLine
 10
297.235108
 20
69.195399
 30
0.0
 11
297.235108
 21
72.195399
 31
0.0
  0
LINE
  5
1BE
330
16
100
AcDbEntity
  8
0
100
AcDbLine
 10
297.235108
 20
75.245399
 30
0.0
 11
297.235108
 21
77.195399
 31
0.0
  0
LINE
  5
1BF
330
16
100
AcDbEntity
  8
0
100
AcDbLine
 10
297.235108
 20
75.245399
 30
0.0
 11
294.235108
 21
75.245399
 31
0.0
  0
LINE
  5
1C0
330
16
100
AcDbEntity
  8
0
100
AcDbLine
 10
297.235108
 20
72.195399
 30
0.0
 11
294.235108
 21
72.195399
 31
0.0
  0
LINE
  5
1C1
330
16
100
AcDbEntity
  8
0
100
AcDbLine
 10
327.235108
 20
69.195399
 30
0.0
 11
327.235108
 21
72.195399
 31
0.0
  0
LINE
  5
1C2
330
16
100
AcDbEntity
  8
0
100
AcDbLine
 10
327.235108
 20
75.245399
 30
0.0
 11
327.235108
 21
77.195399
 31
0.0
  0
LINE
  5
1C3
330
16
100
AcDbEntity
  8
0
100
AcDbLine
 10
330.235108
 20
75.245399
 30
0.0
 11
327.235108
 21
75.245399
 31
0.0
  0
LINE
  5
1C4
330
16
100
AcDbEntity
  8
0
100
AcDbLine
 10
330.235108
 20
72.195399
 30
0.0
 11
327.235108
 21
72.195399
 31
0.0
  0
LINE
  5
1C5
330
16
100
AcDbEntity
  8
0
100
AcDbLine
 10
330.235108
 20
72.195399
 30
0.0
 11
330.235108
 21
75.245399
 31
0.0
  0
CIRCLE
  5
1C6
330
16
100
AcDbEntity
  8
0
100
AcDbCircle
 10
230.415219
 20
9.781186
 30
0.0
 40
1.1
  0
CIRCLE
  5
1C7
330
16
100
AcDbEntity
  8
0
100
AcDbCircle
 10
230.415219
 20
73.609613
 30
0.0
 40
1.1
  0
CIRCLE
  5
1C8
330
16
100
AcDbEntity
  8
0
100
AcDbCircle
 10
339.243646
 20
9.781186
 30
0.0
 40
1.1
  0
CIRCLE
  5
1C9
330
16
100
AcDbEntity
  8
0
100
AcDbCircle
 10
339.243646
 20
73.609613
 30
0.0
 40
1.1
  0
LINE
  5
1CA
330
16
100
AcDbEntity
  8
0
100
AcDbLine
 10
234.829433
 20
69.195399
 30
0.0
 11
297.235108
 21
69.195399
 31
0.0
  0
LINE
  5
1CB
330
16
100
AcDbEntity
  8
0
100
AcDbLine
 10
295.235108
 20
79.195399
 30
0.0
 11
228.829433
 21
79.195399
 31
0.0
  0
LINE
  5
1CC
330
16
100
AcDbEntity
  8
0
100
AcDbLine
 10
327.235108
 20
69.195399
 30
0.0
 11
334.829433
 21
69.195399
 31
0.0
  0
LINE
  5
1CD
330
16
100
AcDbEntity
  8
0
100
AcDbLine
 10
329.235108
 20
79.195399
 30
0.0
 11
340.829433
 21
79.195399
 31
0.0
  0
LINE
  5
1CE
330
16
100
AcDbEntity
  8
0
100
AcDbLine
 10
417.068216
 20
94.174124
 30
0.0
 11
317.068216
 21
94.174124
 31
0.0
  0
LINE
  5
1CF
330
16
100
AcDbEntity
  8
0
100
AcDbLine
 10
317.068216
 20
94.174124
 30
0.0
 11
317.068216
 21
39.174124
 31
0.0
  0
LINE
  5
1D0
330
16
100
AcDbEntity
  8
0
100
AcDbLine
 10
417.068216
 20
94.174124
 30
0.0
 11
417.068216
 21
39.174124
 31
0.0
  0
LINE
  5
1D1
330
16
100
AcDbEntity
  8
0
100
AcDbLine
 10
357.66254
 20
36.174124
 30
0.0
 11
357.66254
 21
33.124124
 31
0.0
  0
LINE
  5
1D2
330
16
100
AcDbEntity
  8
0
100
AcDbLine
 10
354.66254
 20
39.174124
 30
0.0
 11
354.66254
 21
36.174124
 31
0.0
  0
LINE
  5
1D3
330
16
100
AcDbEntity
  8
0
100
AcDbLine
 10
354.66254
 20
33.124124
 30
0.0
 11
354.66254
 21
27.674124
 31
0.0
  0
LINE
  5
1D4
330
16
100
AcDbEntity
  8
0
100
AcDbLine
 10
354.66254
 20
33.124124
 30
0.0
 11
357.66254
 21
33.124124
 31
0.0
  0
LINE
  5
1D5
330
16
100
AcDbEntity
  8
0
100
AcDbLine
 10
354.66254
 20
36.174124
 30
0.0
 11
357.66254
 21
36.174124
 31
0.0
  0
LINE
  5
1D6
330
16
100
AcDbEntity
  8
0
100
AcDbLine
 10
324.66254
 20
39.174124
 30
0.0
 11
324.66254
 21
36.174124
 31
0.0
  0
LINE
  5
1D7
330
16
100
AcDbEntity
  8
0
100
AcDbLine
 10
324.66254
 20
33.124124
 30
0.0
 11
324.66254
 21
27.674124
 31
0.0
  0
LINE
  5
1D8
330
16
100
AcDbEntity
  8
0
100
AcDbLine
 10
321.66254
 20
33.124124
 30
0.0
 11
324.66254
 21
33.124124
 31
0.0
  0
LINE
  5
1D9
330
16
100
AcDbEntity
  8
0
100
AcDbLine
 10
321.66254
 20
36.174124
 30
0.0
 11
324.66254
 21
36.174124
 31
0.0
  0
LINE
  5
1DA
330
16
100
AcDbEntity
  8
0
100
AcDbLine
 10
321.66254
 20
36.174124
 30
0.0
 11
321.66254
 21
33.124124
 31
0.0
  0
ARC
  5
1DB
330
16
100
AcDbEntity
  8
0
100
AcDbCircle
 10
423.068216
 20
33.174124
 30
0.0
 40
7.499999999998622
100
AcDbArc
 50
270.0
 51
0.0
1001
McsXdata5
1071
      167
1004
06000000000000008B0000001C000000E404000000000000000000001F050A025C020509020FEE020C4D43535F46494C4C45545F3109020FEE020C4D43535F46494C4C45545F3209020FEE020C4D43535F46494C4C45545F3309020FEE020C4D43535F46494C4C45545F3409020FEE020C4D43535F46494C4C45545F351202
1004
2602050201030201030202020103020326020402010302012202010302010302010201030201221A
  0
LINE
  5
1DC
330
16
100
AcDbEntity
  8
0
100
AcDbLine
 10
430.568216
 20
100.174124
 30
0.0
 11
430.568216
 21
33.174124
 31
0.0
  0
ARC
  5
1DD
330
16
100
AcDbEntity
  8
0
100
AcDbCircle
 10
423.068216
 20
100.174124
 30
0.0
 40
7.499999999999318
100
AcDbArc
 50
0.0
 51
90.0
1001
McsXdata5
1071
      167
1004
06000000000000008B0000001C000000E404000000000000000000001F050A025C020509020FEE020C4D43535F46494C4C45545F3109020FEE020C4D43535F46494C4C45545F3209020FEE020C4D43535F46494C4C45545F3309020FEE020C4D43535F46494C4C45545F3409020FEE020C4D43535F46494C4C45545F351202
1004
2602050201030201030202020103020326020402010302012202010302010302010201030201221A
  0
LINE
  5
1DE
330
16
100
AcDbEntity
  8
0
100
AcDbLine
 10
423.068216
 20
107.674124
 30
0.0
 11
311.068216
 21
107.674124
 31
0.0
  0
ARC
  5
1DF
330
16
100
AcDbEntity
  8
0
100
AcDbCircle
 10
311.068216
 20
100.174124
 30
0.0
 40
7.500000000000405
100
AcDbArc
 50
90.0
 51
180.0
1001
McsXdata5
1071
      167
1004
06000000000000008B0000001C000000E404000000000000000000001F050A025C020509020FEE020C4D43535F46494C4C45545F3109020FEE020C4D43535F46494C4C45545F3209020FEE020C4D43535F46494C4C45545F3309020FEE020C4D43535F46494C4C45545F3409020FEE020C4D43535F46494C4C45545F351202
1004
2602050201030201030202020103020326020402010302012202010302010302010201030201221A
  0
LINE
  5
1E0
330
16
100
AcDbEntity
  8
0
100
AcDbLine
 10
303.568216
 20
100.174124
 30
0.0
 11
303.568216
 21
33.174124
 31
0.0
  0
ARC
  5
1E1
330
16
100
AcDbEntity
  8
0
100
AcDbCircle
 10
311.068216
 20
33.174124
 30
0.0
 40
7.500000000003922
100
AcDbArc
 50
180.0
 51
270.0
1001
McsXdata5
1071
      167
1004
06000000000000008B0000001C000000E404000000000000000000001F050A025C020509020FEE020C4D43535F46494C4C45545F3109020FEE020C4D43535F46494C4C45545F3209020FEE020C4D43535F46494C4C45545F3309020FEE020C4D43535F46494C4C45545F3409020FEE020C4D43535F46494C4C45545F351202
1004
2602050201030201030202020103020326020402010302012202010302010302010201030201221A
  0
ARC
  5
1E2
330
16
100
AcDbEntity
  8
0
100
AcDbCircle
 10
356.66254
 20
27.674124
 30
0.0
 40
2.000000000012818
100
AcDbArc
 50
180.0
 51
270.0
1001
McsXdata5
1071
      167
1004
06000000000000008B0000001C000000E404000000000000000000001F050A025C020509020FEE020C4D43535F46494C4C45545F3109020FEE020C4D43535F46494C4C45545F3209020FEE020C4D43535F46494C4C45545F3309020FEE020C4D43535F46494C4C45545F3409020FEE020C4D43535F46494C4C45545F351202
1004
2602050201030201030202020103020326020202010302012202010302010302010201030201221A
  0
ARC
  5
1E3
330
16
100
AcDbEntity
  8
0
100
AcDbCircle
 10
322.66254
 20
27.674124
 30
0.0
 40
2.00000000000054
100
AcDbArc
 50
270.0
 51
0.0
1001
McsXdata5
1071
      167
1004
06000000000000008B0000001C000000E404000000000000000000001F050A025C020509020FEE020C4D43535F46494C4C45545F3109020FEE020C4D43535F46494C4C45545F3209020FEE020C4D43535F46494C4C45545F3309020FEE020C4D43535F46494C4C45545F3409020FEE020C4D43535F46494C4C45545F351202
1004
2602050201030201030202020103020326020202010302012202010302010302010201030201221A
  0
CIRCLE
  5
1E4
330
16
100
AcDbEntity
  8
0
100
AcDbCircle
 10
421.482429
 20
98.588338
 30
0.0
 40
1.1
  0
CIRCLE
  5
1E5
330
16
100
AcDbEntity
  8
0
100
AcDbCircle
 10
421.482429
 20
34.759911
 30
0.0
 40
1.1
  0
CIRCLE
  5
1E6
330
16
100
AcDbEntity
  8
0
100
AcDbCircle
 10
312.654002
 20
98.588338
 30
0.0
 40
1.1
  0
CIRCLE
  5
1E7
330
16
100
AcDbEntity
  8
0
100
AcDbCircle
 10
312.654002
 20
34.759911
 30
0.0
 40
1.1
  0
LINE
  5
1E8
330
16
100
AcDbEntity
  8
0
100
AcDbLine
 10
324.66254
 20
39.174124
 30
0.0
 11
317.068216
 21
39.174124
 31
0.0
  0
LINE
  5
1E9
330
16
100
AcDbEntity
  8
0
100
AcDbLine
 10
322.66254
 20
25.674124
 30
0.0
 11
311.068216
 21
25.674124
 31
0.0
  0
LINE
  5
1EA
330
16
100
AcDbEntity
  8
0
100
AcDbLine
 10
423.068216
 20
25.674124
 30
0.0
 11
356.66254
 21
25.674124
 31
0.0
  0
LINE
  5
1EB
330
16
100
AcDbEntity
  8
0
100
AcDbLine
 10
354.66254
 20
39.174124
 30
0.0
 11
417.068216
 21
39.174124
 31
0.0
  0
LINE
  5
1EC
330
16
100
AcDbEntity
  8
0
100
AcDbLine
 10
28.463454
 20
144.479086
 30
0.0
 11
64.363454
 21
144.479086
 31
0.0
  0
LINE
  5
1ED
330
16
100
AcDbEntity
  8
0
100
AcDbLine
 10
28.463454
 20
144.479086
 30
0.0
 11
28.463454
 21
171.379086
 31
0.0
  0
LINE
  5
1EE
330
16
100
AcDbEntity
  8
0
100
AcDbLine
 10
64.363454
 20
144.479086
 30
0.0
 11
64.363454
 21
171.379086
 31
0.0
  0
LINE
  5
1EF
330
16
100
AcDbEntity
  8
0
100
AcDbLine
 10
28.463454
 20
171.379086
 30
0.0
 11
64.363454
 21
171.379086
 31
0.0
  0
LINE
  5
1F0
330
16
100
AcDbEntity
  8
0
100
AcDbLine
 10
28.463454
 20
29.192416
 30
0.0
 11
64.363454
 21
29.192416
 31
0.0
  0
LINE
  5
1F1
330
16
100
AcDbEntity
  8
0
100
AcDbLine
 10
28.463454
 20
29.192416
 30
0.0
 11
28.463454
 21
56.092416
 31
0.0
  0
LINE
  5
1F2
330
16
100
AcDbEntity
  8
0
100
AcDbLine
 10
64.363454
 20
29.192416
 30
0.0
 11
64.363454
 21
56.092416
 31
0.0
  0
LINE
  5
1F3
330
16
100
AcDbEntity
  8
0
100
AcDbLine
 10
28.463454
 20
56.092416
 30
0.0
 11
64.363454
 21
56.092416
 31
0.0
  0
LINE
  5
1F4
330
16
100
AcDbEntity
  8
0
100
AcDbLine
 10
241.743794
 20
259.587264
 30
0.0
 11
277.643794
 21
259.587264
 31
0.0
  0
LINE
  5
1F5
330
16
100
AcDbEntity
  8
0
100
AcDbLine
 10
241.743794
 20
259.587264
 30
0.0
 11
241.743794
 21
286.487264
 31
0.0
  0
LINE
  5
1F6
330
16
100
AcDbEntity
  8
0
100
AcDbLine
 10
277.643794
 20
259.587264
 30
0.0
 11
277.643794
 21
286.487264
 31
0.0
  0
LINE
  5
1F7
330
16
100
AcDbEntity
  8
0
100
AcDbLine
 10
241.743794
 20
286.487264
 30
0.0
 11
277.643794
 21
286.487264
 31
0.0
  0
LINE
  5
1F8
330
16
100
AcDbEntity
  8
0
100
AcDbLine
 10
241.743794
 20
144.479086
 30
0.0
 11
277.643794
 21
144.479086
 31
0.0
  0
LINE
  5
1F9
330
16
100
AcDbEntity
  8
0
100
AcDbLine
 10
241.743794
 20
144.479086
 30
0.0
 11
241.743794
 21
171.379086
 31
0.0
  0
LINE
  5
1FA
330
16
100
AcDbEntity
  8
0
100
AcDbLine
 10
277.643794
 20
144.479086
 30
0.0
 11
277.643794
 21
171.379086
 31
0.0
  0
LINE
  5
1FB
330
16
100
AcDbEntity
  8
0
100
AcDbLine
 10
241.743794
 20
171.379086
 30
0.0
 11
277.643794
 21
171.379086
 31
0.0
  0
LINE
  5
1FC
330
16
100
AcDbEntity
  8
0
100
AcDbLine
 10
241.743794
 20
29.192416
 30
0.0
 11
277.643794
 21
29.192416
 31
0.0
  0
LINE
  5
1FD
330
16
100
AcDbEntity
  8
0
100
AcDbLine
 10
241.743794
 20
29.192416
 30
0.0
 11
241.743794
 21
56.092416
 31
0.0
  0
LINE
  5
1FE
330
16
100
AcDbEntity
  8
0
100
AcDbLine
 10
277.643794
 20
29.192416
 30
0.0
 11
277.643794
 21
56.092416
 31
0.0
  0
LINE
  5
1FF
330
16
100
AcDbEntity
  8
0
100
AcDbLine
 10
241.743794
 20
56.092416
 30
0.0
 11
277.643794
 21
56.092416
 31
0.0
  0
VIEWPORT
  5
205
330
20
100
AcDbEntity
 67
     1
  8
0
 48
100.0
100
AcDbViewport
 10
0.0
 20
0.0
 30
0.0
 40
466.965848
 41
238.196088
 68
     1
 69
     1
 12
128.5
 22
97.5
 13
0.0
 23
0.0
 14
10.0
 24
10.0
 15
10.0
 25
10.0
 16
0.0
 26
0.0
 36
1.0
 17
0.0
 27
0.0
 37
0.0
 42
50.0
 43
0.0
 44
0.0
 45
238.196088
 50
0.0
 51
0.0
 72
   100
 90
   557168
  1

281
     0
 71
     1
 74
     0
110
0.0
120
0.0
130
0.0
111
1.0
121
0.0
131
0.0
112
0.0
122
1.0
132
0.0
 79
     0
146
0.0
170
     0
 61
     5
348
2C
292
     1
282
     1
141
0.0
142
0.0
 63
   256
  0
ENDSEC
  0
SECTION
  2
OBJECTS
  0
DICTIONARY
  5
5
330
0
100
AcDbDictionary
281
     1
  3
ACAD_COLOR
350
29
  3
ACAD_DETAILVIEWSTYLE
350
229
  3
ACAD_GROUP
350
27
  3
ACAD_IMAGE_DICT
350
221
  3
ACAD_LAYOUT
350
1C
  3
ACAD_MATERIAL
350
7
  3
ACAD_MLEADERSTYLE
350
227
  3
ACAD_MLINESTYLE
350
14
  3
ACAD_PLOTSETTINGS
350
28
  3
ACAD_PLOTSTYLENAME
350
4
  3
ACAD_SCALELIST
350
2F
  3
ACAD_SECTIONVIEWSTYLE
350
22A
  3
ACAD_TABLESTYLE
350
226
  3
ACAD_VISUALSTYLE
350
2A
  3
AcDbVariableDictionary
350
224
  3
MCS_STREAM_DICT
350
21F
  0
SUN
  5
2D
330
2B
100
AcDbSun
 90
        1
290
     0
 63
     7
421
 16777215
 40
1.0
291
     1
 91
  2455826
 92
 54000000
292
     0
 70
     2
 71
   256
280
     1
  0
DICTIONARY
  5
17
330
16
100
AcDbDictionary
280
     1
281
     1
  3
ACAD_SORTENTS
360
18
  0
DICTIONARY
  5
29
102
{ACAD_REACTORS
330
5
102
}
330
5
100
AcDbDictionary
281
     1
  0
DICTIONARY
  5
229
102
{ACAD_REACTORS
330
5
102
}
330
5
100
AcDbDictionary
281
     1
  0
DICTIONARY
  5
27
102
{ACAD_REACTORS
330
5
102
}
330
5
100
AcDbDictionary
281
     1
  0
DICTIONARY
  5
221
102
{ACAD_REACTORS
330
5
102
}
330
5
100
AcDbDictionary
281
     1
  0
DICTIONARY
  5
1C
102
{ACAD_REACTORS
330
5
102
}
330
5
100
AcDbDictionary
281
     1
  3
A0
350
21D
  3
A1
350
218
  3
A2
350
213
  3
A3
350
20E
  3
A4
350
209
  3
Layout1
350
203
  3
Layout2
350
23
  3
Model
350
1B
  0
DICTIONARY
  5
7
102
{ACAD_REACTORS
330
5
102
}
330
5
100
AcDbDictionary
281
     1
  3
ByBlock
350
52
  3
ByLayer
350
10
  3
Global
350
6
  0
DICTIONARY
  5
227
102
{ACAD_REACTORS
330
5
102
}
330
5
100
AcDbDictionary
281
     1
  0
DICTIONARY
  5
14
102
{ACAD_REACTORS
330
5
102
}
330
5
100
AcDbDictionary
281
     1
  3
Standard
350
13
  0
DICTIONARY
  5
28
102
{ACAD_REACTORS
330
5
102
}
330
5
100
AcDbDictionary
281
     1
  0
ACDBDICTIONARYWDFLT
  5
4
102
{ACAD_REACTORS
330
5
102
}
330
5
100
AcDbDictionary
281
     1
  3
Normal
350
3
100
AcDbDictionaryWithDefault
340
3
  0
DICTIONARY
  5
2F
102
{ACAD_REACTORS
330
5
102
}
330
5
100
AcDbDictionary
281
     1
  3
*A1
350
51
  0
DICTIONARY
  5
22A
102
{ACAD_REACTORS
330
5
102
}
330
5
100
AcDbDictionary
281
     1
  0
DICTIONARY
  5
226
102
{ACAD_REACTORS
330
5
102
}
330
5
100
AcDbDictionary
281
     1
  0
DICTIONARY
  5
2A
102
{ACAD_REACTORS
330
5
102
}
330
5
100
AcDbDictionary
281
     1
  3
2dWireframe
350
2C
  0
DICTIONARY
  5
224
102
{ACAD_REACTORS
330
5
102
}
330
5
100
AcDbDictionary
281
     1
  3
CANNOSCALE
350
225
  3
XCLIPFRAME
350
228
  0
DICTIONARY
  5
21F
102
{ACAD_REACTORS
330
5
102
}
330
5
100
AcDbDictionary
281
     1
  3
MC_VERSION_DATA
350
222
  3
MCS_DOCUMENT_ID
350
220
  0
SORTENTSTABLE
  5
18
102
{ACAD_REACTORS
330
17
102
}
330
17
100
AcDbSortentsTable
330
16
  0
LAYOUT
  5
21D
102
{ACAD_REACTORS
330
1C
330
1C
102
}
330
1C
100
AcDbPlotSettings
  1

  2
none_device
  4
ISO_A0_(1189.00_x_841.00_MM)
  6

 40
7.5
 41
20.0
 42
7.5
 43
20.0
 44
1189.0
 45
841.0
 46
0.0
 47
0.0
 48
0.0
 49
0.0
140
0.0
141
0.0
142
1.0
143
1.0
 70
   688
 72
     1
 73
     0
 74
     5
  7

 75
    16
 76
     0
 77
     2
 78
   300
147
1.0
148
0.0
149
0.0
100
AcDbLayout
  1
A0
 70
     0
 71
     7
 10
0.0
 20
0.0
 11
0.0
 21
0.0
 12
0.0
 22
0.0
 32
0.0
 14
0.0
 24
0.0
 34
0.0
 15
0.0
 25
0.0
 35
0.0
146
0.0
 13
0.0
 23
0.0
 33
0.0
 16
1.0
 26
0.0
 36
0.0
 17
0.0
 27
1.0
 37
0.0
 76
     0
330
21A
331
21E
  0
LAYOUT
  5
218
102
{ACAD_REACTORS
330
1C
330
1C
102
}
330
1C
100
AcDbPlotSettings
  1

  2
none_device
  4
ISO_A1_(841.00_x_594.00_MM)
  6

 40
7.5
 41
20.0
 42
7.5
 43
20.0
 44
841.0
 45
594.0
 46
0.0
 47
0.0
 48
0.0
 49
0.0
140
0.0
141
0.0
142
1.0
143
1.0
 70
   688
 72
     1
 73
     0
 74
     5
  7

 75
    16
 76
     0
 77
     2
 78
   300
147
1.0
148
0.0
149
0.0
100
AcDbLayout
  1
A1
 70
     1
 71
     6
 10
-20.0
 20
-7.5
 11
277.0
 21
202.5
 12
0.0
 22
0.0
 32
0.0
 14
0.0
 24
0.0
 34
0.0
 15
0.0
 25
0.0
 35
0.0
146
0.0
 13
0.0
 23
0.0
 33
0.0
 16
1.0
 26
0.0
 36
0.0
 17
0.0
 27
1.0
 37
0.0
 76
     0
330
215
331
219
  0
LAYOUT
  5
213
102
{ACAD_REACTORS
330
1C
330
1C
102
}
330
1C
100
AcDbPlotSettings
  1

  2
none_device
  4
ISO_A2_(594.00_x_420.00_MM)
  6

 40
7.5
 41
20.0
 42
7.5
 43
20.0
 44
594.0
 45
420.0
 46
0.0
 47
0.0
 48
0.0
 49
0.0
140
0.0
141
0.0
142
1.0
143
1.0
 70
   688
 72
     1
 73
     0
 74
     5
  7

 75
    16
 76
     0
 77
     2
 78
   300
147
1.0
148
0.0
149
0.0
100
AcDbLayout
  1
A2
 70
     1
 71
     5
 10
0.0
 20
0.0
 11
0.0
 21
0.0
 12
0.0
 22
0.0
 32
0.0
 14
0.0
 24
0.0
 34
0.0
 15
0.0
 25
0.0
 35
0.0
146
0.0
 13
0.0
 23
0.0
 33
0.0
 16
1.0
 26
0.0
 36
0.0
 17
0.0
 27
1.0
 37
0.0
 76
     0
330
210
331
214
  0
LAYOUT
  5
20E
102
{ACAD_REACTORS
330
1C
330
1C
102
}
330
1C
100
AcDbPlotSettings
  1

  2
none_device
  4
ISO_A3_(420.00_x_297.00_MM)
  6

 40
7.5
 41
20.0
 42
7.5
 43
20.0
 44
420.0
 45
297.0
 46
0.0
 47
0.0
 48
0.0
 49
0.0
140
0.0
141
0.0
142
1.0
143
1.0
 70
   688
 72
     1
 73
     0
 74
     5
  7

 75
    16
 76
     0
 77
     2
 78
   300
147
1.0
148
0.0
149
0.0
100
AcDbLayout
  1
A3
 70
     1
 71
     4
 10
0.0
 20
0.0
 11
0.0
 21
0.0
 12
0.0
 22
0.0
 32
0.0
 14
0.0
 24
0.0
 34
0.0
 15
0.0
 25
0.0
 35
0.0
146
0.0
 13
0.0
 23
0.0
 33
0.0
 16
1.0
 26
0.0
 36
0.0
 17
0.0
 27
1.0
 37
0.0
 76
     0
330
20B
331
20F
  0
LAYOUT
  5
209
102
{ACAD_REACTORS
330
1C
330
1C
102
}
330
1C
100
AcDbPlotSettings
  1

  2
none_device
  4
ISO_A4_(210.00_x_297.00_MM)
  6

 40
7.5
 41
20.0
 42
7.5
 43
20.0
 44
210.0
 45
297.0
 46
0.0
 47
0.0
 48
0.0
 49
0.0
140
0.0
141
0.0
142
1.0
143
1.0
 70
   688
 72
     1
 73
     0
 74
     5
  7

 75
    16
 76
     0
 77
     2
 78
   300
147
1.0
148
0.0
149
0.0
100
AcDbLayout
  1
A4
 70
     1
 71
     3
 10
0.0
 20
0.0
 11
0.0
 21
0.0
 12
0.0
 22
0.0
 32
0.0
 14
0.0
 24
0.0
 34
0.0
 15
0.0
 25
0.0
 35
0.0
146
0.0
 13
0.0
 23
0.0
 33
0.0
 16
1.0
 26
0.0
 36
0.0
 17
0.0
 27
1.0
 37
0.0
 76
     0
330
206
331
20A
  0
LAYOUT
  5
203
102
{ACAD_REACTORS
330
1C
330
1C
102
}
330
1C
100
AcDbPlotSettings
  1

  2
none_device
  4
ISO_A4_(210.00_x_297.00_MM)
  6

 40
7.5
 41
20.0
 42
7.5
 43
20.0
 44
210.0
 45
297.0
 46
0.0
 47
0.0
 48
0.0
 49
0.0
140
0.0
141
0.0
142
1.0
143
1.0
 70
   688
 72
     1
 73
     1
 74
     5
  7

 75
    16
 76
     0
 77
     2
 78
   300
147
1.0
148
0.0
149
0.0
100
AcDbLayout
  1
Layout1
 70
     0
 71
     2
 10
0.0
 20
0.0
 11
12.0
 21
9.0
 12
0.0
 22
0.0
 32
0.0
 14
0.0
 24
0.0
 34
0.0
 15
0.0
 25
0.0
 35
0.0
146
0.0
 13
0.0
 23
0.0
 33
0.0
 16
1.0
 26
0.0
 36
0.0
 17
0.0
 27
1.0
 37
0.0
 76
     0
330
200
331
204
  0
LAYOUT
  5
23
102
{ACAD_REACTORS
330
1C
330
1C
102
}
330
1C
100
AcDbPlotSettings
  1

  2
none_device
  4
ISO_A4_(210.00_x_297.00_MM)
  6

 40
7.5
 41
20.0
 42
7.5
 43
20.0
 44
210.0
 45
297.0
 46
0.0
 47
0.0
 48
0.0
 49
0.0
140
0.0
141
0.0
142
1.0
143
1.0
 70
   688
 72
     1
 73
     1
 74
     5
  7

 75
    16
 76
     0
 77
     2
 78
   300
147
1.0
148
0.0
149
0.0
100
AcDbLayout
  1
Layout2
 70
     0
 71
     1
 10
-20.0
 20
-7.5
 11
277.0
 21
202.5
 12
0.0
 22
0.0
 32
0.0
 14
0.0
 24
0.0
 34
0.0
 15
0.0
 25
0.0
 35
0.0
146
0.0
 13
0.0
 23
0.0
 33
0.0
 16
1.0
 26
0.0
 36
0.0
 17
0.0
 27
1.0
 37
0.0
 76
     0
330
20
331
205
  0
LAYOUT
  5
1B
102
{ACAD_REACTORS
330
1C
330
1C
102
}
102
{ACAD_XDICTIONARY
360
1D
102
}
330
1C
100
AcDbPlotSettings
  1

  2
OKI PCL6 (redirected 2)
  4
USER1
  6

 40
4.233333
 41
4.233333
 42
4.233333
 43
4.233333
 44
215.9
 45
279.4
 46
-141.0
 47
7.4131
 48
0.0
 49
0.0
140
0.0
141
0.0
142
1.0
143
1.0
 70
 11936
 72
     1
 73
     0
 74
     1
  7

 75
     0
 76
     0
 77
     2
 78
   300
147
0.525495
148
266.186342
149
205.208278
100
AcDbLayout
  1
Model
 70
     1
 71
     0
 10
0.0
 20
0.0
 11
420.0
 21
297.0
 12
0.0
 22
0.0
 32
0.0
 14
-56.186342
 24
-56.708278
 34
0.0
 15
338.552518
 25
312.671094
 35
0.0
146
0.0
 13
0.0
 23
0.0
 33
0.0
 16
1.0
 26
0.0
 36
0.0
 17
0.0
 27
1.0
 37
0.0
 76
     0
330
16
331
2B
1001
ACAD_PSEXT
1000
None
1000
None
1000
Not applicable
1000
The layout will not be plotted unless a new plotter configuration name is selected.
1070
     0
  0
MATERIAL
  5
52
102
{ACAD_REACTORS
330
7
102
}
330
7
100
AcDbMaterial
  1
ByBlock
 72
     1
 73
     2
 78
     2
172
     2
176
     2
270
     2
274
     2
 94
       63
  0
MATERIAL
  5
10
102
{ACAD_REACTORS
330
7
102
}
330
7
100
AcDbMaterial
  1
ByLayer
 72
     1
 73
     2
 78
     2
172
     2
176
     2
270
     2
274
     2
 94
       63
  0
MATERIAL
  5
6
102
{ACAD_REACTORS
330
7
102
}
330
7
100
AcDbMaterial
  1
Global
 72
     1
 73
     2
 43
0.0008
 43
0.0
 43
0.0
 43
0.0
 43
0.0
 43
0.0008
 43
0.0
 43
0.0
 43
0.0
 43
0.0
 43
1.0
 43
0.0
 43
0.0
 43
0.0
 43
0.0
 43
1.0
 78
     2
172
     2
 49
0.0008
 49
0.0
 49
0.0
 49
0.0
 49
0.0
 49
0.0008
 49
0.0
 49
0.0
 49
0.0
 49
0.0
 49
1.0
 49
0.0
 49
0.0
 49
0.0
 49
0.0
 49
1.0
176
     2
142
0.0008
142
0.0
142
0.0
142
0.0
142
0.0
142
0.0008
142
0.0
142
0.0
142
0.0
142
0.0
142
1.0
142
0.0
142
0.0
142
0.0
142
0.0
142
1.0
270
     2
144
0.0008
144
0.0
144
0.0
144
0.0
144
0.0
144
0.0008
144
0.0
144
0.0
144
0.0
144
0.0
144
1.0
144
0.0
144
0.0
144
0.0
144
0.0
144
1.0
274
     2
 94
       63
1001
ACAD
1070
    -1
1070
     3
1070
     0
1000

1071
        0
1070
     0
  0
MLINESTYLE
  5
13
102
{ACAD_REACTORS
330
14
102
}
330
14
100
AcDbMlineStyle
  2
STANDARD
 70
     0
  3

 62
   256
 51
90.0
 52
90.0
 71
     2
 49
0.5
 62
   256
  6
BYLAYER
 49
-0.5
 62
   256
  6
BYLAYER
  0
ACDBPLACEHOLDER
  5
3
102
{ACAD_REACTORS
330
4
102
}
330
4
  0
SCALE
  5
51
102
{ACAD_REACTORS
330
2F
102
}
330
2F
100
AcDbScale
 70
     0
300
1:1
140
1.0
141
1.0
290
     1
  0
VISUALSTYLE
  5
2C
102
{ACAD_REACTORS
330
2A
102
}
330
2A
100
AcDbVisualStyle
  2
2dWireframe
 70
     4
177
     3
291
     0
 70
    58
 90
        0
176
     1
 90
        2
176
     1
 90
        1
176
     1
 90
        0
176
     1
 40
-0.6
176
     1
 40
-30.0
176
     1
 62
     7
420
 16777215
176
     1
 90
        1
176
     1
 90
        4
176
     1
 62
     7
176
     1
 62
   257
176
     1
 90
        1
176
     1
 90
        1
176
     1
 40
1.0
176
     1
 90
        0
176
     1
 62
   257
176
     1
 40
1.0
176
     1
 90
        1
176
     1
 90
        6
176
     1
 90
        2
176
     1
 62
     7
176
     1
 90
        5
176
     1
 90
        0
176
     1
 90
        0
176
     1
290
     0
176
     1
 90
        1
176
     1
 40
0.0
176
     1
 90
        0
176
     1
290
     1
176
     1
290
     1
176
     1
290
     0
176
     1
290
     0
176
     1
290
     0
176
     1
290
     0
176
     1
290
     0
176
     1
290
     0
176
     1
290
     0
176
     1
 90
       50
176
     1
 40
0.0
176
     1
 40
1.0
176
     1
 90
        0
176
     1
 62
    18
420
        0
176
     1
 90
       50
176
     1
 90
        3
176
     1
 62
     5
420
      255
176
     1
290
     0
176
     1
 90
       50
176
     1
 90
       50
176
     1
 90
       50
176
     1
290
     0
176
     1
 90
       50
176
     1
 62
   256
176
     0
 40
1.0
176
     0
 90
        2
176
     1
  1
strokes_ogs.tif
176
     1
290
     0
176
     1
 40
1.0
176
     1
 40
1.0
176
     1
  0
DICTIONARYVAR
  5
225
102
{ACAD_REACTORS
330
224
102
}
330
224
100
DictionaryVariables
280
     0
  1
1:1
  0
DICTIONARYVAR
  5
228
102
{ACAD_REACTORS
330
224
102
}
330
224
100
DictionaryVariables
280
     0
  1
0
  0
XRECORD
  5
222
102
{ACAD_REACTORS
330
21F
102
}
330
21F
100
AcDbXrecord
280
     1
300
MC_VERSION_DATA
 90
       95
310
0600000002000000570000001C000000E404000000000000000000007801936764E5D8CF7A8393818115C460606066E0646662626666706006F214793899F8DE3171E725E6E53B3BBA2878E6951050AF75FEFFFFFF520032DE0F3057000000
  0
XRECORD
  5
220
102
{ACAD_REACTORS
330
21F
102
}
330
21F
100
AcDbXrecord
280
     1
300
MCS_DOCUMENT_ID
 90
       60
310
0600000002000000150000001C000000E404000000000000000000007801E38DE8FAF5EDAD5ABFDBE2230E2F6CFC3DEDFE0301007C3B0C6515000000
  0
DICTIONARY
  5
1D
330
1B
100
AcDbDictionary
280
     1
281
     1
  3
CSD_PLOT_CONFIG
360
1E
  0
LAYOUTPRINTCONFIG
  5
1E
102
{ACAD_REACTORS
330
1D
102
}
330
1D
100
AcDbEntity
  8
0
160
                 8
310
0800000000000000
100
CAcLayoutPrintConfig
 93
        0
  0
ENDSEC
  0
EOF
