  0
SECTION
  2
HEADER
  9
$ACADVER
  1
AC1012
  9
$DWGCODEPAGE
  3
ansi_1251
  9
$INSBASE
 10
0.0
 20
0.0
 30
0.0
  9
$EXTMIN
 10
-56.186342
 20
-56.708278
 30
0.0
  9
$EXTMAX
 10
338.552518
 20
312.671094
 30
0.0
  9
$LIMMIN
 10
0.0
 20
0.0
  9
$LIMMAX
 10
420.0
 20
297.0
  9
$ORTHOMODE
 70
     1
  9
$REGENMODE
 70
     1
  9
$FILLMODE
 70
     1
  9
$QTEXTMODE
 70
     0
  9
$MIRRTEXT
 70
     0
  9
$DRAGMODE
 70
     2
  9
$LTSCALE
 40
1.0
  9
$OSMODE
 70
    37
  9
$ATTMODE
 70
     1
  9
$TEXTSIZE
 40
2.5
  9
$TRACEWID
 40
1.0
  9
$TEXTSTYLE
  7
STANDARD
  9
$CLAYER
  8
DEFLINES
  9
$CELTYPE
  6
BYLAYER
  9
$CECOLOR
 62
   256
  9
$CELTSCALE
 40
1.0
  9
$DELOBJ
 70
     1
  9
$DISPSILH
 70
     0
  9
$DIMSCALE
 40
1.0
  9
$DIMASZ
 40
2.5
  9
$DIMEXO
 40
0.5
  9
$DIMDLI
 40
6.0
  9
$DIMRND
 40
0.0
  9
$DIMDLE
 40
0.0
  9
$DIMEXE
 40
0.0
  9
$DIMTP
 40
0.0
  9
$DIMTM
 40
0.0
  9
$DIMTXT
 40
2.5
  9
$DIMCEN
 40
2.5
  9
$DIMTSZ
 40
0.0
  9
$DIMTOL
 70
     0
  9
$DIMLIM
 70
     0
  9
$DIMTIH
 70
     0
  9
$DIMTOH
 70
     1
  9
$DIMSE1
 70
     0
  9
$DIMSE2
 70
     0
  9
$DIMTAD
 70
     0
  9
$DIMZIN
 70
     0
  9
$DIMBLK
  1

  9
$DIMASO
 70
     1
  9
$DIMSHO
 70
     1
  9
$DIMPOST
  1

  9
$DIMAPOST
  1

  9
$DIMALT
 70
     0
  9
$DIMALTD
 70
     2
  9
$DIMALTF
 40
25.4
  9
$DIMLFAC
 40
1.0
  9
$DIMTOFL
 70
     0
  9
$DIMTVP
 40
0.0
  9
$DIMTIX
 70
     0
  9
$DIMSOXD
 70
     0
  9
$DIMSAH
 70
     0
  9
$DIMBLK1
  1

  9
$DIMBLK2
  1

  9
$DIMSTYLE
  2
STANDARD
  9
$DIMCLRD
 70
     0
  9
$DIMCLRE
 70
     0
  9
$DIMCLRT
 70
     0
  9
$DIMTFAC
 40
1.0
  9
$DIMGAP
 40
1.0
  9
$DIMJUST
 70
     0
  9
$DIMSD1
 70
     0
  9
$DIMSD2
 70
     0
  9
$DIMTOLJ
 70
     1
  9
$DIMTZIN
 70
     0
  9
$DIMALTZ
 70
     0
  9
$DIMALTTZ
 70
     0
  9
$DIMFIT
 70
     3
  9
$DIMUPT
 70
     0
  9
$DIMUNIT
 70
     2
  9
$DIMDEC
 70
     4
  9
$DIMTDEC
 70
     4
  9
$DIMALTU
 70
     2
  9
$DIMALTTD
 70
     2
  9
$DIMTXSTY
  7
STANDARD
  9
$DIMAUNIT
 70
     0
  9
$LUNITS
 70
     2
  9
$LUPREC
 70
     4
  9
$SKETCHINC
 40
1.0
  9
$FILLETRAD
 40
0.0
  9
$AUNITS
 70
     0
  9
$AUPREC
 70
     0
  9
$MENU
  1
.
  9
$ELEVATION
 40
0.0
  9
$PELEVATION
 40
0.0
  9
$THICKNESS
 40
0.0
  9
$LIMCHECK
 70
     0
  9
$CHAMFERA
 40
0.0
  9
$CHAMFERB
 40
0.0
  9
$CHAMFERC
 40
0.0
  9
$CHAMFERD
 40
0.0
  9
$SKPOLY
 70
     0
  9
$TDCREATE
 40
2454082.616716713
  9
$TDUPDATE
 40
2458667.479145011
  9
$TDINDWG
 40
0.0105753588
  9
$TDUSRTIMER
 40
0.0105751736
  9
$USRTIMER
 70
     1
  9
$ANGBASE
 50
0.0
  9
$ANGDIR
 70
     0
  9
$PDMODE
 70
     0
  9
$PDSIZE
 40
0.0
  9
$PLINEWID
 40
0.0
  9
$COORDS
 70
     1
  9
$SPLFRAME
 70
     0
  9
$SPLINETYPE
 70
     6
  9
$SPLINESEGS
 70
     8
  9
$ATTDIA
 70
     0
  9
$ATTREQ
 70
     1
  9
$HANDLING
 70
     1
  9
$HANDSEED
  5
FD0
  9
$SURFTAB1
 70
     6
  9
$SURFTAB2
 70
     6
  9
$SURFTYPE
 70
     6
  9
$SURFU
 70
     6
  9
$SURFV
 70
     6
  9
$UCSNAME
  2

  9
$UCSORG
 10
0.0
 20
0.0
 30
0.0
  9
$UCSXDIR
 10
1.0
 20
0.0
 30
0.0
  9
$UCSYDIR
 10
0.0
 20
1.0
 30
0.0
  9
$PUCSNAME
  2

  9
$PUCSORG
 10
0.0
 20
0.0
 30
0.0
  9
$PUCSXDIR
 10
1.0
 20
0.0
 30
0.0
  9
$PUCSYDIR
 10
0.0
 20
1.0
 30
0.0
  9
$USERI1
 70
     0
  9
$USERI2
 70
     0
  9
$USERI3
 70
     0
  9
$USERI4
 70
     0
  9
$USERI5
 70
     0
  9
$USERR1
 40
0.0
  9
$USERR2
 40
0.0
  9
$USERR3
 40
0.0
  9
$USERR4
 40
0.0
  9
$USERR5
 40
0.0
  9
$WORLDVIEW
 70
     1
  9
$SHADEDGE
 70
     3
  9
$SHADEDIF
 70
    70
  9
$TILEMODE
 70
     1
  9
$MAXACTVP
 70
    64
  9
$PINSBASE
 10
0.0
 20
0.0
 30
0.0
  9
$PLIMCHECK
 70
     0
  9
$PEXTMIN
 10
0.0
 20
0.0
 30
0.0
  9
$PEXTMAX
 10
0.0
 20
0.0
 30
0.0
  9
$PLIMMIN
 10
-20.0
 20
-7.5
  9
$PLIMMAX
 10
277.0
 20
202.5
  9
$UNITMODE
 70
     0
  9
$VISRETAIN
 70
     1
  9
$PLINEGEN
 70
     0
  9
$PSLTSCALE
 70
     0
  9
$TREEDEPTH
 70
  3020
  9
$PICKSTYLE
 70
     1
  9
$CMLSTYLE
  2
STANDARD
  9
$CMLJUST
 70
     0
  9
$CMLSCALE
 40
20.0
  9
$SAVEIMAGES
 70
     1
  0
ENDSEC
  0
SECTION
  2
CLASSES
  0
CLASS
  1
ACDBDICTIONARYWDFLT
  2
AcDbDictionaryWithDefault
  3
ObjectDBX Classes
 90
    32768
280
     0
281
     0
  0
CLASS
  1
ACDBPLACEHOLDER
  2
AcDbPlaceHolder
  3
ObjectDBX Classes
 90
        0
280
     0
281
     0
  0
CLASS
  1
LAYOUT
  2
AcDbLayout
  3
ObjectDBX Classes
 90
        0
280
     0
281
     0
  0
CLASS
  1
DICTIONARYVAR
  2
AcDbDictionaryVar
  3
ObjectDBX Classes
 90
        0
280
     0
281
     0
  0
CLASS
  1
TABLESTYLE
  2
AcDbTableStyle
  3
ObjectDBX Classes
 90
     4095
280
     0
281
     0
  0
CLASS
  1
MATERIAL
  2
AcDbMaterial
  3
ObjectDBX Classes
 90
     1153
280
     0
281
     0
  0
CLASS
  1
VISUALSTYLE
  2
AcDbVisualStyle
  3
ObjectDBX Classes
 90
     4095
280
     0
281
     0
  0
CLASS
  1
SCALE
  2
AcDbScale
  3
ObjectDBX Classes
 90
     1153
280
     0
281
     0
  0
CLASS
  1
MLEADERSTYLE
  2
AcDbMLeaderStyle
  3
ACDB_MLEADERSTYLE_CLASS
 90
     4095
280
     0
281
     0
  0
CLASS
  1
CELLSTYLEMAP
  2
AcDbCellStyleMap
  3
ObjectDBX Classes
 90
     1152
280
     0
281
     0
  0
CLASS
  1
EXACXREFPANELOBJECT
  2
ExAcXREFPanelObject
  3
EXAC_ESW
 90
     1025
280
     1
281
     0
  0
CLASS
  1
NPOCOLLECTION
  2
AcDbImpNonPersistentObjectsCollection
  3
ObjectDBX Classes
 90
     1153
280
     1
281
     0
  0
CLASS
  1
LAYER_INDEX
  2
AcDbLayerIndex
  3
ObjectDBX Classes
 90
    32768
280
     0
281
     0
  0
CLASS
  1
SPATIAL_INDEX
  2
AcDbSpatialIndex
  3
AutoCAD 2000
 90
        0
280
     0
281
     0
  0
CLASS
  1
IDBUFFER
  2
AcDbIdBuffer
  3
ObjectDBX Classes
 90
    32768
280
     0
281
     0
  0
CLASS
  1
Wall
  2
PtDbWall
  3
NanoSPDS
 90
      893
280
     1
281
     1
  0
CLASS
  1
SORTENTSTABLE
  2
AcDbSortentsTable
  3
ObjectDBX Classes
 90
    32768
280
     0
281
     0
  0
CLASS
  1
Format
  2
mcsDbObjectFormat
  3
NanoSPDS
 90
      893
280
     1
281
     1
  0
CLASS
  1
NOTEPOSITION
  2
mcsDbObjectNotePosition
  3
NanoSPDS
 90
      893
280
     0
281
     1
  0
CLASS
  1
mcsDbObject
  2
mcsDbObject
  3
NanoSPDS
 90
      893
280
     0
281
     1
  0
CLASS
  1
McDbContainer2
  2
McDbContainer2
  3
NanoSPDS
 90
      893
280
     0
281
     0
  0
CLASS
  1
spdsLevelMark
  2
mcsDbObjectLevelMark
  3
NanoSPDS
 90
      893
280
     1
281
     1
  0
CLASS
  1
spdsRelationMark
  2
mcsDbObjectRelationMark
  3
NanoSPDS
 90
      893
280
     1
281
     1
  0
CLASS
  1
LAYOUTPRINTCONFIG
  2
CAcLayoutPrintConfig
  3
"CSD_APP"
 90
     4095
280
     0
281
     1
  0
CLASS
  1
SUN
  2
AcDbSun
  3
SCENEOE
 90
     1153
280
     0
281
     0
  0
CLASS
  1
CSACDOCUMENTOPTIONS
  2
CDocDataContainer
  3
"DERU003_CSAPP"
 90
     4095
280
     0
281
     0
  0
CLASS
  1
PLOTSETTINGS
  2
AcDbPlotSettings
  3
ObjectDBX Classes
 90
    32768
280
     0
281
     0
  0
CLASS
  1
McDbMarker
  2
McDbMarker
  3
NanoSPDS
 90
      893
280
     0
281
     1
  0
CLASS
  1
XRECORD
  2
AcDbXrecord
  3
ObjectDBX Classes
 90
    32768
280
     0
281
     0
  0
CLASS
  1
LWPOLYLINE
  2
AcDbPolyline
  3
ObjectDBX Classes
 90
    32768
280
     0
281
     1
  0
CLASS
  1
HATCH
  2
AcDbHatch
  3
ObjectDBX Classes
 90
    32768
280
     0
281
     1
  0
ENDSEC
  0
SECTION
  2
TABLES
  0
TABLE
  2
VPORT
  5
8
330
0
100
AcDbSymbolTable
 70
     1
  0
VPORT
  5
EA
330
8
100
AcDbSymbolTableRecord
100
AcDbViewportTableRecord
  2
*ACTIVE
 70
     0
 10
0.0
 20
0.0
 11
1.0
 21
1.0
 12
74.964225
 22
8.565779
 13
0.0
 23
0.0
 14
10.0
 24
10.0
 15
10.0
 25
10.0
 16
0.0
 26
0.0
 36
1.0
 17
210.0
 27
148.5
 37
0.0
 40
587.19344
 41
2.104712
 42
50.0
 43
0.0
 44
0.0
 50
0.0
 51
0.0
 71
    16
 72
  1000
 73
     1
 74
     3
 75
     0
 76
     0
 77
     0
 78
     0
  0
ENDTAB
  0
TABLE
  2
LTYPE
  5
5
330
0
100
AcDbSymbolTable
 70
     1
  0
LTYPE
  5
14
330
5
100
AcDbSymbolTableRecord
100
AcDbLinetypeTableRecord
  2
BYBLOCK
 70
     0
  3

 72
    65
 73
     0
 40
0.0
  0
LTYPE
  5
15
330
5
100
AcDbSymbolTableRecord
100
AcDbLinetypeTableRecord
  2
BYLAYER
 70
     0
  3

 72
    65
 73
     0
 40
0.0
  0
LTYPE
  5
16
330
5
100
AcDbSymbolTableRecord
100
AcDbLinetypeTableRecord
  2
CONTINUOUS
 70
     0
  3
Solid line
 72
    65
 73
     0
 40
0.0
  0
ENDTAB
  0
TABLE
  2
LAYER
  5
2
330
0
100
AcDbSymbolTable
 70
     4
  0
LAYER
  5
10
330
2
100
AcDbSymbolTableRecord
100
AcDbLayerTableRecord
  2
0
 70
     0
 62
     5
  6
CONTINUOUS
  0
LAYER
  5
22D
330
2
100
AcDbSymbolTableRecord
100
AcDbLayerTableRecord
  2
DEFPOINTS
 70
     0
 62
     7
  6
CONTINUOUS
  0
LAYER
  5
39C
330
2
100
AcDbSymbolTableRecord
100
AcDbLayerTableRecord
  2
DEFLINES
 70
     0
 62
     2
  6
CONTINUOUS
  0
LAYER
  5
3C3
330
2
100
AcDbSymbolTableRecord
100
AcDbLayerTableRecord
  2
DIMENSION
 70
     0
 62
     3
  6
CONTINUOUS
  0
ENDTAB
  0
TABLE
  2
STYLE
  5
3
330
0
100
AcDbSymbolTable
 70
     3
  0
STYLE
  5
11
330
3
100
AcDbSymbolTableRecord
100
AcDbTextStyleTableRecord
  2
STANDARD
 70
     0
 40
0.0
 41
1.0
 50
0.0
 71
     0
 42
2.5
  3
txt.shx
  4

  0
STYLE
  5
1E3
330
3
100
AcDbSymbolTableRecord
100
AcDbTextStyleTableRecord
  2

 70
     1
 40
0.0
 41
1.0
 50
0.0
 71
     0
 42
0.2
  3
GOST 2.303-68.shx
  4

  0
ENDTAB
  0
TABLE
  2
VIEW
  5
6
330
0
100
AcDbSymbolTable
 70
     0
  0
ENDTAB
  0
TABLE
  2
UCS
  5
7
330
0
100
AcDbSymbolTable
 70
     0
  0
ENDTAB
  0
TABLE
  2
APPID
  5
9
330
0
100
AcDbSymbolTable
 70
    15
  0
APPID
  5
12
330
9
100
AcDbSymbolTableRecord
100
AcDbRegAppTableRecord
  2
ACAD
 70
     0
  0
APPID
  5
9E
330
9
100
AcDbSymbolTableRecord
100
AcDbRegAppTableRecord
  2
ACAD_PSEXT
 70
     0
  0
APPID
  5
133
330
9
100
AcDbSymbolTableRecord
100
AcDbRegAppTableRecord
  2
ACADANNOPO
 70
     0
  0
APPID
  5
134
330
9
100
AcDbSymbolTableRecord
100
AcDbRegAppTableRecord
  2
ACADANNOTATIVE
 70
     0
  0
APPID
  5
135
330
9
100
AcDbSymbolTableRecord
100
AcDbRegAppTableRecord
  2
ACAD_DSTYLE_DIMJAG
 70
     0
  0
APPID
  5
136
330
9
100
AcDbSymbolTableRecord
100
AcDbRegAppTableRecord
  2
ACAD_DSTYLE_DIMTALN
 70
     0
  0
APPID
  5
165
330
9
100
AcDbSymbolTableRecord
100
AcDbRegAppTableRecord
  2
ACAD_MLEADERVER
 70
     0
  0
APPID
  5
1E1
330
9
100
AcDbSymbolTableRecord
100
AcDbRegAppTableRecord
  2
MCS_DIM1
 70
     0
  0
APPID
  5
1E2
330
9
100
AcDbSymbolTableRecord
100
AcDbRegAppTableRecord
  2
MCSXDATA5
 70
     0
  0
APPID
  5
209
330
9
100
AcDbSymbolTableRecord
100
AcDbRegAppTableRecord
  2
MCS_PARAMS_DATA
 70
     0
  0
APPID
  5
20C
330
9
100
AcDbSymbolTableRecord
100
AcDbRegAppTableRecord
  2
MCS_PARAMS_HIDDEN_DATA
 70
     0
  0
APPID
  5
34D
330
9
100
AcDbSymbolTableRecord
100
AcDbRegAppTableRecord
  2
MCS_DOCUMENT_ID
 70
     0
  0
APPID
  5
353
330
9
100
AcDbSymbolTableRecord
100
AcDbRegAppTableRecord
  2
MCSUBENTIDENTIFICATION
 70
     0
  0
APPID
  5
355
330
9
100
AcDbSymbolTableRecord
100
AcDbRegAppTableRecord
  2
MC_VERSION_DATA
 70
     0
  0
APPID
  5
3B4
330
9
100
AcDbSymbolTableRecord
100
AcDbRegAppTableRecord
  2
ACAD_DSTYLE_DIMRADIAL_EXTE
 70
     0
  0
ENDTAB
  0
TABLE
  2
DIMSTYLE
  5
A
330
0
100
AcDbSymbolTable
 70
     1
  0
DIMSTYLE
105
1B0
330
A
100
AcDbSymbolTableRecord
100
AcDbDimStyleTableRecord
  2
STANDARD
 70
     0
  3

  4

  5

  6

  7

 40
100.0
 41
2.5
 42
0.5
 43
6.0
 44
0.0
 45
0.0
 46
0.0
 47
0.0
 48
0.0
140
2.5
141
2.5
142
0.0
143
25.4
144
1.0
145
0.0
146
1.0
147
1.0
 71
     0
 72
     0
 73
     0
 74
     1
 75
     0
 76
     0
 77
     0
 78
     0
170
     0
171
     2
172
     0
173
     0
174
     0
175
     0
176
     0
177
     0
178
     0
270
     2
271
     4
272
     4
273
     2
274
     2
340
11
275
     0
280
     0
281
     0
282
     0
283
     1
284
     0
285
     0
286
     0
287
     3
288
     0
  0
ENDTAB
  0
TABLE
  2
BLOCK_RECORD
  5
1
330
0
100
AcDbSymbolTable
 70
    96
  0
BLOCK_RECORD
  5
1F
102
{ACAD_XDICTIONARY
360
234
102
}
330
1
100
AcDbSymbolTableRecord
100
AcDbBlockTableRecord
  2
*MODEL_SPACE
  0
BLOCK_RECORD
  5
D6
330
1
100
AcDbSymbolTableRecord
100
AcDbBlockTableRecord
  2
*PAPER_SPACE
  0
BLOCK_RECORD
  5
1EC
330
1
100
AcDbSymbolTableRecord
100
AcDbBlockTableRecord
  2
_ARCHTICK
  0
BLOCK_RECORD
  5
1F4
330
1
100
AcDbSymbolTableRecord
100
AcDbBlockTableRecord
  2
_OPEN30
  0
BLOCK_RECORD
  5
1FC
330
1
100
AcDbSymbolTableRecord
100
AcDbBlockTableRecord
  2
_DOT
  0
BLOCK_RECORD
  5
3C0
330
1
100
AcDbSymbolTableRecord
100
AcDbBlockTableRecord
  2
_NONE
  0
ENDTAB
  0
ENDSEC
  0
SECTION
  2
BLOCKS
  0
BLOCK
  5
20
330
1F
100
AcDbEntity
  8
0
100
AcDbBlockBegin
  2
*MODEL_SPACE
 70
     0
 10
0.0
 20
0.0
 30
0.0
  3
*MODEL_SPACE
  1

  0
ENDBLK
  5
21
330
1F
100
AcDbEntity
  8
0
100
AcDbBlockEnd
  0
BLOCK
  5
D8
330
D6
100
AcDbEntity
 67
     1
  8
0
100
AcDbBlockBegin
  2
*PAPER_SPACE
 70
     0
 10
0.0
 20
0.0
 30
0.0
  3
*PAPER_SPACE
  1

  0
ENDBLK
  5
D9
330
D6
100
AcDbEntity
 67
     1
  8
0
100
AcDbBlockEnd
  0
BLOCK
  5
1ED
330
1EC
100
AcDbEntity
  8
0
100
AcDbBlockBegin
  2
_ARCHTICK
 70
     0
 10
0.0
 20
0.0
 30
0.0
  3
_ARCHTICK
  1
_ARCHTICK
  0
POLYLINE
  5
1EF
330
1EC
100
AcDbEntity
  8
0
  6
BYBLOCK
 62
     0
100
AcDb2dPolyline
 66
     1
 10
0.0
 20
0.0
 30
0.0
 40
0.15
 41
0.15
  0
VERTEX
  5
1F0
330
1EF
100
AcDbEntity
  8
0
  6
BYBLOCK
 62
     0
100
AcDbVertex
100
AcDb2dVertex
 10
-0.5
 20
-0.5
 30
0.0
  0
VERTEX
  5
1F1
330
1EF
100
AcDbEntity
  8
0
  6
BYBLOCK
 62
     0
100
AcDbVertex
100
AcDb2dVertex
 10
0.5
 20
0.5
 30
0.0
  0
SEQEND
  5
1F2
330
1EF
100
AcDbEntity
  8
0
  6
BYBLOCK
 62
     0
  0
ENDBLK
  5
1EE
330
1EC
100
AcDbEntity
  8
0
100
AcDbBlockEnd
  0
BLOCK
  5
1F5
330
1F4
100
AcDbEntity
  8
0
100
AcDbBlockBegin
  2
_OPEN30
 70
     0
 10
0.0
 20
0.0
 30
0.0
  3
_OPEN30
  1
_OPEN30
  0
LINE
  5
1F7
330
1F4
100
AcDbEntity
  8
0
  6
BYBLOCK
 62
     0
100
AcDbLine
 10
-1.0
 20
0.267949
 30
0.0
 11
0.0
 21
0.0
 31
0.0
  0
LINE
  5
1F8
330
1F4
100
AcDbEntity
  8
0
  6
BYBLOCK
 62
     0
100
AcDbLine
 10
0.0
 20
0.0
 30
0.0
 11
-1.0
 21
-0.267949
 31
0.0
  0
LINE
  5
1F9
330
1F4
100
AcDbEntity
  8
0
  6
BYBLOCK
 62
     0
100
AcDbLine
 10
0.0
 20
0.0
 30
0.0
 11
-1.0
 21
0.0
 31
0.0
  0
ENDBLK
  5
1F6
330
1F4
100
AcDbEntity
  8
0
100
AcDbBlockEnd
  0
BLOCK
  5
1FD
330
1FC
100
AcDbEntity
  8
0
100
AcDbBlockBegin
  2
_DOT
 70
     0
 10
0.0
 20
0.0
 30
0.0
  3
_DOT
  1
_DOT
  0
POLYLINE
  5
1FF
330
1FC
100
AcDbEntity
  8
0
  6
BYBLOCK
 62
     0
100
AcDb2dPolyline
 66
     1
 10
0.0
 20
0.0
 30
0.0
 70
     1
 40
0.5
 41
0.5
  0
VERTEX
  5
201
330
1FF
100
AcDbEntity
  8
0
  6
BYBLOCK
 62
     0
100
AcDbVertex
100
AcDb2dVertex
 10
-0.25
 20
0.0
 30
0.0
 42
1.0
  0
VERTEX
  5
202
330
1FF
100
AcDbEntity
  8
0
  6
BYBLOCK
 62
     0
100
AcDbVertex
100
AcDb2dVertex
 10
0.25
 20
0.0
 30
0.0
 42
1.0
  0
SEQEND
  5
203
330
1FF
100
AcDbEntity
  8
0
  6
BYBLOCK
 62
     0
  0
LINE
  5
200
330
1FC
100
AcDbEntity
  8
0
  6
BYBLOCK
 62
     0
100
AcDbLine
 10
-0.5
 20
0.0
 30
0.0
 11
-1.0
 21
0.0
 31
0.0
  0
ENDBLK
  5
1FE
330
1FC
100
AcDbEntity
  8
0
100
AcDbBlockEnd
  0
BLOCK
  5
3C1
330
3C0
100
AcDbEntity
  8
0
100
AcDbBlockBegin
  2
_NONE
 70
     0
 10
0.0
 20
0.0
 30
0.0
  3
_NONE
  1
_NONE
  0
ENDBLK
  5
3C2
330
3C0
100
AcDbEntity
  8
0
100
AcDbBlockEnd
  0
ENDSEC
  0
SECTION
  2
ENTITIES
  0
LINE
  5
4C6
330
1F
100
AcDbEntity
  8
0
100
AcDbLine
 10
167.633361
 20
374.950461
 30
0.0
 11
55.633361
 21
374.950461
 31
0.0
  0
ARC
  5
4C7
330
1F
100
AcDbEntity
  8
0
100
AcDbCircle
 10
55.633361
 20
367.450461
 30
0.0
 40
7.499999999998622
100
AcDbArc
 50
90.0
 51
180.0
1001
MCSXDATA5
1071
      167
1004
06000000000000008B0000001C000000E404000000000000000000001F050A025C020509020FEE020C4D43535F46494C4C45545F3109020FEE020C4D43535F46494C4C45545F3209020FEE020C4D43535F46494C4C45545F3309020FEE020C4D43535F46494C4C45545F3409020FEE020C4D43535F46494C4C45545F351202
1004
2602050201030201030202020103020326020402010302012202010302010302010201030201221A
  0
LINE
  5
4C8
330
1F
100
AcDbEntity
  8
0
100
AcDbLine
 10
48.133361
 20
300.450461
 30
0.0
 11
48.133361
 21
367.450461
 31
0.0
  0
ARC
  5
4C9
330
1F
100
AcDbEntity
  8
0
100
AcDbCircle
 10
55.633361
 20
300.450461
 30
0.0
 40
7.499999999999318
100
AcDbArc
 50
180.0
 51
270.0
1001
MCSXDATA5
1071
      167
1004
06000000000000008B0000001C000000E404000000000000000000001F050A025C020509020FEE020C4D43535F46494C4C45545F3109020FEE020C4D43535F46494C4C45545F3209020FEE020C4D43535F46494C4C45545F3309020FEE020C4D43535F46494C4C45545F3409020FEE020C4D43535F46494C4C45545F351202
1004
2602050201030201030202020103020326020402010302012202010302010302010201030201221A
  0
LINE
  5
4CA
330
1F
100
AcDbEntity
  8
0
100
AcDbLine
 10
55.633361
 20
292.950461
 30
0.0
 11
167.633361
 21
292.950461
 31
0.0
  0
ARC
  5
4CB
330
1F
100
AcDbEntity
  8
0
100
AcDbCircle
 10
167.633361
 20
300.450461
 30
0.0
 40
7.500000000000405
100
AcDbArc
 50
270.0
 51
0.0
1001
MCSXDATA5
1071
      167
1004
06000000000000008B0000001C000000E404000000000000000000001F050A025C020509020FEE020C4D43535F46494C4C45545F3109020FEE020C4D43535F46494C4C45545F3209020FEE020C4D43535F46494C4C45545F3309020FEE020C4D43535F46494C4C45545F3409020FEE020C4D43535F46494C4C45545F351202
1004
2602050201030201030202020103020326020402010302012202010302010302010201030201221A
  0
LINE
  5
4CC
330
1F
100
AcDbEntity
  8
0
100
AcDbLine
 10
175.133361
 20
300.450461
 30
0.0
 11
175.133361
 21
367.450461
 31
0.0
  0
ARC
  5
4CD
330
1F
100
AcDbEntity
  8
0
100
AcDbCircle
 10
167.633361
 20
367.450461
 30
0.0
 40
7.500000000003922
100
AcDbArc
 50
0.0
 51
90.0
1001
MCSXDATA5
1071
      167
1004
06000000000000008B0000001C000000E404000000000000000000001F050A025C020509020FEE020C4D43535F46494C4C45545F3109020FEE020C4D43535F46494C4C45545F3209020FEE020C4D43535F46494C4C45545F3309020FEE020C4D43535F46494C4C45545F3409020FEE020C4D43535F46494C4C45545F351202
1004
2602050201030201030202020103020326020402010302012202010302010302010201030201221A
  0
CIRCLE
  5
4CE
330
1F
100
AcDbEntity
  8
0
100
AcDbCircle
 10
69.133361
 20
312.200461
 30
0.0
 40
1.7
  0
CIRCLE
  5
4D0
330
1F
100
AcDbEntity
  8
0
100
AcDbCircle
 10
84.133361
 20
312.200461
 30
0.0
 40
1.7
  0
CIRCLE
  5
4D2
330
1F
100
AcDbEntity
  8
0
100
AcDbCircle
 10
107.633361
 20
312.200461
 30
0.0
 40
1.7
  0
CIRCLE
  5
4D4
330
1F
100
AcDbEntity
  8
0
100
AcDbCircle
 10
154.133361
 20
312.200461
 30
0.0
 40
1.7
  0
CIRCLE
  5
4D6
330
1F
100
AcDbEntity
  8
0
100
AcDbCircle
 10
139.133361
 20
312.200461
 30
0.0
 40
1.7
  0
CIRCLE
  5
4D8
330
1F
100
AcDbEntity
  8
0
100
AcDbCircle
 10
115.633361
 20
312.200461
 30
0.0
 40
1.7
  0
CIRCLE
  5
4DB
330
1F
100
AcDbEntity
  8
0
100
AcDbCircle
 10
69.133361
 20
355.700461
 30
0.0
 40
1.7
  0
CIRCLE
  5
4DC
330
1F
100
AcDbEntity
  8
0
100
AcDbCircle
 10
107.633361
 20
355.700461
 30
0.0
 40
1.7
  0
CIRCLE
  5
4DE
330
1F
100
AcDbEntity
  8
0
100
AcDbCircle
 10
154.133361
 20
355.700461
 30
0.0
 40
1.7
  0
CIRCLE
  5
4DF
330
1F
100
AcDbEntity
  8
0
100
AcDbCircle
 10
115.633361
 20
355.700461
 30
0.0
 40
1.7
  0
CIRCLE
  5
4E2
330
1F
100
AcDbEntity
  8
0
100
AcDbCircle
 10
92.133361
 20
355.700461
 30
0.0
 40
1.7
  0
CIRCLE
  5
4E5
330
1F
100
AcDbEntity
  8
0
100
AcDbCircle
 10
131.133361
 20
355.700461
 30
0.0
 40
1.7
  0
CIRCLE
  5
4E8
330
1F
100
AcDbEntity
  8
0
100
AcDbCircle
 10
82.633361
 20
322.450461
 30
0.0
 40
1.375
  0
CIRCLE
  5
4E9
330
1F
100
AcDbEntity
  8
0
100
AcDbCircle
 10
82.633361
 20
345.450461
 30
0.0
 40
1.375
  0
CIRCLE
  5
4EA
330
1F
100
AcDbEntity
  8
0
100
AcDbCircle
 10
140.633361
 20
345.450461
 30
0.0
 40
1.375
  0
CIRCLE
  5
4EB
330
1F
100
AcDbEntity
  8
0
100
AcDbCircle
 10
140.633361
 20
322.450461
 30
0.0
 40
1.375
  0
CIRCLE
  5
504
330
1F
100
AcDbEntity
  8
0
100
AcDbCircle
 10
57.219147
 20
302.036247
 30
0.0
 40
1.1
  0
CIRCLE
  5
505
330
1F
100
AcDbEntity
  8
0
100
AcDbCircle
 10
57.219147
 20
365.864675
 30
0.0
 40
1.1
  0
CIRCLE
  5
506
330
1F
100
AcDbEntity
  8
0
100
AcDbCircle
 10
166.047574
 20
302.036247
 30
0.0
 40
1.1
  0
CIRCLE
  5
507
330
1F
100
AcDbEntity
  8
0
100
AcDbCircle
 10
166.047574
 20
365.864675
 30
0.0
 40
1.1
  0
LINE
  5
508
330
1F
100
AcDbEntity
  8
0
100
AcDbLine
 10
329.13126
 20
374.950461
 30
0.0
 11
217.13126
 21
374.950461
 31
0.0
  0
ARC
  5
509
330
1F
100
AcDbEntity
  8
0
100
AcDbCircle
 10
217.13126
 20
367.450461
 30
0.0
 40
7.499999999998622
100
AcDbArc
 50
90.0
 51
180.0
1001
MCSXDATA5
1071
      167
1004
06000000000000008B0000001C000000E404000000000000000000001F050A025C020509020FEE020C4D43535F46494C4C45545F3109020FEE020C4D43535F46494C4C45545F3209020FEE020C4D43535F46494C4C45545F3309020FEE020C4D43535F46494C4C45545F3409020FEE020C4D43535F46494C4C45545F351202
1004
2602050201030201030202020103020326020402010302012202010302010302010201030201221A
  0
LINE
  5
50A
330
1F
100
AcDbEntity
  8
0
100
AcDbLine
 10
209.63126
 20
300.450461
 30
0.0
 11
209.63126
 21
367.450461
 31
0.0
  0
ARC
  5
50B
330
1F
100
AcDbEntity
  8
0
100
AcDbCircle
 10
217.13126
 20
300.450461
 30
0.0
 40
7.499999999999318
100
AcDbArc
 50
180.0
 51
270.0
1001
MCSXDATA5
1071
      167
1004
06000000000000008B0000001C000000E404000000000000000000001F050A025C020509020FEE020C4D43535F46494C4C45545F3109020FEE020C4D43535F46494C4C45545F3209020FEE020C4D43535F46494C4C45545F3309020FEE020C4D43535F46494C4C45545F3409020FEE020C4D43535F46494C4C45545F351202
1004
2602050201030201030202020103020326020402010302012202010302010302010201030201221A
  0
LINE
  5
50C
330
1F
100
AcDbEntity
  8
0
100
AcDbLine
 10
217.13126
 20
292.950461
 30
0.0
 11
329.13126
 21
292.950461
 31
0.0
  0
ARC
  5
50D
330
1F
100
AcDbEntity
  8
0
100
AcDbCircle
 10
329.13126
 20
300.450461
 30
0.0
 40
7.500000000000405
100
AcDbArc
 50
270.0
 51
0.0
1001
MCSXDATA5
1071
      167
1004
06000000000000008B0000001C000000E404000000000000000000001F050A025C020509020FEE020C4D43535F46494C4C45545F3109020FEE020C4D43535F46494C4C45545F3209020FEE020C4D43535F46494C4C45545F3309020FEE020C4D43535F46494C4C45545F3409020FEE020C4D43535F46494C4C45545F351202
1004
2602050201030201030202020103020326020402010302012202010302010302010201030201221A
  0
LINE
  5
50E
330
1F
100
AcDbEntity
  8
0
100
AcDbLine
 10
336.63126
 20
300.450461
 30
0.0
 11
336.63126
 21
367.450461
 31
0.0
  0
ARC
  5
50F
330
1F
100
AcDbEntity
  8
0
100
AcDbCircle
 10
329.13126
 20
367.450461
 30
0.0
 40
7.500000000003922
100
AcDbArc
 50
0.0
 51
90.0
1001
MCSXDATA5
1071
      167
1004
06000000000000008B0000001C000000E404000000000000000000001F050A025C020509020FEE020C4D43535F46494C4C45545F3109020FEE020C4D43535F46494C4C45545F3209020FEE020C4D43535F46494C4C45545F3309020FEE020C4D43535F46494C4C45545F3409020FEE020C4D43535F46494C4C45545F351202
1004
2602050201030201030202020103020326020402010302012202010302010302010201030201221A
  0
CIRCLE
  5
52E
330
1F
100
AcDbEntity
  8
0
100
AcDbCircle
 10
218.717047
 20
302.036247
 30
0.0
 40
1.1
  0
CIRCLE
  5
52F
330
1F
100
AcDbEntity
  8
0
100
AcDbCircle
 10
218.717047
 20
365.864675
 30
0.0
 40
1.1
  0
CIRCLE
  5
530
330
1F
100
AcDbEntity
  8
0
100
AcDbCircle
 10
327.545474
 20
302.036247
 30
0.0
 40
1.1
  0
CIRCLE
  5
531
330
1F
100
AcDbEntity
  8
0
100
AcDbCircle
 10
327.545474
 20
365.864675
 30
0.0
 40
1.1
  0
CIRCLE
  5
53D
330
1F
100
AcDbEntity
  8
0
100
AcDbCircle
 10
238.13126
 20
314.200461
 30
0.0
 40
7.5
  0
CIRCLE
  5
53E
330
1F
100
AcDbEntity
  8
0
100
AcDbCircle
 10
261.38126
 20
314.200461
 30
0.0
 40
7.5
  0
CIRCLE
  5
53F
330
1F
100
AcDbEntity
  8
0
100
AcDbCircle
 10
284.88126
 20
314.200461
 30
0.0
 40
7.5
  0
CIRCLE
  5
540
330
1F
100
AcDbEntity
  8
0
100
AcDbCircle
 10
308.13126
 20
314.200461
 30
0.0
 40
7.5
  0
LINE
  5
721
330
1F
100
AcDbEntity
  8
0
100
AcDbLine
 10
21.549093
 20
37.252733
 30
0.0
 11
121.549093
 21
37.252733
 31
0.0
  0
LINE
  5
722
330
1F
100
AcDbEntity
  8
0
100
AcDbLine
 10
121.549093
 20
37.252733
 30
0.0
 11
121.549093
 21
92.252733
 31
0.0
  0
LINE
  5
723
330
1F
100
AcDbEntity
  8
0
100
AcDbLine
 10
21.549093
 20
37.252733
 30
0.0
 11
21.549093
 21
92.252733
 31
0.0
  0
LINE
  5
724
330
1F
100
AcDbEntity
  8
0
100
AcDbLine
 10
15.549093
 20
27.252733
 30
0.0
 11
127.549093
 21
27.252733
 31
0.0
  0
LINE
  5
725
330
1F
100
AcDbEntity
  8
0
100
AcDbLine
 10
11.549093
 20
31.252733
 30
0.0
 11
11.549093
 21
98.252733
 31
0.0
  0
LINE
  5
726
330
1F
100
AcDbEntity
  8
0
100
AcDbLine
 10
131.549093
 20
31.252733
 30
0.0
 11
131.549093
 21
98.252733
 31
0.0
  0
ARC
  5
727
330
1F
100
AcDbEntity
  8
0
100
AcDbCircle
 10
15.549093
 20
98.252733
 30
0.0
 40
3.999999999998622
100
AcDbArc
 50
90.0
 51
180.0
1001
MCSXDATA5
1071
      167
1004
06000000000000008B0000001C000000E404000000000000000000001F050A025C020509020FEE020C4D43535F46494C4C45545F3109020FEE020C4D43535F46494C4C45545F3209020FEE020C4D43535F46494C4C45545F3309020FEE020C4D43535F46494C4C45545F3409020FEE020C4D43535F46494C4C45545F351202
1004
2602050201030201030202020103020326020402010302012202010302010302010201030201221A
  0
ARC
  5
728
330
1F
100
AcDbEntity
  8
0
100
AcDbCircle
 10
127.549093
 20
98.252733
 30
0.0
 40
4.000000000003922
100
AcDbArc
 50
0.0
 51
90.0
1001
MCSXDATA5
1071
      167
1004
06000000000000008B0000001C000000E404000000000000000000001F050A025C020509020FEE020C4D43535F46494C4C45545F3109020FEE020C4D43535F46494C4C45545F3209020FEE020C4D43535F46494C4C45545F3309020FEE020C4D43535F46494C4C45545F3409020FEE020C4D43535F46494C4C45545F351202
1004
2602050201030201030202020103020326020402010302012202010302010302010201030201221A
  0
ARC
  5
729
330
1F
100
AcDbEntity
  8
0
100
AcDbCircle
 10
127.549093
 20
31.252733
 30
0.0
 40
4.000000000000405
100
AcDbArc
 50
270.0
 51
0.0
1001
MCSXDATA5
1071
      167
1004
06000000000000008B0000001C000000E404000000000000000000001F050A025C020509020FEE020C4D43535F46494C4C45545F3109020FEE020C4D43535F46494C4C45545F3209020FEE020C4D43535F46494C4C45545F3309020FEE020C4D43535F46494C4C45545F3409020FEE020C4D43535F46494C4C45545F351202
1004
2602050201030201030202020103020326020402010302012202010302010302010201030201221A
  0
ARC
  5
72A
330
1F
100
AcDbEntity
  8
0
100
AcDbCircle
 10
15.549093
 20
31.252733
 30
0.0
 40
3.999999999999318
100
AcDbArc
 50
180.0
 51
270.0
1001
MCSXDATA5
1071
      167
1004
06000000000000008B0000001C000000E404000000000000000000001F050A025C020509020FEE020C4D43535F46494C4C45545F3109020FEE020C4D43535F46494C4C45545F3209020FEE020C4D43535F46494C4C45545F3309020FEE020C4D43535F46494C4C45545F3409020FEE020C4D43535F46494C4C45545F351202
1004
2602050201030201030202020103020326020402010302012202010302010302010201030201221A
  0
ARC
  5
72B
330
1F
100
AcDbEntity
  8
0
100
AcDbCircle
 10
81.954768
 20
100.252733
 30
0.0
 40
2.000000000002075
100
AcDbArc
 50
0.0
 51
90.0
1001
MCSXDATA5
1071
      167
1004
06000000000000008B0000001C000000E404000000000000000000001F050A025C020509020FEE020C4D43535F46494C4C45545F3109020FEE020C4D43535F46494C4C45545F3209020FEE020C4D43535F46494C4C45545F3309020FEE020C4D43535F46494C4C45545F3409020FEE020C4D43535F46494C4C45545F351202
1004
2602050201030201030202020103020326020202010302012202010302010302010201030201221A
  0
ARC
  5
72C
330
1F
100
AcDbEntity
  8
0
100
AcDbCircle
 10
115.954768
 20
100.252733
 30
0.0
 40
1.999999999999446
100
AcDbArc
 50
90.0
 51
180.0
1001
MCSXDATA5
1071
      167
1004
06000000000000008B0000001C000000E404000000000000000000001F050A025C020509020FEE020C4D43535F46494C4C45545F3109020FEE020C4D43535F46494C4C45545F3209020FEE020C4D43535F46494C4C45545F3309020FEE020C4D43535F46494C4C45545F3409020FEE020C4D43535F46494C4C45545F351202
1004
2602050201030201030202020103020326020202010302012202010302010302010201030201221A
  0
LINE
  5
72D
330
1F
100
AcDbEntity
  8
0
100
AcDbLine
 10
80.954768
 20
95.252733
 30
0.0
 11
80.954768
 21
98.302733
 31
0.0
  0
LINE
  5
72E
330
1F
100
AcDbEntity
  8
0
100
AcDbLine
 10
83.954768
 20
92.252733
 30
0.0
 11
83.954768
 21
95.252733
 31
0.0
  0
LINE
  5
72F
330
1F
100
AcDbEntity
  8
0
100
AcDbLine
 10
83.954768
 20
98.302733
 30
0.0
 11
83.954768
 21
100.252733
 31
0.0
  0
LINE
  5
730
330
1F
100
AcDbEntity
  8
0
100
AcDbLine
 10
83.954768
 20
98.302733
 30
0.0
 11
80.954768
 21
98.302733
 31
0.0
  0
LINE
  5
731
330
1F
100
AcDbEntity
  8
0
100
AcDbLine
 10
83.954768
 20
95.252733
 30
0.0
 11
80.954768
 21
95.252733
 31
0.0
  0
LINE
  5
732
330
1F
100
AcDbEntity
  8
0
100
AcDbLine
 10
113.954768
 20
92.252733
 30
0.0
 11
113.954768
 21
95.252733
 31
0.0
  0
LINE
  5
733
330
1F
100
AcDbEntity
  8
0
100
AcDbLine
 10
113.954768
 20
98.302733
 30
0.0
 11
113.954768
 21
100.252733
 31
0.0
  0
LINE
  5
734
330
1F
100
AcDbEntity
  8
0
100
AcDbLine
 10
116.954768
 20
98.302733
 30
0.0
 11
113.954768
 21
98.302733
 31
0.0
  0
LINE
  5
735
330
1F
100
AcDbEntity
  8
0
100
AcDbLine
 10
116.954768
 20
95.252733
 30
0.0
 11
113.954768
 21
95.252733
 31
0.0
  0
LINE
  5
736
330
1F
100
AcDbEntity
  8
0
100
AcDbLine
 10
116.954768
 20
95.252733
 30
0.0
 11
116.954768
 21
98.302733
 31
0.0
  0
CIRCLE
  5
737
330
1F
100
AcDbEntity
  8
0
100
AcDbCircle
 10
17.134879
 20
32.83852
 30
0.0
 40
1.1
  0
CIRCLE
  5
738
330
1F
100
AcDbEntity
  8
0
100
AcDbCircle
 10
17.134879
 20
96.666947
 30
0.0
 40
1.1
  0
CIRCLE
  5
739
330
1F
100
AcDbEntity
  8
0
100
AcDbCircle
 10
125.963306
 20
32.83852
 30
0.0
 40
1.1
  0
CIRCLE
  5
73A
330
1F
100
AcDbEntity
  8
0
100
AcDbCircle
 10
125.963306
 20
96.666947
 30
0.0
 40
1.1
  0
LINE
  5
73B
330
1F
100
AcDbEntity
  8
0
100
AcDbLine
 10
21.549093
 20
92.252733
 30
0.0
 11
83.954768
 21
92.252733
 31
0.0
  0
LINE
  5
73C
330
1F
100
AcDbEntity
  8
0
100
AcDbLine
 10
81.954768
 20
102.252733
 30
0.0
 11
15.549093
 21
102.252733
 31
0.0
  0
LINE
  5
73D
330
1F
100
AcDbEntity
  8
0
100
AcDbLine
 10
113.954768
 20
92.252733
 30
0.0
 11
121.549093
 21
92.252733
 31
0.0
  0
LINE
  5
73E
330
1F
100
AcDbEntity
  8
0
100
AcDbLine
 10
115.954768
 20
102.252733
 30
0.0
 11
127.549093
 21
102.252733
 31
0.0
  0
LINE
  5
73F
330
1F
100
AcDbEntity
  8
0
100
AcDbLine
 10
210.961269
 20
117.231458
 30
0.0
 11
110.961269
 21
117.231458
 31
0.0
  0
LINE
  5
740
330
1F
100
AcDbEntity
  8
0
100
AcDbLine
 10
110.961269
 20
117.231458
 30
0.0
 11
110.961269
 21
62.231458
 31
0.0
  0
LINE
  5
741
330
1F
100
AcDbEntity
  8
0
100
AcDbLine
 10
210.961269
 20
117.231458
 30
0.0
 11
210.961269
 21
62.231458
 31
0.0
  0
LINE
  5
742
330
1F
100
AcDbEntity
  8
0
100
AcDbLine
 10
151.555593
 20
59.231458
 30
0.0
 11
151.555593
 21
56.181458
 31
0.0
  0
LINE
  5
743
330
1F
100
AcDbEntity
  8
0
100
AcDbLine
 10
148.555593
 20
62.231458
 30
0.0
 11
148.555593
 21
59.231458
 31
0.0
  0
LINE
  5
744
330
1F
100
AcDbEntity
  8
0
100
AcDbLine
 10
148.555593
 20
56.181458
 30
0.0
 11
148.555593
 21
50.731458
 31
0.0
  0
LINE
  5
745
330
1F
100
AcDbEntity
  8
0
100
AcDbLine
 10
148.555593
 20
56.181458
 30
0.0
 11
151.555593
 21
56.181458
 31
0.0
  0
LINE
  5
746
330
1F
100
AcDbEntity
  8
0
100
AcDbLine
 10
148.555593
 20
59.231458
 30
0.0
 11
151.555593
 21
59.231458
 31
0.0
  0
LINE
  5
747
330
1F
100
AcDbEntity
  8
0
100
AcDbLine
 10
118.555593
 20
62.231458
 30
0.0
 11
118.555593
 21
59.231458
 31
0.0
  0
LINE
  5
748
330
1F
100
AcDbEntity
  8
0
100
AcDbLine
 10
118.555593
 20
56.181458
 30
0.0
 11
118.555593
 21
50.731458
 31
0.0
  0
LINE
  5
749
330
1F
100
AcDbEntity
  8
0
100
AcDbLine
 10
115.555593
 20
56.181458
 30
0.0
 11
118.555593
 21
56.181458
 31
0.0
  0
LINE
  5
74A
330
1F
100
AcDbEntity
  8
0
100
AcDbLine
 10
115.555593
 20
59.231458
 30
0.0
 11
118.555593
 21
59.231458
 31
0.0
  0
LINE
  5
74B
330
1F
100
AcDbEntity
  8
0
100
AcDbLine
 10
115.555593
 20
59.231458
 30
0.0
 11
115.555593
 21
56.181458
 31
0.0
  0
ARC
  5
74C
330
1F
100
AcDbEntity
  8
0
100
AcDbCircle
 10
216.961269
 20
56.231458
 30
0.0
 40
7.499999999998622
100
AcDbArc
 50
270.0
 51
0.0
1001
MCSXDATA5
1071
      167
1004
06000000000000008B0000001C000000E404000000000000000000001F050A025C020509020FEE020C4D43535F46494C4C45545F3109020FEE020C4D43535F46494C4C45545F3209020FEE020C4D43535F46494C4C45545F3309020FEE020C4D43535F46494C4C45545F3409020FEE020C4D43535F46494C4C45545F351202
1004
2602050201030201030202020103020326020402010302012202010302010302010201030201221A
  0
LINE
  5
74D
330
1F
100
AcDbEntity
  8
0
100
AcDbLine
 10
224.461269
 20
123.231458
 30
0.0
 11
224.461269
 21
56.231458
 31
0.0
  0
ARC
  5
74E
330
1F
100
AcDbEntity
  8
0
100
AcDbCircle
 10
216.961269
 20
123.231458
 30
0.0
 40
7.499999999999318
100
AcDbArc
 50
0.0
 51
90.0
1001
MCSXDATA5
1071
      167
1004
06000000000000008B0000001C000000E404000000000000000000001F050A025C020509020FEE020C4D43535F46494C4C45545F3109020FEE020C4D43535F46494C4C45545F3209020FEE020C4D43535F46494C4C45545F3309020FEE020C4D43535F46494C4C45545F3409020FEE020C4D43535F46494C4C45545F351202
1004
2602050201030201030202020103020326020402010302012202010302010302010201030201221A
  0
LINE
  5
74F
330
1F
100
AcDbEntity
  8
0
100
AcDbLine
 10
216.961269
 20
130.731458
 30
0.0
 11
104.961269
 21
130.731458
 31
0.0
  0
ARC
  5
750
330
1F
100
AcDbEntity
  8
0
100
AcDbCircle
 10
104.961269
 20
123.231458
 30
0.0
 40
7.500000000000405
100
AcDbArc
 50
90.0
 51
180.0
1001
MCSXDATA5
1071
      167
1004
06000000000000008B0000001C000000E404000000000000000000001F050A025C020509020FEE020C4D43535F46494C4C45545F3109020FEE020C4D43535F46494C4C45545F3209020FEE020C4D43535F46494C4C45545F3309020FEE020C4D43535F46494C4C45545F3409020FEE020C4D43535F46494C4C45545F351202
1004
2602050201030201030202020103020326020402010302012202010302010302010201030201221A
  0
LINE
  5
751
330
1F
100
AcDbEntity
  8
0
100
AcDbLine
 10
97.461269
 20
123.231458
 30
0.0
 11
97.461269
 21
56.231458
 31
0.0
  0
ARC
  5
752
330
1F
100
AcDbEntity
  8
0
100
AcDbCircle
 10
104.961269
 20
56.231458
 30
0.0
 40
7.500000000003922
100
AcDbArc
 50
180.0
 51
270.0
1001
MCSXDATA5
1071
      167
1004
06000000000000008B0000001C000000E404000000000000000000001F050A025C020509020FEE020C4D43535F46494C4C45545F3109020FEE020C4D43535F46494C4C45545F3209020FEE020C4D43535F46494C4C45545F3309020FEE020C4D43535F46494C4C45545F3409020FEE020C4D43535F46494C4C45545F351202
1004
2602050201030201030202020103020326020402010302012202010302010302010201030201221A
  0
ARC
  5
753
330
1F
100
AcDbEntity
  8
0
100
AcDbCircle
 10
150.555593
 20
50.731458
 30
0.0
 40
2.000000000012818
100
AcDbArc
 50
180.0
 51
270.0
1001
MCSXDATA5
1071
      167
1004
06000000000000008B0000001C000000E404000000000000000000001F050A025C020509020FEE020C4D43535F46494C4C45545F3109020FEE020C4D43535F46494C4C45545F3209020FEE020C4D43535F46494C4C45545F3309020FEE020C4D43535F46494C4C45545F3409020FEE020C4D43535F46494C4C45545F351202
1004
2602050201030201030202020103020326020202010302012202010302010302010201030201221A
  0
ARC
  5
754
330
1F
100
AcDbEntity
  8
0
100
AcDbCircle
 10
116.555593
 20
50.731458
 30
0.0
 40
2.00000000000054
100
AcDbArc
 50
270.0
 51
0.0
1001
MCSXDATA5
1071
      167
1004
06000000000000008B0000001C000000E404000000000000000000001F050A025C020509020FEE020C4D43535F46494C4C45545F3109020FEE020C4D43535F46494C4C45545F3209020FEE020C4D43535F46494C4C45545F3309020FEE020C4D43535F46494C4C45545F3409020FEE020C4D43535F46494C4C45545F351202
1004
2602050201030201030202020103020326020202010302012202010302010302010201030201221A
  0
CIRCLE
  5
755
330
1F
100
AcDbEntity
  8
0
100
AcDbCircle
 10
215.375482
 20
121.645672
 30
0.0
 40
1.1
  0
CIRCLE
  5
756
330
1F
100
AcDbEntity
  8
0
100
AcDbCircle
 10
215.375482
 20
57.817245
 30
0.0
 40
1.1
  0
CIRCLE
  5
757
330
1F
100
AcDbEntity
  8
0
100
AcDbCircle
 10
106.547055
 20
121.645672
 30
0.0
 40
1.1
  0
CIRCLE
  5
758
330
1F
100
AcDbEntity
  8
0
100
AcDbCircle
 10
106.547055
 20
57.817245
 30
0.0
 40
1.1
  0
LINE
  5
759
330
1F
100
AcDbEntity
  8
0
100
AcDbLine
 10
118.555593
 20
62.231458
 30
0.0
 11
110.961269
 21
62.231458
 31
0.0
  0
LINE
  5
75A
330
1F
100
AcDbEntity
  8
0
100
AcDbLine
 10
116.555593
 20
48.731458
 30
0.0
 11
104.961269
 21
48.731458
 31
0.0
  0
LINE
  5
75B
330
1F
100
AcDbEntity
  8
0
100
AcDbLine
 10
216.961269
 20
48.731458
 30
0.0
 11
150.555593
 21
48.731458
 31
0.0
  0
LINE
  5
75C
330
1F
100
AcDbEntity
  8
0
100
AcDbLine
 10
148.555593
 20
62.231458
 30
0.0
 11
210.961269
 21
62.231458
 31
0.0
  0
LINE
  5
79D
330
1F
100
AcDbEntity
  8
0
100
AcDbLine
 10
28.463454
 20
52.24975
 30
0.0
 11
64.363454
 21
52.24975
 31
0.0
  0
LINE
  5
79E
330
1F
100
AcDbEntity
  8
0
100
AcDbLine
 10
28.463454
 20
52.24975
 30
0.0
 11
28.463454
 21
79.14975
 31
0.0
  0
LINE
  5
79F
330
1F
100
AcDbEntity
  8
0
100
AcDbLine
 10
64.363454
 20
52.24975
 30
0.0
 11
64.363454
 21
79.14975
 31
0.0
  0
LINE
  5
7A0
330
1F
100
AcDbEntity
  8
0
100
AcDbLine
 10
28.463454
 20
79.14975
 30
0.0
 11
64.363454
 21
79.14975
 31
0.0
  0
LINE
  5
E0E
330
1F
100
AcDbEntity
  8
0
100
AcDbLine
 10
21.549093
 20
157.535159
 30
0.0
 11
121.549093
 21
157.535159
 31
0.0
  0
LINE
  5
E0F
330
1F
100
AcDbEntity
  8
0
100
AcDbLine
 10
121.549093
 20
157.535159
 30
0.0
 11
121.549093
 21
212.535159
 31
0.0
  0
LINE
  5
E10
330
1F
100
AcDbEntity
  8
0
100
AcDbLine
 10
21.549093
 20
157.535159
 30
0.0
 11
21.549093
 21
212.535159
 31
0.0
  0
LINE
  5
E11
330
1F
100
AcDbEntity
  8
0
100
AcDbLine
 10
15.549093
 20
147.535159
 30
0.0
 11
127.549093
 21
147.535159
 31
0.0
  0
LINE
  5
E12
330
1F
100
AcDbEntity
  8
0
100
AcDbLine
 10
11.549093
 20
151.535159
 30
0.0
 11
11.549093
 21
218.535159
 31
0.0
  0
LINE
  5
E13
330
1F
100
AcDbEntity
  8
0
100
AcDbLine
 10
131.549093
 20
151.535159
 30
0.0
 11
131.549093
 21
218.535159
 31
0.0
  0
ARC
  5
E14
330
1F
100
AcDbEntity
  8
0
100
AcDbCircle
 10
15.549093
 20
218.535159
 30
0.0
 40
3.999999999998622
100
AcDbArc
 50
90.0
 51
180.0
1001
MCSXDATA5
1071
      167
1004
06000000000000008B0000001C000000E404000000000000000000001F050A025C020509020FEE020C4D43535F46494C4C45545F3109020FEE020C4D43535F46494C4C45545F3209020FEE020C4D43535F46494C4C45545F3309020FEE020C4D43535F46494C4C45545F3409020FEE020C4D43535F46494C4C45545F351202
1004
2602050201030201030202020103020326020402010302012202010302010302010201030201221A
  0
ARC
  5
E15
330
1F
100
AcDbEntity
  8
0
100
AcDbCircle
 10
127.549093
 20
218.535159
 30
0.0
 40
4.000000000003922
100
AcDbArc
 50
0.0
 51
90.0
1001
MCSXDATA5
1071
      167
1004
06000000000000008B0000001C000000E404000000000000000000001F050A025C020509020FEE020C4D43535F46494C4C45545F3109020FEE020C4D43535F46494C4C45545F3209020FEE020C4D43535F46494C4C45545F3309020FEE020C4D43535F46494C4C45545F3409020FEE020C4D43535F46494C4C45545F351202
1004
2602050201030201030202020103020326020402010302012202010302010302010201030201221A
  0
ARC
  5
E16
330
1F
100
AcDbEntity
  8
0
100
AcDbCircle
 10
127.549093
 20
151.535159
 30
0.0
 40
4.000000000000405
100
AcDbArc
 50
270.0
 51
0.0
1001
MCSXDATA5
1071
      167
1004
06000000000000008B0000001C000000E404000000000000000000001F050A025C020509020FEE020C4D43535F46494C4C45545F3109020FEE020C4D43535F46494C4C45545F3209020FEE020C4D43535F46494C4C45545F3309020FEE020C4D43535F46494C4C45545F3409020FEE020C4D43535F46494C4C45545F351202
1004
2602050201030201030202020103020326020402010302012202010302010302010201030201221A
  0
ARC
  5
E17
330
1F
100
AcDbEntity
  8
0
100
AcDbCircle
 10
15.549093
 20
151.535159
 30
0.0
 40
3.999999999999318
100
AcDbArc
 50
180.0
 51
270.0
1001
MCSXDATA5
1071
      167
1004
06000000000000008B0000001C000000E404000000000000000000001F050A025C020509020FEE020C4D43535F46494C4C45545F3109020FEE020C4D43535F46494C4C45545F3209020FEE020C4D43535F46494C4C45545F3309020FEE020C4D43535F46494C4C45545F3409020FEE020C4D43535F46494C4C45545F351202
1004
2602050201030201030202020103020326020402010302012202010302010302010201030201221A
  0
ARC
  5
E18
330
1F
100
AcDbEntity
  8
0
100
AcDbCircle
 10
81.954768
 20
220.535159
 30
0.0
 40
2.000000000002075
100
AcDbArc
 50
0.0
 51
90.0
1001
MCSXDATA5
1071
      167
1004
06000000000000008B0000001C000000E404000000000000000000001F050A025C020509020FEE020C4D43535F46494C4C45545F3109020FEE020C4D43535F46494C4C45545F3209020FEE020C4D43535F46494C4C45545F3309020FEE020C4D43535F46494C4C45545F3409020FEE020C4D43535F46494C4C45545F351202
1004
2602050201030201030202020103020326020202010302012202010302010302010201030201221A
  0
ARC
  5
E19
330
1F
100
AcDbEntity
  8
0
100
AcDbCircle
 10
115.954768
 20
220.535159
 30
0.0
 40
1.999999999999446
100
AcDbArc
 50
90.0
 51
180.0
1001
MCSXDATA5
1071
      167
1004
06000000000000008B0000001C000000E404000000000000000000001F050A025C020509020FEE020C4D43535F46494C4C45545F3109020FEE020C4D43535F46494C4C45545F3209020FEE020C4D43535F46494C4C45545F3309020FEE020C4D43535F46494C4C45545F3409020FEE020C4D43535F46494C4C45545F351202
1004
2602050201030201030202020103020326020202010302012202010302010302010201030201221A
  0
LINE
  5
E1A
330
1F
100
AcDbEntity
  8
0
100
AcDbLine
 10
80.954768
 20
215.535159
 30
0.0
 11
80.954768
 21
218.585159
 31
0.0
  0
LINE
  5
E1B
330
1F
100
AcDbEntity
  8
0
100
AcDbLine
 10
83.954768
 20
212.535159
 30
0.0
 11
83.954768
 21
215.535159
 31
0.0
  0
LINE
  5
E1C
330
1F
100
AcDbEntity
  8
0
100
AcDbLine
 10
83.954768
 20
218.585159
 30
0.0
 11
83.954768
 21
220.535159
 31
0.0
  0
LINE
  5
E1D
330
1F
100
AcDbEntity
  8
0
100
AcDbLine
 10
83.954768
 20
218.585159
 30
0.0
 11
80.954768
 21
218.585159
 31
0.0
  0
LINE
  5
E1E
330
1F
100
AcDbEntity
  8
0
100
AcDbLine
 10
83.954768
 20
215.535159
 30
0.0
 11
80.954768
 21
215.535159
 31
0.0
  0
LINE
  5
E1F
330
1F
100
AcDbEntity
  8
0
100
AcDbLine
 10
113.954768
 20
212.535159
 30
0.0
 11
113.954768
 21
215.535159
 31
0.0
  0
LINE
  5
E20
330
1F
100
AcDbEntity
  8
0
100
AcDbLine
 10
113.954768
 20
218.585159
 30
0.0
 11
113.954768
 21
220.535159
 31
0.0
  0
LINE
  5
E21
330
1F
100
AcDbEntity
  8
0
100
AcDbLine
 10
116.954768
 20
218.585159
 30
0.0
 11
113.954768
 21
218.585159
 31
0.0
  0
LINE
  5
E22
330
1F
100
AcDbEntity
  8
0
100
AcDbLine
 10
116.954768
 20
215.535159
 30
0.0
 11
113.954768
 21
215.535159
 31
0.0
  0
LINE
  5
E23
330
1F
100
AcDbEntity
  8
0
100
AcDbLine
 10
116.954768
 20
215.535159
 30
0.0
 11
116.954768
 21
218.585159
 31
0.0
  0
CIRCLE
  5
E24
330
1F
100
AcDbEntity
  8
0
100
AcDbCircle
 10
17.134879
 20
153.120946
 30
0.0
 40
1.1
  0
CIRCLE
  5
E25
330
1F
100
AcDbEntity
  8
0
100
AcDbCircle
 10
17.134879
 20
216.949373
 30
0.0
 40
1.1
  0
CIRCLE
  5
E26
330
1F
100
AcDbEntity
  8
0
100
AcDbCircle
 10
125.963306
 20
153.120946
 30
0.0
 40
1.1
  0
CIRCLE
  5
E27
330
1F
100
AcDbEntity
  8
0
100
AcDbCircle
 10
125.963306
 20
216.949373
 30
0.0
 40
1.1
  0
LINE
  5
E28
330
1F
100
AcDbEntity
  8
0
100
AcDbLine
 10
21.549093
 20
212.535159
 30
0.0
 11
83.954768
 21
212.535159
 31
0.0
  0
LINE
  5
E29
330
1F
100
AcDbEntity
  8
0
100
AcDbLine
 10
81.954768
 20
222.535159
 30
0.0
 11
15.549093
 21
222.535159
 31
0.0
  0
LINE
  5
E2A
330
1F
100
AcDbEntity
  8
0
100
AcDbLine
 10
113.954768
 20
212.535159
 30
0.0
 11
121.549093
 21
212.535159
 31
0.0
  0
LINE
  5
E2B
330
1F
100
AcDbEntity
  8
0
100
AcDbLine
 10
115.954768
 20
222.535159
 30
0.0
 11
127.549093
 21
222.535159
 31
0.0
  0
LINE
  5
E2C
330
1F
100
AcDbEntity
  8
0
100
AcDbLine
 10
210.961269
 20
237.513884
 30
0.0
 11
110.961269
 21
237.513884
 31
0.0
  0
LINE
  5
E2D
330
1F
100
AcDbEntity
  8
0
100
AcDbLine
 10
110.961269
 20
237.513884
 30
0.0
 11
110.961269
 21
182.513884
 31
0.0
  0
LINE
  5
E2E
330
1F
100
AcDbEntity
  8
0
100
AcDbLine
 10
210.961269
 20
237.513884
 30
0.0
 11
210.961269
 21
182.513884
 31
0.0
  0
LINE
  5
E2F
330
1F
100
AcDbEntity
  8
0
100
AcDbLine
 10
151.555593
 20
179.513884
 30
0.0
 11
151.555593
 21
176.463884
 31
0.0
  0
LINE
  5
E30
330
1F
100
AcDbEntity
  8
0
100
AcDbLine
 10
148.555593
 20
182.513884
 30
0.0
 11
148.555593
 21
179.513884
 31
0.0
  0
LINE
  5
E31
330
1F
100
AcDbEntity
  8
0
100
AcDbLine
 10
148.555593
 20
176.463884
 30
0.0
 11
148.555593
 21
171.013884
 31
0.0
  0
LINE
  5
E32
330
1F
100
AcDbEntity
  8
0
100
AcDbLine
 10
148.555593
 20
176.463884
 30
0.0
 11
151.555593
 21
176.463884
 31
0.0
  0
LINE
  5
E33
330
1F
100
AcDbEntity
  8
0
100
AcDbLine
 10
148.555593
 20
179.513884
 30
0.0
 11
151.555593
 21
179.513884
 31
0.0
  0
LINE
  5
E34
330
1F
100
AcDbEntity
  8
0
100
AcDbLine
 10
118.555593
 20
182.513884
 30
0.0
 11
118.555593
 21
179.513884
 31
0.0
  0
LINE
  5
E35
330
1F
100
AcDbEntity
  8
0
100
AcDbLine
 10
118.555593
 20
176.463884
 30
0.0
 11
118.555593
 21
171.013884
 31
0.0
  0
LINE
  5
E36
330
1F
100
AcDbEntity
  8
0
100
AcDbLine
 10
115.555593
 20
176.463884
 30
0.0
 11
118.555593
 21
176.463884
 31
0.0
  0
LINE
  5
E37
330
1F
100
AcDbEntity
  8
0
100
AcDbLine
 10
115.555593
 20
179.513884
 30
0.0
 11
118.555593
 21
179.513884
 31
0.0
  0
LINE
  5
E38
330
1F
100
AcDbEntity
  8
0
100
AcDbLine
 10
115.555593
 20
179.513884
 30
0.0
 11
115.555593
 21
176.463884
 31
0.0
  0
ARC
  5
E39
330
1F
100
AcDbEntity
  8
0
100
AcDbCircle
 10
216.961269
 20
176.513884
 30
0.0
 40
7.499999999998622
100
AcDbArc
 50
270.0
 51
0.0
1001
MCSXDATA5
1071
      167
1004
06000000000000008B0000001C000000E404000000000000000000001F050A025C020509020FEE020C4D43535F46494C4C45545F3109020FEE020C4D43535F46494C4C45545F3209020FEE020C4D43535F46494C4C45545F3309020FEE020C4D43535F46494C4C45545F3409020FEE020C4D43535F46494C4C45545F351202
1004
2602050201030201030202020103020326020402010302012202010302010302010201030201221A
  0
LINE
  5
E3A
330
1F
100
AcDbEntity
  8
0
100
AcDbLine
 10
224.461269
 20
243.513884
 30
0.0
 11
224.461269
 21
176.513884
 31
0.0
  0
ARC
  5
E3B
330
1F
100
AcDbEntity
  8
0
100
AcDbCircle
 10
216.961269
 20
243.513884
 30
0.0
 40
7.499999999999318
100
AcDbArc
 50
0.0
 51
90.0
1001
MCSXDATA5
1071
      167
1004
06000000000000008B0000001C000000E404000000000000000000001F050A025C020509020FEE020C4D43535F46494C4C45545F3109020FEE020C4D43535F46494C4C45545F3209020FEE020C4D43535F46494C4C45545F3309020FEE020C4D43535F46494C4C45545F3409020FEE020C4D43535F46494C4C45545F351202
1004
2602050201030201030202020103020326020402010302012202010302010302010201030201221A
  0
LINE
  5
E3C
330
1F
100
AcDbEntity
  8
0
100
AcDbLine
 10
216.961269
 20
251.013884
 30
0.0
 11
104.961269
 21
251.013884
 31
0.0
  0
ARC
  5
E3D
330
1F
100
AcDbEntity
  8
0
100
AcDbCircle
 10
104.961269
 20
243.513884
 30
0.0
 40
7.500000000000405
100
AcDbArc
 50
90.0
 51
180.0
1001
MCSXDATA5
1071
      167
1004
06000000000000008B0000001C000000E404000000000000000000001F050A025C020509020FEE020C4D43535F46494C4C45545F3109020FEE020C4D43535F46494C4C45545F3209020FEE020C4D43535F46494C4C45545F3309020FEE020C4D43535F46494C4C45545F3409020FEE020C4D43535F46494C4C45545F351202
1004
2602050201030201030202020103020326020402010302012202010302010302010201030201221A
  0
LINE
  5
E3E
330
1F
100
AcDbEntity
  8
0
100
AcDbLine
 10
97.461269
 20
243.513884
 30
0.0
 11
97.461269
 21
176.513884
 31
0.0
  0
ARC
  5
E3F
330
1F
100
AcDbEntity
  8
0
100
AcDbCircle
 10
104.961269
 20
176.513884
 30
0.0
 40
7.500000000003922
100
AcDbArc
 50
180.0
 51
270.0
1001
MCSXDATA5
1071
      167
1004
06000000000000008B0000001C000000E404000000000000000000001F050A025C020509020FEE020C4D43535F46494C4C45545F3109020FEE020C4D43535F46494C4C45545F3209020FEE020C4D43535F46494C4C45545F3309020FEE020C4D43535F46494C4C45545F3409020FEE020C4D43535F46494C4C45545F351202
1004
2602050201030201030202020103020326020402010302012202010302010302010201030201221A
  0
ARC
  5
E40
330
1F
100
AcDbEntity
  8
0
100
AcDbCircle
 10
150.555593
 20
171.013884
 30
0.0
 40
2.000000000012818
100
AcDbArc
 50
180.0
 51
270.0
1001
MCSXDATA5
1071
      167
1004
06000000000000008B0000001C000000E404000000000000000000001F050A025C020509020FEE020C4D43535F46494C4C45545F3109020FEE020C4D43535F46494C4C45545F3209020FEE020C4D43535F46494C4C45545F3309020FEE020C4D43535F46494C4C45545F3409020FEE020C4D43535F46494C4C45545F351202
1004
2602050201030201030202020103020326020202010302012202010302010302010201030201221A
  0
ARC
  5
E41
330
1F
100
AcDbEntity
  8
0
100
AcDbCircle
 10
116.555593
 20
171.013884
 30
0.0
 40
2.00000000000054
100
AcDbArc
 50
270.0
 51
0.0
1001
MCSXDATA5
1071
      167
1004
06000000000000008B0000001C000000E404000000000000000000001F050A025C020509020FEE020C4D43535F46494C4C45545F3109020FEE020C4D43535F46494C4C45545F3209020FEE020C4D43535F46494C4C45545F3309020FEE020C4D43535F46494C4C45545F3409020FEE020C4D43535F46494C4C45545F351202
1004
2602050201030201030202020103020326020202010302012202010302010302010201030201221A
  0
CIRCLE
  5
E42
330
1F
100
AcDbEntity
  8
0
100
AcDbCircle
 10
215.375482
 20
241.928098
 30
0.0
 40
1.1
  0
CIRCLE
  5
E43
330
1F
100
AcDbEntity
  8
0
100
AcDbCircle
 10
215.375482
 20
178.099671
 30
0.0
 40
1.1
  0
CIRCLE
  5
E44
330
1F
100
AcDbEntity
  8
0
100
AcDbCircle
 10
106.547055
 20
241.928098
 30
0.0
 40
1.1
  0
CIRCLE
  5
E45
330
1F
100
AcDbEntity
  8
0
100
AcDbCircle
 10
106.547055
 20
178.099671
 30
0.0
 40
1.1
  0
LINE
  5
E46
330
1F
100
AcDbEntity
  8
0
100
AcDbLine
 10
118.555593
 20
182.513884
 30
0.0
 11
110.961269
 21
182.513884
 31
0.0
  0
LINE
  5
E47
330
1F
100
AcDbEntity
  8
0
100
AcDbLine
 10
116.555593
 20
169.013884
 30
0.0
 11
104.961269
 21
169.013884
 31
0.0
  0
LINE
  5
E48
330
1F
100
AcDbEntity
  8
0
100
AcDbLine
 10
216.961269
 20
169.013884
 30
0.0
 11
150.555593
 21
169.013884
 31
0.0
  0
LINE
  5
E49
330
1F
100
AcDbEntity
  8
0
100
AcDbLine
 10
148.555593
 20
182.513884
 30
0.0
 11
210.961269
 21
182.513884
 31
0.0
  0
LINE
  5
E4A
330
1F
100
AcDbEntity
  8
0
100
AcDbLine
 10
28.463454
 20
172.532176
 30
0.0
 11
64.363454
 21
172.532176
 31
0.0
  0
LINE
  5
E4B
330
1F
100
AcDbEntity
  8
0
100
AcDbLine
 10
28.463454
 20
172.532176
 30
0.0
 11
28.463454
 21
199.432176
 31
0.0
  0
LINE
  5
E4C
330
1F
100
AcDbEntity
  8
0
100
AcDbLine
 10
64.363454
 20
172.532176
 30
0.0
 11
64.363454
 21
199.432176
 31
0.0
  0
LINE
  5
E4D
330
1F
100
AcDbEntity
  8
0
100
AcDbLine
 10
28.463454
 20
199.432176
 30
0.0
 11
64.363454
 21
199.432176
 31
0.0
  0
LINE
  5
E8E
330
1F
100
AcDbEntity
  8
0
100
AcDbLine
 10
354.009491
 20
48.614487
 30
0.0
 11
354.009491
 21
148.614487
 31
0.0
  0
LINE
  5
E8F
330
1F
100
AcDbEntity
  8
0
100
AcDbLine
 10
354.009491
 20
148.614487
 30
0.0
 11
299.009491
 21
148.614487
 31
0.0
  0
LINE
  5
E90
330
1F
100
AcDbEntity
  8
0
100
AcDbLine
 10
354.009491
 20
48.614487
 30
0.0
 11
299.009491
 21
48.614487
 31
0.0
  0
LINE
  5
E91
330
1F
100
AcDbEntity
  8
0
100
AcDbLine
 10
364.009491
 20
42.614487
 30
0.0
 11
364.009491
 21
154.614487
 31
0.0
  0
LINE
  5
E92
330
1F
100
AcDbEntity
  8
0
100
AcDbLine
 10
360.009491
 20
38.614487
 30
0.0
 11
293.009491
 21
38.614487
 31
0.0
  0
LINE
  5
E93
330
1F
100
AcDbEntity
  8
0
100
AcDbLine
 10
360.009491
 20
158.614487
 30
0.0
 11
293.009491
 21
158.614487
 31
0.0
  0
ARC
  5
E94
330
1F
100
AcDbEntity
  8
0
100
AcDbCircle
 10
293.009491
 20
42.614487
 30
0.0
 40
3.999999999998622
100
AcDbArc
 50
180.0
 51
270.0
1001
MCSXDATA5
1071
      167
1004
06000000000000008B0000001C000000E404000000000000000000001F050A025C020509020FEE020C4D43535F46494C4C45545F3109020FEE020C4D43535F46494C4C45545F3209020FEE020C4D43535F46494C4C45545F3309020FEE020C4D43535F46494C4C45545F3409020FEE020C4D43535F46494C4C45545F351202
1004
2602050201030201030202020103020326020402010302012202010302010302010201030201221A
  0
ARC
  5
E95
330
1F
100
AcDbEntity
  8
0
100
AcDbCircle
 10
293.009491
 20
154.614487
 30
0.0
 40
4.000000000003922
100
AcDbArc
 50
90.0
 51
180.0
1001
MCSXDATA5
1071
      167
1004
06000000000000008B0000001C000000E404000000000000000000001F050A025C020509020FEE020C4D43535F46494C4C45545F3109020FEE020C4D43535F46494C4C45545F3209020FEE020C4D43535F46494C4C45545F3309020FEE020C4D43535F46494C4C45545F3409020FEE020C4D43535F46494C4C45545F351202
1004
2602050201030201030202020103020326020402010302012202010302010302010201030201221A
  0
ARC
  5
E96
330
1F
100
AcDbEntity
  8
0
100
AcDbCircle
 10
360.009491
 20
154.614487
 30
0.0
 40
4.000000000000405
100
AcDbArc
 50
0.0
 51
90.0
1001
MCSXDATA5
1071
      167
1004
06000000000000008B0000001C000000E404000000000000000000001F050A025C020509020FEE020C4D43535F46494C4C45545F3109020FEE020C4D43535F46494C4C45545F3209020FEE020C4D43535F46494C4C45545F3309020FEE020C4D43535F46494C4C45545F3409020FEE020C4D43535F46494C4C45545F351202
1004
2602050201030201030202020103020326020402010302012202010302010302010201030201221A
  0
ARC
  5
E97
330
1F
100
AcDbEntity
  8
0
100
AcDbCircle
 10
360.009491
 20
42.614487
 30
0.0
 40
3.999999999999318
100
AcDbArc
 50
270.0
 51
0.0
1001
MCSXDATA5
1071
      167
1004
06000000000000008B0000001C000000E404000000000000000000001F050A025C020509020FEE020C4D43535F46494C4C45545F3109020FEE020C4D43535F46494C4C45545F3209020FEE020C4D43535F46494C4C45545F3309020FEE020C4D43535F46494C4C45545F3409020FEE020C4D43535F46494C4C45545F351202
1004
2602050201030201030202020103020326020402010302012202010302010302010201030201221A
  0
ARC
  5
E98
330
1F
100
AcDbEntity
  8
0
100
AcDbCircle
 10
291.009491
 20
109.020163
 30
0.0
 40
2.000000000002075
100
AcDbArc
 50
90.0
 51
180.0
1001
MCSXDATA5
1071
      167
1004
06000000000000008B0000001C000000E404000000000000000000001F050A025C020509020FEE020C4D43535F46494C4C45545F3109020FEE020C4D43535F46494C4C45545F3209020FEE020C4D43535F46494C4C45545F3309020FEE020C4D43535F46494C4C45545F3409020FEE020C4D43535F46494C4C45545F351202
1004
2602050201030201030202020103020326020202010302012202010302010302010201030201221A
  0
ARC
  5
E99
330
1F
100
AcDbEntity
  8
0
100
AcDbCircle
 10
291.009491
 20
143.020163
 30
0.0
 40
1.999999999999446
100
AcDbArc
 50
180.0
 51
270.0
1001
MCSXDATA5
1071
      167
1004
06000000000000008B0000001C000000E404000000000000000000001F050A025C020509020FEE020C4D43535F46494C4C45545F3109020FEE020C4D43535F46494C4C45545F3209020FEE020C4D43535F46494C4C45545F3309020FEE020C4D43535F46494C4C45545F3409020FEE020C4D43535F46494C4C45545F351202
1004
2602050201030201030202020103020326020202010302012202010302010302010201030201221A
  0
LINE
  5
E9A
330
1F
100
AcDbEntity
  8
0
100
AcDbLine
 10
296.009491
 20
108.020163
 30
0.0
 11
292.959491
 21
108.020163
 31
0.0
  0
LINE
  5
E9B
330
1F
100
AcDbEntity
  8
0
100
AcDbLine
 10
299.009491
 20
111.020163
 30
0.0
 11
296.009491
 21
111.020163
 31
0.0
  0
LINE
  5
E9C
330
1F
100
AcDbEntity
  8
0
100
AcDbLine
 10
292.959491
 20
111.020163
 30
0.0
 11
291.009491
 21
111.020163
 31
0.0
  0
LINE
  5
E9D
330
1F
100
AcDbEntity
  8
0
100
AcDbLine
 10
292.959491
 20
111.020163
 30
0.0
 11
292.959491
 21
108.020163
 31
0.0
  0
LINE
  5
E9E
330
1F
100
AcDbEntity
  8
0
100
AcDbLine
 10
296.009491
 20
111.020163
 30
0.0
 11
296.009491
 21
108.020163
 31
0.0
  0
LINE
  5
E9F
330
1F
100
AcDbEntity
  8
0
100
AcDbLine
 10
299.009491
 20
141.020163
 30
0.0
 11
296.009491
 21
141.020163
 31
0.0
  0
LINE
  5
EA0
330
1F
100
AcDbEntity
  8
0
100
AcDbLine
 10
292.959491
 20
141.020163
 30
0.0
 11
291.009491
 21
141.020163
 31
0.0
  0
LINE
  5
EA1
330
1F
100
AcDbEntity
  8
0
100
AcDbLine
 10
292.959491
 20
144.020163
 30
0.0
 11
292.959491
 21
141.020163
 31
0.0
  0
LINE
  5
EA2
330
1F
100
AcDbEntity
  8
0
100
AcDbLine
 10
296.009491
 20
144.020163
 30
0.0
 11
296.009491
 21
141.020163
 31
0.0
  0
LINE
  5
EA3
330
1F
100
AcDbEntity
  8
0
100
AcDbLine
 10
296.009491
 20
144.020163
 30
0.0
 11
292.959491
 21
144.020163
 31
0.0
  0
CIRCLE
  5
EA4
330
1F
100
AcDbEntity
  8
0
100
AcDbCircle
 10
358.423705
 20
44.200274
 30
0.0
 40
1.1
  0
CIRCLE
  5
EA5
330
1F
100
AcDbEntity
  8
0
100
AcDbCircle
 10
294.595277
 20
44.200274
 30
0.0
 40
1.1
  0
CIRCLE
  5
EA6
330
1F
100
AcDbEntity
  8
0
100
AcDbCircle
 10
358.423705
 20
153.028701
 30
0.0
 40
1.1
  0
CIRCLE
  5
EA7
330
1F
100
AcDbEntity
  8
0
100
AcDbCircle
 10
294.595277
 20
153.028701
 30
0.0
 40
1.1
  0
LINE
  5
EA8
330
1F
100
AcDbEntity
  8
0
100
AcDbLine
 10
299.009491
 20
48.614487
 30
0.0
 11
299.009491
 21
111.020163
 31
0.0
  0
LINE
  5
EA9
330
1F
100
AcDbEntity
  8
0
100
AcDbLine
 10
289.009491
 20
109.020163
 30
0.0
 11
289.009491
 21
42.614487
 31
0.0
  0
LINE
  5
EAA
330
1F
100
AcDbEntity
  8
0
100
AcDbLine
 10
299.009491
 20
141.020163
 30
0.0
 11
299.009491
 21
148.614487
 31
0.0
  0
LINE
  5
EAB
330
1F
100
AcDbEntity
  8
0
100
AcDbLine
 10
289.009491
 20
143.020163
 30
0.0
 11
289.009491
 21
154.614487
 31
0.0
  0
LINE
  5
EAC
330
1F
100
AcDbEntity
  8
0
100
AcDbLine
 10
274.030766
 20
238.026663
 30
0.0
 11
274.030766
 21
138.026663
 31
0.0
  0
LINE
  5
EAD
330
1F
100
AcDbEntity
  8
0
100
AcDbLine
 10
274.030766
 20
138.026663
 30
0.0
 11
329.030766
 21
138.026663
 31
0.0
  0
LINE
  5
EAE
330
1F
100
AcDbEntity
  8
0
100
AcDbLine
 10
274.030766
 20
238.026663
 30
0.0
 11
329.030766
 21
238.026663
 31
0.0
  0
LINE
  5
EAF
330
1F
100
AcDbEntity
  8
0
100
AcDbLine
 10
332.030766
 20
178.620988
 30
0.0
 11
335.080766
 21
178.620988
 31
0.0
  0
LINE
  5
EB0
330
1F
100
AcDbEntity
  8
0
100
AcDbLine
 10
329.030766
 20
175.620988
 30
0.0
 11
332.030766
 21
175.620988
 31
0.0
  0
LINE
  5
EB1
330
1F
100
AcDbEntity
  8
0
100
AcDbLine
 10
335.080766
 20
175.620988
 30
0.0
 11
340.530766
 21
175.620988
 31
0.0
  0
LINE
  5
EB2
330
1F
100
AcDbEntity
  8
0
100
AcDbLine
 10
335.080766
 20
175.620988
 30
0.0
 11
335.080766
 21
178.620988
 31
0.0
  0
LINE
  5
EB3
330
1F
100
AcDbEntity
  8
0
100
AcDbLine
 10
332.030766
 20
175.620988
 30
0.0
 11
332.030766
 21
178.620988
 31
0.0
  0
LINE
  5
EB4
330
1F
100
AcDbEntity
  8
0
100
AcDbLine
 10
329.030766
 20
145.620988
 30
0.0
 11
332.030766
 21
145.620988
 31
0.0
  0
LINE
  5
EB5
330
1F
100
AcDbEntity
  8
0
100
AcDbLine
 10
335.080766
 20
145.620988
 30
0.0
 11
340.530766
 21
145.620988
 31
0.0
  0
LINE
  5
EB6
330
1F
100
AcDbEntity
  8
0
100
AcDbLine
 10
335.080766
 20
142.620988
 30
0.0
 11
335.080766
 21
145.620988
 31
0.0
  0
LINE
  5
EB7
330
1F
100
AcDbEntity
  8
0
100
AcDbLine
 10
332.030766
 20
142.620988
 30
0.0
 11
332.030766
 21
145.620988
 31
0.0
  0
LINE
  5
EB8
330
1F
100
AcDbEntity
  8
0
100
AcDbLine
 10
332.030766
 20
142.620988
 30
0.0
 11
335.080766
 21
142.620988
 31
0.0
  0
ARC
  5
EB9
330
1F
100
AcDbEntity
  8
0
100
AcDbCircle
 10
335.030766
 20
244.026663
 30
0.0
 40
7.499999999998622
100
AcDbArc
 50
0.0
 51
90.0
1001
MCSXDATA5
1071
      167
1004
06000000000000008B0000001C000000E404000000000000000000001F050A025C020509020FEE020C4D43535F46494C4C45545F3109020FEE020C4D43535F46494C4C45545F3209020FEE020C4D43535F46494C4C45545F3309020FEE020C4D43535F46494C4C45545F3409020FEE020C4D43535F46494C4C45545F351202
1004
2602050201030201030202020103020326020402010302012202010302010302010201030201221A
  0
LINE
  5
EBA
330
1F
100
AcDbEntity
  8
0
100
AcDbLine
 10
268.030766
 20
251.526663
 30
0.0
 11
335.030766
 21
251.526663
 31
0.0
  0
ARC
  5
EBB
330
1F
100
AcDbEntity
  8
0
100
AcDbCircle
 10
268.030766
 20
244.026663
 30
0.0
 40
7.499999999999318
100
AcDbArc
 50
90.0
 51
180.0
1001
MCSXDATA5
1071
      167
1004
06000000000000008B0000001C000000E404000000000000000000001F050A025C020509020FEE020C4D43535F46494C4C45545F3109020FEE020C4D43535F46494C4C45545F3209020FEE020C4D43535F46494C4C45545F3309020FEE020C4D43535F46494C4C45545F3409020FEE020C4D43535F46494C4C45545F351202
1004
2602050201030201030202020103020326020402010302012202010302010302010201030201221A
  0
LINE
  5
EBC
330
1F
100
AcDbEntity
  8
0
100
AcDbLine
 10
260.530766
 20
244.026663
 30
0.0
 11
260.530766
 21
132.026663
 31
0.0
  0
ARC
  5
EBD
330
1F
100
AcDbEntity
  8
0
100
AcDbCircle
 10
268.030766
 20
132.026663
 30
0.0
 40
7.500000000000405
100
AcDbArc
 50
180.0
 51
270.0
1001
MCSXDATA5
1071
      167
1004
06000000000000008B0000001C000000E404000000000000000000001F050A025C020509020FEE020C4D43535F46494C4C45545F3109020FEE020C4D43535F46494C4C45545F3209020FEE020C4D43535F46494C4C45545F3309020FEE020C4D43535F46494C4C45545F3409020FEE020C4D43535F46494C4C45545F351202
1004
2602050201030201030202020103020326020402010302012202010302010302010201030201221A
  0
LINE
  5
EBE
330
1F
100
AcDbEntity
  8
0
100
AcDbLine
 10
268.030766
 20
124.526663
 30
0.0
 11
335.030766
 21
124.526663
 31
0.0
  0
ARC
  5
EBF
330
1F
100
AcDbEntity
  8
0
100
AcDbCircle
 10
335.030766
 20
132.026663
 30
0.0
 40
7.500000000003922
100
AcDbArc
 50
270.0
 51
0.0
1001
MCSXDATA5
1071
      167
1004
06000000000000008B0000001C000000E404000000000000000000001F050A025C020509020FEE020C4D43535F46494C4C45545F3109020FEE020C4D43535F46494C4C45545F3209020FEE020C4D43535F46494C4C45545F3309020FEE020C4D43535F46494C4C45545F3409020FEE020C4D43535F46494C4C45545F351202
1004
2602050201030201030202020103020326020402010302012202010302010302010201030201221A
  0
ARC
  5
EC0
330
1F
100
AcDbEntity
  8
0
100
AcDbCircle
 10
340.530766
 20
177.620988
 30
0.0
 40
2.000000000012818
100
AcDbArc
 50
270.0
 51
0.0
1001
MCSXDATA5
1071
      167
1004
06000000000000008B0000001C000000E404000000000000000000001F050A025C020509020FEE020C4D43535F46494C4C45545F3109020FEE020C4D43535F46494C4C45545F3209020FEE020C4D43535F46494C4C45545F3309020FEE020C4D43535F46494C4C45545F3409020FEE020C4D43535F46494C4C45545F351202
1004
2602050201030201030202020103020326020202010302012202010302010302010201030201221A
  0
ARC
  5
EC1
330
1F
100
AcDbEntity
  8
0
100
AcDbCircle
 10
340.530766
 20
143.620988
 30
0.0
 40
2.00000000000054
100
AcDbArc
 50
0.0
 51
90.0
1001
MCSXDATA5
1071
      167
1004
06000000000000008B0000001C000000E404000000000000000000001F050A025C020509020FEE020C4D43535F46494C4C45545F3109020FEE020C4D43535F46494C4C45545F3209020FEE020C4D43535F46494C4C45545F3309020FEE020C4D43535F46494C4C45545F3409020FEE020C4D43535F46494C4C45545F351202
1004
2602050201030201030202020103020326020202010302012202010302010302010201030201221A
  0
CIRCLE
  5
EC2
330
1F
100
AcDbEntity
  8
0
100
AcDbCircle
 10
269.616553
 20
242.440877
 30
0.0
 40
1.1
  0
CIRCLE
  5
EC3
330
1F
100
AcDbEntity
  8
0
100
AcDbCircle
 10
333.44498
 20
242.440877
 30
0.0
 40
1.1
  0
CIRCLE
  5
EC4
330
1F
100
AcDbEntity
  8
0
100
AcDbCircle
 10
269.616553
 20
133.61245
 30
0.0
 40
1.1
  0
CIRCLE
  5
EC5
330
1F
100
AcDbEntity
  8
0
100
AcDbCircle
 10
333.44498
 20
133.61245
 30
0.0
 40
1.1
  0
LINE
  5
EC6
330
1F
100
AcDbEntity
  8
0
100
AcDbLine
 10
329.030766
 20
145.620988
 30
0.0
 11
329.030766
 21
138.026663
 31
0.0
  0
LINE
  5
EC7
330
1F
100
AcDbEntity
  8
0
100
AcDbLine
 10
342.530766
 20
143.620988
 30
0.0
 11
342.530766
 21
132.026663
 31
0.0
  0
LINE
  5
EC8
330
1F
100
AcDbEntity
  8
0
100
AcDbLine
 10
342.530766
 20
244.026663
 30
0.0
 11
342.530766
 21
177.620988
 31
0.0
  0
LINE
  5
EC9
330
1F
100
AcDbEntity
  8
0
100
AcDbLine
 10
329.030766
 20
175.620988
 30
0.0
 11
329.030766
 21
238.026663
 31
0.0
  0
LINE
  5
ECA
330
1F
100
AcDbEntity
  8
0
100
AcDbLine
 10
339.012475
 20
55.528849
 30
0.0
 11
339.012475
 21
91.428849
 31
0.0
  0
LINE
  5
ECB
330
1F
100
AcDbEntity
  8
0
100
AcDbLine
 10
339.012475
 20
55.528849
 30
0.0
 11
312.112475
 21
55.528849
 31
0.0
  0
LINE
  5
ECC
330
1F
100
AcDbEntity
  8
0
100
AcDbLine
 10
339.012475
 20
91.428849
 30
0.0
 11
312.112475
 21
91.428849
 31
0.0
  0
LINE
  5
ECD
330
1F
100
AcDbEntity
  8
0
100
AcDbLine
 10
312.112475
 20
55.528849
 30
0.0
 11
312.112475
 21
91.428849
 31
0.0
  0
LINE
  5
ED9
330
1F
100
AcDbEntity
  8
0
100
AcDbLine
 10
551.633361
 20
374.950461
 30
0.0
 11
439.633361
 21
374.950461
 31
0.0
  0
ARC
  5
EDA
330
1F
100
AcDbEntity
  8
0
100
AcDbCircle
 10
439.633361
 20
367.450461
 30
0.0
 40
7.499999999998622
100
AcDbArc
 50
90.0
 51
180.0
1001
MCSXDATA5
1071
      167
1004
06000000000000008B0000001C000000E404000000000000000000001F050A025C020509020FEE020C4D43535F46494C4C45545F3109020FEE020C4D43535F46494C4C45545F3209020FEE020C4D43535F46494C4C45545F3309020FEE020C4D43535F46494C4C45545F3409020FEE020C4D43535F46494C4C45545F351202
1004
2602050201030201030202020103020326020402010302012202010302010302010201030201221A
  0
LINE
  5
EDB
330
1F
100
AcDbEntity
  8
0
100
AcDbLine
 10
432.133361
 20
300.450461
 30
0.0
 11
432.133361
 21
367.450461
 31
0.0
  0
ARC
  5
EDC
330
1F
100
AcDbEntity
  8
0
100
AcDbCircle
 10
439.633361
 20
300.450461
 30
0.0
 40
7.499999999999318
100
AcDbArc
 50
180.0
 51
270.0
1001
MCSXDATA5
1071
      167
1004
06000000000000008B0000001C000000E404000000000000000000001F050A025C020509020FEE020C4D43535F46494C4C45545F3109020FEE020C4D43535F46494C4C45545F3209020FEE020C4D43535F46494C4C45545F3309020FEE020C4D43535F46494C4C45545F3409020FEE020C4D43535F46494C4C45545F351202
1004
2602050201030201030202020103020326020402010302012202010302010302010201030201221A
  0
LINE
  5
EDD
330
1F
100
AcDbEntity
  8
0
100
AcDbLine
 10
439.633361
 20
292.950461
 30
0.0
 11
551.633361
 21
292.950461
 31
0.0
  0
ARC
  5
EDE
330
1F
100
AcDbEntity
  8
0
100
AcDbCircle
 10
551.633361
 20
300.450461
 30
0.0
 40
7.500000000000405
100
AcDbArc
 50
270.0
 51
0.0
1001
MCSXDATA5
1071
      167
1004
06000000000000008B0000001C000000E404000000000000000000001F050A025C020509020FEE020C4D43535F46494C4C45545F3109020FEE020C4D43535F46494C4C45545F3209020FEE020C4D43535F46494C4C45545F3309020FEE020C4D43535F46494C4C45545F3409020FEE020C4D43535F46494C4C45545F351202
1004
2602050201030201030202020103020326020402010302012202010302010302010201030201221A
  0
LINE
  5
EDF
330
1F
100
AcDbEntity
  8
0
100
AcDbLine
 10
559.133361
 20
300.450461
 30
0.0
 11
559.133361
 21
367.450461
 31
0.0
  0
ARC
  5
EE0
330
1F
100
AcDbEntity
  8
0
100
AcDbCircle
 10
551.633361
 20
367.450461
 30
0.0
 40
7.500000000003922
100
AcDbArc
 50
0.0
 51
90.0
1001
MCSXDATA5
1071
      167
1004
06000000000000008B0000001C000000E404000000000000000000001F050A025C020509020FEE020C4D43535F46494C4C45545F3109020FEE020C4D43535F46494C4C45545F3209020FEE020C4D43535F46494C4C45545F3309020FEE020C4D43535F46494C4C45545F3409020FEE020C4D43535F46494C4C45545F351202
1004
2602050201030201030202020103020326020402010302012202010302010302010201030201221A
  0
CIRCLE
  5
EE1
330
1F
100
AcDbEntity
  8
0
100
AcDbCircle
 10
453.133361
 20
312.200461
 30
0.0
 40
1.7
  0
CIRCLE
  5
EE2
330
1F
100
AcDbEntity
  8
0
100
AcDbCircle
 10
468.133361
 20
312.200461
 30
0.0
 40
1.7
  0
CIRCLE
  5
EE3
330
1F
100
AcDbEntity
  8
0
100
AcDbCircle
 10
491.633361
 20
312.200461
 30
0.0
 40
1.7
  0
CIRCLE
  5
EE4
330
1F
100
AcDbEntity
  8
0
100
AcDbCircle
 10
538.133361
 20
312.200461
 30
0.0
 40
1.7
  0
CIRCLE
  5
EE5
330
1F
100
AcDbEntity
  8
0
100
AcDbCircle
 10
523.133361
 20
312.200461
 30
0.0
 40
1.7
  0
CIRCLE
  5
EE6
330
1F
100
AcDbEntity
  8
0
100
AcDbCircle
 10
499.633361
 20
312.200461
 30
0.0
 40
1.7
  0
CIRCLE
  5
EE7
330
1F
100
AcDbEntity
  8
0
100
AcDbCircle
 10
453.133361
 20
355.700461
 30
0.0
 40
1.7
  0
CIRCLE
  5
EE8
330
1F
100
AcDbEntity
  8
0
100
AcDbCircle
 10
491.633361
 20
355.700461
 30
0.0
 40
1.7
  0
CIRCLE
  5
EE9
330
1F
100
AcDbEntity
  8
0
100
AcDbCircle
 10
538.133361
 20
355.700461
 30
0.0
 40
1.7
  0
CIRCLE
  5
EEA
330
1F
100
AcDbEntity
  8
0
100
AcDbCircle
 10
499.633361
 20
355.700461
 30
0.0
 40
1.7
  0
CIRCLE
  5
EEB
330
1F
100
AcDbEntity
  8
0
100
AcDbCircle
 10
476.133361
 20
355.700461
 30
0.0
 40
1.7
  0
CIRCLE
  5
EEC
330
1F
100
AcDbEntity
  8
0
100
AcDbCircle
 10
515.133361
 20
355.700461
 30
0.0
 40
1.7
  0
CIRCLE
  5
EED
330
1F
100
AcDbEntity
  8
0
100
AcDbCircle
 10
466.633361
 20
322.450461
 30
0.0
 40
1.375
  0
CIRCLE
  5
EEE
330
1F
100
AcDbEntity
  8
0
100
AcDbCircle
 10
466.633361
 20
345.450461
 30
0.0
 40
1.375
  0
CIRCLE
  5
EEF
330
1F
100
AcDbEntity
  8
0
100
AcDbCircle
 10
524.633361
 20
345.450461
 30
0.0
 40
1.375
  0
CIRCLE
  5
EF0
330
1F
100
AcDbEntity
  8
0
100
AcDbCircle
 10
524.633361
 20
322.450461
 30
0.0
 40
1.375
  0
CIRCLE
  5
EF1
330
1F
100
AcDbEntity
  8
0
100
AcDbCircle
 10
441.219147
 20
302.036247
 30
0.0
 40
1.1
  0
CIRCLE
  5
EF2
330
1F
100
AcDbEntity
  8
0
100
AcDbCircle
 10
441.219147
 20
365.864675
 30
0.0
 40
1.1
  0
CIRCLE
  5
EF3
330
1F
100
AcDbEntity
  8
0
100
AcDbCircle
 10
550.047574
 20
302.036247
 30
0.0
 40
1.1
  0
CIRCLE
  5
EF4
330
1F
100
AcDbEntity
  8
0
100
AcDbCircle
 10
550.047574
 20
365.864675
 30
0.0
 40
1.1
  0
LINE
  5
EF5
330
1F
100
AcDbEntity
  8
0
100
AcDbLine
 10
713.13126
 20
374.950461
 30
0.0
 11
601.13126
 21
374.950461
 31
0.0
  0
ARC
  5
EF6
330
1F
100
AcDbEntity
  8
0
100
AcDbCircle
 10
601.13126
 20
367.450461
 30
0.0
 40
7.499999999998622
100
AcDbArc
 50
90.0
 51
180.0
1001
MCSXDATA5
1071
      167
1004
06000000000000008B0000001C000000E404000000000000000000001F050A025C020509020FEE020C4D43535F46494C4C45545F3109020FEE020C4D43535F46494C4C45545F3209020FEE020C4D43535F46494C4C45545F3309020FEE020C4D43535F46494C4C45545F3409020FEE020C4D43535F46494C4C45545F351202
1004
2602050201030201030202020103020326020402010302012202010302010302010201030201221A
  0
LINE
  5
EF7
330
1F
100
AcDbEntity
  8
0
100
AcDbLine
 10
593.63126
 20
300.450461
 30
0.0
 11
593.63126
 21
367.450461
 31
0.0
  0
ARC
  5
EF8
330
1F
100
AcDbEntity
  8
0
100
AcDbCircle
 10
601.13126
 20
300.450461
 30
0.0
 40
7.499999999999318
100
AcDbArc
 50
180.0
 51
270.0
1001
MCSXDATA5
1071
      167
1004
06000000000000008B0000001C000000E404000000000000000000001F050A025C020509020FEE020C4D43535F46494C4C45545F3109020FEE020C4D43535F46494C4C45545F3209020FEE020C4D43535F46494C4C45545F3309020FEE020C4D43535F46494C4C45545F3409020FEE020C4D43535F46494C4C45545F351202
1004
2602050201030201030202020103020326020402010302012202010302010302010201030201221A
  0
LINE
  5
EF9
330
1F
100
AcDbEntity
  8
0
100
AcDbLine
 10
601.13126
 20
292.950461
 30
0.0
 11
713.13126
 21
292.950461
 31
0.0
  0
ARC
  5
EFA
330
1F
100
AcDbEntity
  8
0
100
AcDbCircle
 10
713.13126
 20
300.450461
 30
0.0
 40
7.500000000000405
100
AcDbArc
 50
270.0
 51
0.0
1001
MCSXDATA5
1071
      167
1004
06000000000000008B0000001C000000E404000000000000000000001F050A025C020509020FEE020C4D43535F46494C4C45545F3109020FEE020C4D43535F46494C4C45545F3209020FEE020C4D43535F46494C4C45545F3309020FEE020C4D43535F46494C4C45545F3409020FEE020C4D43535F46494C4C45545F351202
1004
2602050201030201030202020103020326020402010302012202010302010302010201030201221A
  0
LINE
  5
EFB
330
1F
100
AcDbEntity
  8
0
100
AcDbLine
 10
720.63126
 20
300.450461
 30
0.0
 11
720.63126
 21
367.450461
 31
0.0
  0
ARC
  5
EFC
330
1F
100
AcDbEntity
  8
0
100
AcDbCircle
 10
713.13126
 20
367.450461
 30
0.0
 40
7.500000000003922
100
AcDbArc
 50
0.0
 51
90.0
1001
MCSXDATA5
1071
      167
1004
06000000000000008B0000001C000000E404000000000000000000001F050A025C020509020FEE020C4D43535F46494C4C45545F3109020FEE020C4D43535F46494C4C45545F3209020FEE020C4D43535F46494C4C45545F3309020FEE020C4D43535F46494C4C45545F3409020FEE020C4D43535F46494C4C45545F351202
1004
2602050201030201030202020103020326020402010302012202010302010302010201030201221A
  0
CIRCLE
  5
EFD
330
1F
100
AcDbEntity
  8
0
100
AcDbCircle
 10
602.717047
 20
302.036247
 30
0.0
 40
1.1
  0
CIRCLE
  5
EFE
330
1F
100
AcDbEntity
  8
0
100
AcDbCircle
 10
602.717047
 20
365.864675
 30
0.0
 40
1.1
  0
CIRCLE
  5
EFF
330
1F
100
AcDbEntity
  8
0
100
AcDbCircle
 10
711.545474
 20
302.036247
 30
0.0
 40
1.1
  0
CIRCLE
  5
F00
330
1F
100
AcDbEntity
  8
0
100
AcDbCircle
 10
711.545474
 20
365.864675
 30
0.0
 40
1.1
  0
CIRCLE
  5
F01
330
1F
100
AcDbEntity
  8
0
100
AcDbCircle
 10
622.13126
 20
314.200461
 30
0.0
 40
7.5
  0
CIRCLE
  5
F02
330
1F
100
AcDbEntity
  8
0
100
AcDbCircle
 10
645.38126
 20
314.200461
 30
0.0
 40
7.5
  0
CIRCLE
  5
F03
330
1F
100
AcDbEntity
  8
0
100
AcDbCircle
 10
668.88126
 20
314.200461
 30
0.0
 40
7.5
  0
CIRCLE
  5
F04
330
1F
100
AcDbEntity
  8
0
100
AcDbCircle
 10
692.13126
 20
314.200461
 30
0.0
 40
7.5
  0
LINE
  5
F05
330
1F
100
AcDbEntity
  8
0
100
AcDbLine
 10
405.549093
 20
37.252733
 30
0.0
 11
505.549093
 21
37.252733
 31
0.0
  0
LINE
  5
F06
330
1F
100
AcDbEntity
  8
0
100
AcDbLine
 10
505.549093
 20
37.252733
 30
0.0
 11
505.549093
 21
92.252733
 31
0.0
  0
LINE
  5
F07
330
1F
100
AcDbEntity
  8
0
100
AcDbLine
 10
405.549093
 20
37.252733
 30
0.0
 11
405.549093
 21
92.252733
 31
0.0
  0
LINE
  5
F08
330
1F
100
AcDbEntity
  8
0
100
AcDbLine
 10
399.549093
 20
27.252733
 30
0.0
 11
511.549093
 21
27.252733
 31
0.0
  0
LINE
  5
F09
330
1F
100
AcDbEntity
  8
0
100
AcDbLine
 10
395.549093
 20
31.252733
 30
0.0
 11
395.549093
 21
98.252733
 31
0.0
  0
LINE
  5
F0A
330
1F
100
AcDbEntity
  8
0
100
AcDbLine
 10
515.549093
 20
31.252733
 30
0.0
 11
515.549093
 21
98.252733
 31
0.0
  0
ARC
  5
F0B
330
1F
100
AcDbEntity
  8
0
100
AcDbCircle
 10
399.549093
 20
98.252733
 30
0.0
 40
3.999999999998622
100
AcDbArc
 50
90.0
 51
180.0
1001
MCSXDATA5
1071
      167
1004
06000000000000008B0000001C000000E404000000000000000000001F050A025C020509020FEE020C4D43535F46494C4C45545F3109020FEE020C4D43535F46494C4C45545F3209020FEE020C4D43535F46494C4C45545F3309020FEE020C4D43535F46494C4C45545F3409020FEE020C4D43535F46494C4C45545F351202
1004
2602050201030201030202020103020326020402010302012202010302010302010201030201221A
  0
ARC
  5
F0C
330
1F
100
AcDbEntity
  8
0
100
AcDbCircle
 10
511.549093
 20
98.252733
 30
0.0
 40
4.000000000003922
100
AcDbArc
 50
0.0
 51
90.0
1001
MCSXDATA5
1071
      167
1004
06000000000000008B0000001C000000E404000000000000000000001F050A025C020509020FEE020C4D43535F46494C4C45545F3109020FEE020C4D43535F46494C4C45545F3209020FEE020C4D43535F46494C4C45545F3309020FEE020C4D43535F46494C4C45545F3409020FEE020C4D43535F46494C4C45545F351202
1004
2602050201030201030202020103020326020402010302012202010302010302010201030201221A
  0
ARC
  5
F0D
330
1F
100
AcDbEntity
  8
0
100
AcDbCircle
 10
511.549093
 20
31.252733
 30
0.0
 40
4.000000000000405
100
AcDbArc
 50
270.0
 51
0.0
1001
MCSXDATA5
1071
      167
1004
06000000000000008B0000001C000000E404000000000000000000001F050A025C020509020FEE020C4D43535F46494C4C45545F3109020FEE020C4D43535F46494C4C45545F3209020FEE020C4D43535F46494C4C45545F3309020FEE020C4D43535F46494C4C45545F3409020FEE020C4D43535F46494C4C45545F351202
1004
2602050201030201030202020103020326020402010302012202010302010302010201030201221A
  0
ARC
  5
F0E
330
1F
100
AcDbEntity
  8
0
100
AcDbCircle
 10
399.549093
 20
31.252733
 30
0.0
 40
3.999999999999318
100
AcDbArc
 50
180.0
 51
270.0
1001
MCSXDATA5
1071
      167
1004
06000000000000008B0000001C000000E404000000000000000000001F050A025C020509020FEE020C4D43535F46494C4C45545F3109020FEE020C4D43535F46494C4C45545F3209020FEE020C4D43535F46494C4C45545F3309020FEE020C4D43535F46494C4C45545F3409020FEE020C4D43535F46494C4C45545F351202
1004
2602050201030201030202020103020326020402010302012202010302010302010201030201221A
  0
ARC
  5
F0F
330
1F
100
AcDbEntity
  8
0
100
AcDbCircle
 10
465.954768
 20
100.252733
 30
0.0
 40
2.000000000002075
100
AcDbArc
 50
0.0
 51
90.0
1001
MCSXDATA5
1071
      167
1004
06000000000000008B0000001C000000E404000000000000000000001F050A025C020509020FEE020C4D43535F46494C4C45545F3109020FEE020C4D43535F46494C4C45545F3209020FEE020C4D43535F46494C4C45545F3309020FEE020C4D43535F46494C4C45545F3409020FEE020C4D43535F46494C4C45545F351202
1004
2602050201030201030202020103020326020202010302012202010302010302010201030201221A
  0
ARC
  5
F10
330
1F
100
AcDbEntity
  8
0
100
AcDbCircle
 10
499.954768
 20
100.252733
 30
0.0
 40
1.999999999999446
100
AcDbArc
 50
90.0
 51
180.0
1001
MCSXDATA5
1071
      167
1004
06000000000000008B0000001C000000E404000000000000000000001F050A025C020509020FEE020C4D43535F46494C4C45545F3109020FEE020C4D43535F46494C4C45545F3209020FEE020C4D43535F46494C4C45545F3309020FEE020C4D43535F46494C4C45545F3409020FEE020C4D43535F46494C4C45545F351202
1004
2602050201030201030202020103020326020202010302012202010302010302010201030201221A
  0
LINE
  5
F11
330
1F
100
AcDbEntity
  8
0
100
AcDbLine
 10
464.954768
 20
95.252733
 30
0.0
 11
464.954768
 21
98.302733
 31
0.0
  0
LINE
  5
F12
330
1F
100
AcDbEntity
  8
0
100
AcDbLine
 10
467.954768
 20
92.252733
 30
0.0
 11
467.954768
 21
95.252733
 31
0.0
  0
LINE
  5
F13
330
1F
100
AcDbEntity
  8
0
100
AcDbLine
 10
467.954768
 20
98.302733
 30
0.0
 11
467.954768
 21
100.252733
 31
0.0
  0
LINE
  5
F14
330
1F
100
AcDbEntity
  8
0
100
AcDbLine
 10
467.954768
 20
98.302733
 30
0.0
 11
464.954768
 21
98.302733
 31
0.0
  0
LINE
  5
F15
330
1F
100
AcDbEntity
  8
0
100
AcDbLine
 10
467.954768
 20
95.252733
 30
0.0
 11
464.954768
 21
95.252733
 31
0.0
  0
LINE
  5
F16
330
1F
100
AcDbEntity
  8
0
100
AcDbLine
 10
497.954768
 20
92.252733
 30
0.0
 11
497.954768
 21
95.252733
 31
0.0
  0
LINE
  5
F17
330
1F
100
AcDbEntity
  8
0
100
AcDbLine
 10
497.954768
 20
98.302733
 30
0.0
 11
497.954768
 21
100.252733
 31
0.0
  0
LINE
  5
F18
330
1F
100
AcDbEntity
  8
0
100
AcDbLine
 10
500.954768
 20
98.302733
 30
0.0
 11
497.954768
 21
98.302733
 31
0.0
  0
LINE
  5
F19
330
1F
100
AcDbEntity
  8
0
100
AcDbLine
 10
500.954768
 20
95.252733
 30
0.0
 11
497.954768
 21
95.252733
 31
0.0
  0
LINE
  5
F1A
330
1F
100
AcDbEntity
  8
0
100
AcDbLine
 10
500.954768
 20
95.252733
 30
0.0
 11
500.954768
 21
98.302733
 31
0.0
  0
CIRCLE
  5
F1B
330
1F
100
AcDbEntity
  8
0
100
AcDbCircle
 10
401.134879
 20
32.83852
 30
0.0
 40
1.1
  0
CIRCLE
  5
F1C
330
1F
100
AcDbEntity
  8
0
100
AcDbCircle
 10
401.134879
 20
96.666947
 30
0.0
 40
1.1
  0
CIRCLE
  5
F1D
330
1F
100
AcDbEntity
  8
0
100
AcDbCircle
 10
509.963306
 20
32.83852
 30
0.0
 40
1.1
  0
CIRCLE
  5
F1E
330
1F
100
AcDbEntity
  8
0
100
AcDbCircle
 10
509.963306
 20
96.666947
 30
0.0
 40
1.1
  0
LINE
  5
F1F
330
1F
100
AcDbEntity
  8
0
100
AcDbLine
 10
405.549093
 20
92.252733
 30
0.0
 11
467.954768
 21
92.252733
 31
0.0
  0
LINE
  5
F20
330
1F
100
AcDbEntity
  8
0
100
AcDbLine
 10
465.954768
 20
102.252733
 30
0.0
 11
399.549093
 21
102.252733
 31
0.0
  0
LINE
  5
F21
330
1F
100
AcDbEntity
  8
0
100
AcDbLine
 10
497.954768
 20
92.252733
 30
0.0
 11
505.549093
 21
92.252733
 31
0.0
  0
LINE
  5
F22
330
1F
100
AcDbEntity
  8
0
100
AcDbLine
 10
499.954768
 20
102.252733
 30
0.0
 11
511.549093
 21
102.252733
 31
0.0
  0
LINE
  5
F23
330
1F
100
AcDbEntity
  8
0
100
AcDbLine
 10
594.961269
 20
117.231458
 30
0.0
 11
494.961269
 21
117.231458
 31
0.0
  0
LINE
  5
F24
330
1F
100
AcDbEntity
  8
0
100
AcDbLine
 10
494.961269
 20
117.231458
 30
0.0
 11
494.961269
 21
62.231458
 31
0.0
  0
LINE
  5
F25
330
1F
100
AcDbEntity
  8
0
100
AcDbLine
 10
594.961269
 20
117.231458
 30
0.0
 11
594.961269
 21
62.231458
 31
0.0
  0
LINE
  5
F26
330
1F
100
AcDbEntity
  8
0
100
AcDbLine
 10
535.555593
 20
59.231458
 30
0.0
 11
535.555593
 21
56.181458
 31
0.0
  0
LINE
  5
F27
330
1F
100
AcDbEntity
  8
0
100
AcDbLine
 10
532.555593
 20
62.231458
 30
0.0
 11
532.555593
 21
59.231458
 31
0.0
  0
LINE
  5
F28
330
1F
100
AcDbEntity
  8
0
100
AcDbLine
 10
532.555593
 20
56.181458
 30
0.0
 11
532.555593
 21
50.731458
 31
0.0
  0
LINE
  5
F29
330
1F
100
AcDbEntity
  8
0
100
AcDbLine
 10
532.555593
 20
56.181458
 30
0.0
 11
535.555593
 21
56.181458
 31
0.0
  0
LINE
  5
F2A
330
1F
100
AcDbEntity
  8
0
100
AcDbLine
 10
532.555593
 20
59.231458
 30
0.0
 11
535.555593
 21
59.231458
 31
0.0
  0
LINE
  5
F2B
330
1F
100
AcDbEntity
  8
0
100
AcDbLine
 10
502.555593
 20
62.231458
 30
0.0
 11
502.555593
 21
59.231458
 31
0.0
  0
LINE
  5
F2C
330
1F
100
AcDbEntity
  8
0
100
AcDbLine
 10
502.555593
 20
56.181458
 30
0.0
 11
502.555593
 21
50.731458
 31
0.0
  0
LINE
  5
F2D
330
1F
100
AcDbEntity
  8
0
100
AcDbLine
 10
499.555593
 20
56.181458
 30
0.0
 11
502.555593
 21
56.181458
 31
0.0
  0
LINE
  5
F2E
330
1F
100
AcDbEntity
  8
0
100
AcDbLine
 10
499.555593
 20
59.231458
 30
0.0
 11
502.555593
 21
59.231458
 31
0.0
  0
LINE
  5
F2F
330
1F
100
AcDbEntity
  8
0
100
AcDbLine
 10
499.555593
 20
59.231458
 30
0.0
 11
499.555593
 21
56.181458
 31
0.0
  0
ARC
  5
F30
330
1F
100
AcDbEntity
  8
0
100
AcDbCircle
 10
600.961269
 20
56.231458
 30
0.0
 40
7.499999999998622
100
AcDbArc
 50
270.0
 51
0.0
1001
MCSXDATA5
1071
      167
1004
06000000000000008B0000001C000000E404000000000000000000001F050A025C020509020FEE020C4D43535F46494C4C45545F3109020FEE020C4D43535F46494C4C45545F3209020FEE020C4D43535F46494C4C45545F3309020FEE020C4D43535F46494C4C45545F3409020FEE020C4D43535F46494C4C45545F351202
1004
2602050201030201030202020103020326020402010302012202010302010302010201030201221A
  0
LINE
  5
F31
330
1F
100
AcDbEntity
  8
0
100
AcDbLine
 10
608.461269
 20
123.231458
 30
0.0
 11
608.461269
 21
56.231458
 31
0.0
  0
ARC
  5
F32
330
1F
100
AcDbEntity
  8
0
100
AcDbCircle
 10
600.961269
 20
123.231458
 30
0.0
 40
7.499999999999318
100
AcDbArc
 50
0.0
 51
90.0
1001
MCSXDATA5
1071
      167
1004
06000000000000008B0000001C000000E404000000000000000000001F050A025C020509020FEE020C4D43535F46494C4C45545F3109020FEE020C4D43535F46494C4C45545F3209020FEE020C4D43535F46494C4C45545F3309020FEE020C4D43535F46494C4C45545F3409020FEE020C4D43535F46494C4C45545F351202
1004
2602050201030201030202020103020326020402010302012202010302010302010201030201221A
  0
LINE
  5
F33
330
1F
100
AcDbEntity
  8
0
100
AcDbLine
 10
600.961269
 20
130.731458
 30
0.0
 11
488.961269
 21
130.731458
 31
0.0
  0
ARC
  5
F34
330
1F
100
AcDbEntity
  8
0
100
AcDbCircle
 10
488.961269
 20
123.231458
 30
0.0
 40
7.500000000000405
100
AcDbArc
 50
90.0
 51
180.0
1001
MCSXDATA5
1071
      167
1004
06000000000000008B0000001C000000E404000000000000000000001F050A025C020509020FEE020C4D43535F46494C4C45545F3109020FEE020C4D43535F46494C4C45545F3209020FEE020C4D43535F46494C4C45545F3309020FEE020C4D43535F46494C4C45545F3409020FEE020C4D43535F46494C4C45545F351202
1004
2602050201030201030202020103020326020402010302012202010302010302010201030201221A
  0
LINE
  5
F35
330
1F
100
AcDbEntity
  8
0
100
AcDbLine
 10
481.461269
 20
123.231458
 30
0.0
 11
481.461269
 21
56.231458
 31
0.0
  0
ARC
  5
F36
330
1F
100
AcDbEntity
  8
0
100
AcDbCircle
 10
488.961269
 20
56.231458
 30
0.0
 40
7.500000000003922
100
AcDbArc
 50
180.0
 51
270.0
1001
MCSXDATA5
1071
      167
1004
06000000000000008B0000001C000000E404000000000000000000001F050A025C020509020FEE020C4D43535F46494C4C45545F3109020FEE020C4D43535F46494C4C45545F3209020FEE020C4D43535F46494C4C45545F3309020FEE020C4D43535F46494C4C45545F3409020FEE020C4D43535F46494C4C45545F351202
1004
2602050201030201030202020103020326020402010302012202010302010302010201030201221A
  0
ARC
  5
F37
330
1F
100
AcDbEntity
  8
0
100
AcDbCircle
 10
534.555593
 20
50.731458
 30
0.0
 40
2.000000000012818
100
AcDbArc
 50
180.0
 51
270.0
1001
MCSXDATA5
1071
      167
1004
06000000000000008B0000001C000000E404000000000000000000001F050A025C020509020FEE020C4D43535F46494C4C45545F3109020FEE020C4D43535F46494C4C45545F3209020FEE020C4D43535F46494C4C45545F3309020FEE020C4D43535F46494C4C45545F3409020FEE020C4D43535F46494C4C45545F351202
1004
2602050201030201030202020103020326020202010302012202010302010302010201030201221A
  0
ARC
  5
F38
330
1F
100
AcDbEntity
  8
0
100
AcDbCircle
 10
500.555593
 20
50.731458
 30
0.0
 40
2.00000000000054
100
AcDbArc
 50
270.0
 51
0.0
1001
MCSXDATA5
1071
      167
1004
06000000000000008B0000001C000000E404000000000000000000001F050A025C020509020FEE020C4D43535F46494C4C45545F3109020FEE020C4D43535F46494C4C45545F3209020FEE020C4D43535F46494C4C45545F3309020FEE020C4D43535F46494C4C45545F3409020FEE020C4D43535F46494C4C45545F351202
1004
2602050201030201030202020103020326020202010302012202010302010302010201030201221A
  0
CIRCLE
  5
F39
330
1F
100
AcDbEntity
  8
0
100
AcDbCircle
 10
599.375482
 20
121.645672
 30
0.0
 40
1.1
  0
CIRCLE
  5
F3A
330
1F
100
AcDbEntity
  8
0
100
AcDbCircle
 10
599.375482
 20
57.817245
 30
0.0
 40
1.1
  0
CIRCLE
  5
F3B
330
1F
100
AcDbEntity
  8
0
100
AcDbCircle
 10
490.547055
 20
121.645672
 30
0.0
 40
1.1
  0
CIRCLE
  5
F3C
330
1F
100
AcDbEntity
  8
0
100
AcDbCircle
 10
490.547055
 20
57.817245
 30
0.0
 40
1.1
  0
LINE
  5
F3D
330
1F
100
AcDbEntity
  8
0
100
AcDbLine
 10
502.555593
 20
62.231458
 30
0.0
 11
494.961269
 21
62.231458
 31
0.0
  0
LINE
  5
F3E
330
1F
100
AcDbEntity
  8
0
100
AcDbLine
 10
500.555593
 20
48.731458
 30
0.0
 11
488.961269
 21
48.731458
 31
0.0
  0
LINE
  5
F3F
330
1F
100
AcDbEntity
  8
0
100
AcDbLine
 10
600.961269
 20
48.731458
 30
0.0
 11
534.555593
 21
48.731458
 31
0.0
  0
LINE
  5
F40
330
1F
100
AcDbEntity
  8
0
100
AcDbLine
 10
532.555593
 20
62.231458
 30
0.0
 11
594.961269
 21
62.231458
 31
0.0
  0
LINE
  5
F41
330
1F
100
AcDbEntity
  8
0
100
AcDbLine
 10
412.463454
 20
52.24975
 30
0.0
 11
448.363454
 21
52.24975
 31
0.0
  0
LINE
  5
F42
330
1F
100
AcDbEntity
  8
0
100
AcDbLine
 10
412.463454
 20
52.24975
 30
0.0
 11
412.463454
 21
79.14975
 31
0.0
  0
LINE
  5
F43
330
1F
100
AcDbEntity
  8
0
100
AcDbLine
 10
448.363454
 20
52.24975
 30
0.0
 11
448.363454
 21
79.14975
 31
0.0
  0
LINE
  5
F44
330
1F
100
AcDbEntity
  8
0
100
AcDbLine
 10
412.463454
 20
79.14975
 30
0.0
 11
448.363454
 21
79.14975
 31
0.0
  0
LINE
  5
F45
330
1F
100
AcDbEntity
  8
0
100
AcDbLine
 10
405.549093
 20
157.535159
 30
0.0
 11
505.549093
 21
157.535159
 31
0.0
  0
LINE
  5
F46
330
1F
100
AcDbEntity
  8
0
100
AcDbLine
 10
505.549093
 20
157.535159
 30
0.0
 11
505.549093
 21
212.535159
 31
0.0
  0
LINE
  5
F47
330
1F
100
AcDbEntity
  8
0
100
AcDbLine
 10
405.549093
 20
157.535159
 30
0.0
 11
405.549093
 21
212.535159
 31
0.0
  0
LINE
  5
F48
330
1F
100
AcDbEntity
  8
0
100
AcDbLine
 10
399.549093
 20
147.535159
 30
0.0
 11
511.549093
 21
147.535159
 31
0.0
  0
LINE
  5
F49
330
1F
100
AcDbEntity
  8
0
100
AcDbLine
 10
395.549093
 20
151.535159
 30
0.0
 11
395.549093
 21
218.535159
 31
0.0
  0
LINE
  5
F4A
330
1F
100
AcDbEntity
  8
0
100
AcDbLine
 10
515.549093
 20
151.535159
 30
0.0
 11
515.549093
 21
218.535159
 31
0.0
  0
ARC
  5
F4B
330
1F
100
AcDbEntity
  8
0
100
AcDbCircle
 10
399.549093
 20
218.535159
 30
0.0
 40
3.999999999998622
100
AcDbArc
 50
90.0
 51
180.0
1001
MCSXDATA5
1071
      167
1004
06000000000000008B0000001C000000E404000000000000000000001F050A025C020509020FEE020C4D43535F46494C4C45545F3109020FEE020C4D43535F46494C4C45545F3209020FEE020C4D43535F46494C4C45545F3309020FEE020C4D43535F46494C4C45545F3409020FEE020C4D43535F46494C4C45545F351202
1004
2602050201030201030202020103020326020402010302012202010302010302010201030201221A
  0
ARC
  5
F4C
330
1F
100
AcDbEntity
  8
0
100
AcDbCircle
 10
511.549093
 20
218.535159
 30
0.0
 40
4.000000000003922
100
AcDbArc
 50
0.0
 51
90.0
1001
MCSXDATA5
1071
      167
1004
06000000000000008B0000001C000000E404000000000000000000001F050A025C020509020FEE020C4D43535F46494C4C45545F3109020FEE020C4D43535F46494C4C45545F3209020FEE020C4D43535F46494C4C45545F3309020FEE020C4D43535F46494C4C45545F3409020FEE020C4D43535F46494C4C45545F351202
1004
2602050201030201030202020103020326020402010302012202010302010302010201030201221A
  0
ARC
  5
F4D
330
1F
100
AcDbEntity
  8
0
100
AcDbCircle
 10
511.549093
 20
151.535159
 30
0.0
 40
4.000000000000405
100
AcDbArc
 50
270.0
 51
0.0
1001
MCSXDATA5
1071
      167
1004
06000000000000008B0000001C000000E404000000000000000000001F050A025C020509020FEE020C4D43535F46494C4C45545F3109020FEE020C4D43535F46494C4C45545F3209020FEE020C4D43535F46494C4C45545F3309020FEE020C4D43535F46494C4C45545F3409020FEE020C4D43535F46494C4C45545F351202
1004
2602050201030201030202020103020326020402010302012202010302010302010201030201221A
  0
ARC
  5
F4E
330
1F
100
AcDbEntity
  8
0
100
AcDbCircle
 10
399.549093
 20
151.535159
 30
0.0
 40
3.999999999999318
100
AcDbArc
 50
180.0
 51
270.0
1001
MCSXDATA5
1071
      167
1004
06000000000000008B0000001C000000E404000000000000000000001F050A025C020509020FEE020C4D43535F46494C4C45545F3109020FEE020C4D43535F46494C4C45545F3209020FEE020C4D43535F46494C4C45545F3309020FEE020C4D43535F46494C4C45545F3409020FEE020C4D43535F46494C4C45545F351202
1004
2602050201030201030202020103020326020402010302012202010302010302010201030201221A
  0
ARC
  5
F4F
330
1F
100
AcDbEntity
  8
0
100
AcDbCircle
 10
465.954768
 20
220.535159
 30
0.0
 40
2.000000000002075
100
AcDbArc
 50
0.0
 51
90.0
1001
MCSXDATA5
1071
      167
1004
06000000000000008B0000001C000000E404000000000000000000001F050A025C020509020FEE020C4D43535F46494C4C45545F3109020FEE020C4D43535F46494C4C45545F3209020FEE020C4D43535F46494C4C45545F3309020FEE020C4D43535F46494C4C45545F3409020FEE020C4D43535F46494C4C45545F351202
1004
2602050201030201030202020103020326020202010302012202010302010302010201030201221A
  0
ARC
  5
F50
330
1F
100
AcDbEntity
  8
0
100
AcDbCircle
 10
499.954768
 20
220.535159
 30
0.0
 40
1.999999999999446
100
AcDbArc
 50
90.0
 51
180.0
1001
MCSXDATA5
1071
      167
1004
06000000000000008B0000001C000000E404000000000000000000001F050A025C020509020FEE020C4D43535F46494C4C45545F3109020FEE020C4D43535F46494C4C45545F3209020FEE020C4D43535F46494C4C45545F3309020FEE020C4D43535F46494C4C45545F3409020FEE020C4D43535F46494C4C45545F351202
1004
2602050201030201030202020103020326020202010302012202010302010302010201030201221A
  0
LINE
  5
F51
330
1F
100
AcDbEntity
  8
0
100
AcDbLine
 10
464.954768
 20
215.535159
 30
0.0
 11
464.954768
 21
218.585159
 31
0.0
  0
LINE
  5
F52
330
1F
100
AcDbEntity
  8
0
100
AcDbLine
 10
467.954768
 20
212.535159
 30
0.0
 11
467.954768
 21
215.535159
 31
0.0
  0
LINE
  5
F53
330
1F
100
AcDbEntity
  8
0
100
AcDbLine
 10
467.954768
 20
218.585159
 30
0.0
 11
467.954768
 21
220.535159
 31
0.0
  0
LINE
  5
F54
330
1F
100
AcDbEntity
  8
0
100
AcDbLine
 10
467.954768
 20
218.585159
 30
0.0
 11
464.954768
 21
218.585159
 31
0.0
  0
LINE
  5
F55
330
1F
100
AcDbEntity
  8
0
100
AcDbLine
 10
467.954768
 20
215.535159
 30
0.0
 11
464.954768
 21
215.535159
 31
0.0
  0
LINE
  5
F56
330
1F
100
AcDbEntity
  8
0
100
AcDbLine
 10
497.954768
 20
212.535159
 30
0.0
 11
497.954768
 21
215.535159
 31
0.0
  0
LINE
  5
F57
330
1F
100
AcDbEntity
  8
0
100
AcDbLine
 10
497.954768
 20
218.585159
 30
0.0
 11
497.954768
 21
220.535159
 31
0.0
  0
LINE
  5
F58
330
1F
100
AcDbEntity
  8
0
100
AcDbLine
 10
500.954768
 20
218.585159
 30
0.0
 11
497.954768
 21
218.585159
 31
0.0
  0
LINE
  5
F59
330
1F
100
AcDbEntity
  8
0
100
AcDbLine
 10
500.954768
 20
215.535159
 30
0.0
 11
497.954768
 21
215.535159
 31
0.0
  0
LINE
  5
F5A
330
1F
100
AcDbEntity
  8
0
100
AcDbLine
 10
500.954768
 20
215.535159
 30
0.0
 11
500.954768
 21
218.585159
 31
0.0
  0
CIRCLE
  5
F5B
330
1F
100
AcDbEntity
  8
0
100
AcDbCircle
 10
401.134879
 20
153.120946
 30
0.0
 40
1.1
  0
CIRCLE
  5
F5C
330
1F
100
AcDbEntity
  8
0
100
AcDbCircle
 10
401.134879
 20
216.949373
 30
0.0
 40
1.1
  0
CIRCLE
  5
F5D
330
1F
100
AcDbEntity
  8
0
100
AcDbCircle
 10
509.963306
 20
153.120946
 30
0.0
 40
1.1
  0
CIRCLE
  5
F5E
330
1F
100
AcDbEntity
  8
0
100
AcDbCircle
 10
509.963306
 20
216.949373
 30
0.0
 40
1.1
  0
LINE
  5
F5F
330
1F
100
AcDbEntity
  8
0
100
AcDbLine
 10
405.549093
 20
212.535159
 30
0.0
 11
467.954768
 21
212.535159
 31
0.0
  0
LINE
  5
F60
330
1F
100
AcDbEntity
  8
0
100
AcDbLine
 10
465.954768
 20
222.535159
 30
0.0
 11
399.549093
 21
222.535159
 31
0.0
  0
LINE
  5
F61
330
1F
100
AcDbEntity
  8
0
100
AcDbLine
 10
497.954768
 20
212.535159
 30
0.0
 11
505.549093
 21
212.535159
 31
0.0
  0
LINE
  5
F62
330
1F
100
AcDbEntity
  8
0
100
AcDbLine
 10
499.954768
 20
222.535159
 30
0.0
 11
511.549093
 21
222.535159
 31
0.0
  0
LINE
  5
F63
330
1F
100
AcDbEntity
  8
0
100
AcDbLine
 10
594.961269
 20
237.513884
 30
0.0
 11
494.961269
 21
237.513884
 31
0.0
  0
LINE
  5
F64
330
1F
100
AcDbEntity
  8
0
100
AcDbLine
 10
494.961269
 20
237.513884
 30
0.0
 11
494.961269
 21
182.513884
 31
0.0
  0
LINE
  5
F65
330
1F
100
AcDbEntity
  8
0
100
AcDbLine
 10
594.961269
 20
237.513884
 30
0.0
 11
594.961269
 21
182.513884
 31
0.0
  0
LINE
  5
F66
330
1F
100
AcDbEntity
  8
0
100
AcDbLine
 10
535.555593
 20
179.513884
 30
0.0
 11
535.555593
 21
176.463884
 31
0.0
  0
LINE
  5
F67
330
1F
100
AcDbEntity
  8
0
100
AcDbLine
 10
532.555593
 20
182.513884
 30
0.0
 11
532.555593
 21
179.513884
 31
0.0
  0
LINE
  5
F68
330
1F
100
AcDbEntity
  8
0
100
AcDbLine
 10
532.555593
 20
176.463884
 30
0.0
 11
532.555593
 21
171.013884
 31
0.0
  0
LINE
  5
F69
330
1F
100
AcDbEntity
  8
0
100
AcDbLine
 10
532.555593
 20
176.463884
 30
0.0
 11
535.555593
 21
176.463884
 31
0.0
  0
LINE
  5
F6A
330
1F
100
AcDbEntity
  8
0
100
AcDbLine
 10
532.555593
 20
179.513884
 30
0.0
 11
535.555593
 21
179.513884
 31
0.0
  0
LINE
  5
F6B
330
1F
100
AcDbEntity
  8
0
100
AcDbLine
 10
502.555593
 20
182.513884
 30
0.0
 11
502.555593
 21
179.513884
 31
0.0
  0
LINE
  5
F6C
330
1F
100
AcDbEntity
  8
0
100
AcDbLine
 10
502.555593
 20
176.463884
 30
0.0
 11
502.555593
 21
171.013884
 31
0.0
  0
LINE
  5
F6D
330
1F
100
AcDbEntity
  8
0
100
AcDbLine
 10
499.555593
 20
176.463884
 30
0.0
 11
502.555593
 21
176.463884
 31
0.0
  0
LINE
  5
F6E
330
1F
100
AcDbEntity
  8
0
100
AcDbLine
 10
499.555593
 20
179.513884
 30
0.0
 11
502.555593
 21
179.513884
 31
0.0
  0
LINE
  5
F6F
330
1F
100
AcDbEntity
  8
0
100
AcDbLine
 10
499.555593
 20
179.513884
 30
0.0
 11
499.555593
 21
176.463884
 31
0.0
  0
ARC
  5
F70
330
1F
100
AcDbEntity
  8
0
100
AcDbCircle
 10
600.961269
 20
176.513884
 30
0.0
 40
7.499999999998622
100
AcDbArc
 50
270.0
 51
0.0
1001
MCSXDATA5
1071
      167
1004
06000000000000008B0000001C000000E404000000000000000000001F050A025C020509020FEE020C4D43535F46494C4C45545F3109020FEE020C4D43535F46494C4C45545F3209020FEE020C4D43535F46494C4C45545F3309020FEE020C4D43535F46494C4C45545F3409020FEE020C4D43535F46494C4C45545F351202
1004
2602050201030201030202020103020326020402010302012202010302010302010201030201221A
  0
LINE
  5
F71
330
1F
100
AcDbEntity
  8
0
100
AcDbLine
 10
608.461269
 20
243.513884
 30
0.0
 11
608.461269
 21
176.513884
 31
0.0
  0
ARC
  5
F72
330
1F
100
AcDbEntity
  8
0
100
AcDbCircle
 10
600.961269
 20
243.513884
 30
0.0
 40
7.499999999999318
100
AcDbArc
 50
0.0
 51
90.0
1001
MCSXDATA5
1071
      167
1004
06000000000000008B0000001C000000E404000000000000000000001F050A025C020509020FEE020C4D43535F46494C4C45545F3109020FEE020C4D43535F46494C4C45545F3209020FEE020C4D43535F46494C4C45545F3309020FEE020C4D43535F46494C4C45545F3409020FEE020C4D43535F46494C4C45545F351202
1004
2602050201030201030202020103020326020402010302012202010302010302010201030201221A
  0
LINE
  5
F73
330
1F
100
AcDbEntity
  8
0
100
AcDbLine
 10
600.961269
 20
251.013884
 30
0.0
 11
488.961269
 21
251.013884
 31
0.0
  0
ARC
  5
F74
330
1F
100
AcDbEntity
  8
0
100
AcDbCircle
 10
488.961269
 20
243.513884
 30
0.0
 40
7.500000000000405
100
AcDbArc
 50
90.0
 51
180.0
1001
MCSXDATA5
1071
      167
1004
06000000000000008B0000001C000000E404000000000000000000001F050A025C020509020FEE020C4D43535F46494C4C45545F3109020FEE020C4D43535F46494C4C45545F3209020FEE020C4D43535F46494C4C45545F3309020FEE020C4D43535F46494C4C45545F3409020FEE020C4D43535F46494C4C45545F351202
1004
2602050201030201030202020103020326020402010302012202010302010302010201030201221A
  0
LINE
  5
F75
330
1F
100
AcDbEntity
  8
0
100
AcDbLine
 10
481.461269
 20
243.513884
 30
0.0
 11
481.461269
 21
176.513884
 31
0.0
  0
ARC
  5
F76
330
1F
100
AcDbEntity
  8
0
100
AcDbCircle
 10
488.961269
 20
176.513884
 30
0.0
 40
7.500000000003922
100
AcDbArc
 50
180.0
 51
270.0
1001
MCSXDATA5
1071
      167
1004
06000000000000008B0000001C000000E404000000000000000000001F050A025C020509020FEE020C4D43535F46494C4C45545F3109020FEE020C4D43535F46494C4C45545F3209020FEE020C4D43535F46494C4C45545F3309020FEE020C4D43535F46494C4C45545F3409020FEE020C4D43535F46494C4C45545F351202
1004
2602050201030201030202020103020326020402010302012202010302010302010201030201221A
  0
ARC
  5
F77
330
1F
100
AcDbEntity
  8
0
100
AcDbCircle
 10
534.555593
 20
171.013884
 30
0.0
 40
2.000000000012818
100
AcDbArc
 50
180.0
 51
270.0
1001
MCSXDATA5
1071
      167
1004
06000000000000008B0000001C000000E404000000000000000000001F050A025C020509020FEE020C4D43535F46494C4C45545F3109020FEE020C4D43535F46494C4C45545F3209020FEE020C4D43535F46494C4C45545F3309020FEE020C4D43535F46494C4C45545F3409020FEE020C4D43535F46494C4C45545F351202
1004
2602050201030201030202020103020326020202010302012202010302010302010201030201221A
  0
ARC
  5
F78
330
1F
100
AcDbEntity
  8
0
100
AcDbCircle
 10
500.555593
 20
171.013884
 30
0.0
 40
2.00000000000054
100
AcDbArc
 50
270.0
 51
0.0
1001
MCSXDATA5
1071
      167
1004
06000000000000008B0000001C000000E404000000000000000000001F050A025C020509020FEE020C4D43535F46494C4C45545F3109020FEE020C4D43535F46494C4C45545F3209020FEE020C4D43535F46494C4C45545F3309020FEE020C4D43535F46494C4C45545F3409020FEE020C4D43535F46494C4C45545F351202
1004
2602050201030201030202020103020326020202010302012202010302010302010201030201221A
  0
CIRCLE
  5
F79
330
1F
100
AcDbEntity
  8
0
100
AcDbCircle
 10
599.375482
 20
241.928098
 30
0.0
 40
1.1
  0
CIRCLE
  5
F7A
330
1F
100
AcDbEntity
  8
0
100
AcDbCircle
 10
599.375482
 20
178.099671
 30
0.0
 40
1.1
  0
CIRCLE
  5
F7B
330
1F
100
AcDbEntity
  8
0
100
AcDbCircle
 10
490.547055
 20
241.928098
 30
0.0
 40
1.1
  0
CIRCLE
  5
F7C
330
1F
100
AcDbEntity
  8
0
100
AcDbCircle
 10
490.547055
 20
178.099671
 30
0.0
 40
1.1
  0
LINE
  5
F7D
330
1F
100
AcDbEntity
  8
0
100
AcDbLine
 10
502.555593
 20
182.513884
 30
0.0
 11
494.961269
 21
182.513884
 31
0.0
  0
LINE
  5
F7E
330
1F
100
AcDbEntity
  8
0
100
AcDbLine
 10
500.555593
 20
169.013884
 30
0.0
 11
488.961269
 21
169.013884
 31
0.0
  0
LINE
  5
F7F
330
1F
100
AcDbEntity
  8
0
100
AcDbLine
 10
600.961269
 20
169.013884
 30
0.0
 11
534.555593
 21
169.013884
 31
0.0
  0
LINE
  5
F80
330
1F
100
AcDbEntity
  8
0
100
AcDbLine
 10
532.555593
 20
182.513884
 30
0.0
 11
594.961269
 21
182.513884
 31
0.0
  0
LINE
  5
F81
330
1F
100
AcDbEntity
  8
0
100
AcDbLine
 10
412.463454
 20
172.532176
 30
0.0
 11
448.363454
 21
172.532176
 31
0.0
  0
LINE
  5
F82
330
1F
100
AcDbEntity
  8
0
100
AcDbLine
 10
412.463454
 20
172.532176
 30
0.0
 11
412.463454
 21
199.432176
 31
0.0
  0
LINE
  5
F83
330
1F
100
AcDbEntity
  8
0
100
AcDbLine
 10
448.363454
 20
172.532176
 30
0.0
 11
448.363454
 21
199.432176
 31
0.0
  0
LINE
  5
F84
330
1F
100
AcDbEntity
  8
0
100
AcDbLine
 10
412.463454
 20
199.432176
 30
0.0
 11
448.363454
 21
199.432176
 31
0.0
  0
LINE
  5
F85
330
1F
100
AcDbEntity
  8
0
100
AcDbLine
 10
738.009491
 20
48.614487
 30
0.0
 11
738.009491
 21
148.614487
 31
0.0
  0
LINE
  5
F86
330
1F
100
AcDbEntity
  8
0
100
AcDbLine
 10
738.009491
 20
148.614487
 30
0.0
 11
683.009491
 21
148.614487
 31
0.0
  0
LINE
  5
F87
330
1F
100
AcDbEntity
  8
0
100
AcDbLine
 10
738.009491
 20
48.614487
 30
0.0
 11
683.009491
 21
48.614487
 31
0.0
  0
LINE
  5
F88
330
1F
100
AcDbEntity
  8
0
100
AcDbLine
 10
748.009491
 20
42.614487
 30
0.0
 11
748.009491
 21
154.614487
 31
0.0
  0
LINE
  5
F89
330
1F
100
AcDbEntity
  8
0
100
AcDbLine
 10
744.009491
 20
38.614487
 30
0.0
 11
677.009491
 21
38.614487
 31
0.0
  0
LINE
  5
F8A
330
1F
100
AcDbEntity
  8
0
100
AcDbLine
 10
744.009491
 20
158.614487
 30
0.0
 11
677.009491
 21
158.614487
 31
0.0
  0
ARC
  5
F8B
330
1F
100
AcDbEntity
  8
0
100
AcDbCircle
 10
677.009491
 20
42.614487
 30
0.0
 40
3.999999999998622
100
AcDbArc
 50
180.0
 51
270.0
1001
MCSXDATA5
1071
      167
1004
06000000000000008B0000001C000000E404000000000000000000001F050A025C020509020FEE020C4D43535F46494C4C45545F3109020FEE020C4D43535F46494C4C45545F3209020FEE020C4D43535F46494C4C45545F3309020FEE020C4D43535F46494C4C45545F3409020FEE020C4D43535F46494C4C45545F351202
1004
2602050201030201030202020103020326020402010302012202010302010302010201030201221A
  0
ARC
  5
F8C
330
1F
100
AcDbEntity
  8
0
100
AcDbCircle
 10
677.009491
 20
154.614487
 30
0.0
 40
4.000000000003922
100
AcDbArc
 50
90.0
 51
180.0
1001
MCSXDATA5
1071
      167
1004
06000000000000008B0000001C000000E404000000000000000000001F050A025C020509020FEE020C4D43535F46494C4C45545F3109020FEE020C4D43535F46494C4C45545F3209020FEE020C4D43535F46494C4C45545F3309020FEE020C4D43535F46494C4C45545F3409020FEE020C4D43535F46494C4C45545F351202
1004
2602050201030201030202020103020326020402010302012202010302010302010201030201221A
  0
ARC
  5
F8D
330
1F
100
AcDbEntity
  8
0
100
AcDbCircle
 10
744.009491
 20
154.614487
 30
0.0
 40
4.000000000000405
100
AcDbArc
 50
0.0
 51
90.0
1001
MCSXDATA5
1071
      167
1004
06000000000000008B0000001C000000E404000000000000000000001F050A025C020509020FEE020C4D43535F46494C4C45545F3109020FEE020C4D43535F46494C4C45545F3209020FEE020C4D43535F46494C4C45545F3309020FEE020C4D43535F46494C4C45545F3409020FEE020C4D43535F46494C4C45545F351202
1004
2602050201030201030202020103020326020402010302012202010302010302010201030201221A
  0
ARC
  5
F8E
330
1F
100
AcDbEntity
  8
0
100
AcDbCircle
 10
744.009491
 20
42.614487
 30
0.0
 40
3.999999999999318
100
AcDbArc
 50
270.0
 51
0.0
1001
MCSXDATA5
1071
      167
1004
06000000000000008B0000001C000000E404000000000000000000001F050A025C020509020FEE020C4D43535F46494C4C45545F3109020FEE020C4D43535F46494C4C45545F3209020FEE020C4D43535F46494C4C45545F3309020FEE020C4D43535F46494C4C45545F3409020FEE020C4D43535F46494C4C45545F351202
1004
2602050201030201030202020103020326020402010302012202010302010302010201030201221A
  0
ARC
  5
F8F
330
1F
100
AcDbEntity
  8
0
100
AcDbCircle
 10
675.009491
 20
109.020163
 30
0.0
 40
2.000000000002075
100
AcDbArc
 50
90.0
 51
180.0
1001
MCSXDATA5
1071
      167
1004
06000000000000008B0000001C000000E404000000000000000000001F050A025C020509020FEE020C4D43535F46494C4C45545F3109020FEE020C4D43535F46494C4C45545F3209020FEE020C4D43535F46494C4C45545F3309020FEE020C4D43535F46494C4C45545F3409020FEE020C4D43535F46494C4C45545F351202
1004
2602050201030201030202020103020326020202010302012202010302010302010201030201221A
  0
ARC
  5
F90
330
1F
100
AcDbEntity
  8
0
100
AcDbCircle
 10
675.009491
 20
143.020163
 30
0.0
 40
1.999999999999446
100
AcDbArc
 50
180.0
 51
270.0
1001
MCSXDATA5
1071
      167
1004
06000000000000008B0000001C000000E404000000000000000000001F050A025C020509020FEE020C4D43535F46494C4C45545F3109020FEE020C4D43535F46494C4C45545F3209020FEE020C4D43535F46494C4C45545F3309020FEE020C4D43535F46494C4C45545F3409020FEE020C4D43535F46494C4C45545F351202
1004
2602050201030201030202020103020326020202010302012202010302010302010201030201221A
  0
LINE
  5
F91
330
1F
100
AcDbEntity
  8
0
100
AcDbLine
 10
680.009491
 20
108.020163
 30
0.0
 11
676.959491
 21
108.020163
 31
0.0
  0
LINE
  5
F92
330
1F
100
AcDbEntity
  8
0
100
AcDbLine
 10
683.009491
 20
111.020163
 30
0.0
 11
680.009491
 21
111.020163
 31
0.0
  0
LINE
  5
F93
330
1F
100
AcDbEntity
  8
0
100
AcDbLine
 10
676.959491
 20
111.020163
 30
0.0
 11
675.009491
 21
111.020163
 31
0.0
  0
LINE
  5
F94
330
1F
100
AcDbEntity
  8
0
100
AcDbLine
 10
676.959491
 20
111.020163
 30
0.0
 11
676.959491
 21
108.020163
 31
0.0
  0
LINE
  5
F95
330
1F
100
AcDbEntity
  8
0
100
AcDbLine
 10
680.009491
 20
111.020163
 30
0.0
 11
680.009491
 21
108.020163
 31
0.0
  0
LINE
  5
F96
330
1F
100
AcDbEntity
  8
0
100
AcDbLine
 10
683.009491
 20
141.020163
 30
0.0
 11
680.009491
 21
141.020163
 31
0.0
  0
LINE
  5
F97
330
1F
100
AcDbEntity
  8
0
100
AcDbLine
 10
676.959491
 20
141.020163
 30
0.0
 11
675.009491
 21
141.020163
 31
0.0
  0
LINE
  5
F98
330
1F
100
AcDbEntity
  8
0
100
AcDbLine
 10
676.959491
 20
144.020163
 30
0.0
 11
676.959491
 21
141.020163
 31
0.0
  0
LINE
  5
F99
330
1F
100
AcDbEntity
  8
0
100
AcDbLine
 10
680.009491
 20
144.020163
 30
0.0
 11
680.009491
 21
141.020163
 31
0.0
  0
LINE
  5
F9A
330
1F
100
AcDbEntity
  8
0
100
AcDbLine
 10
680.009491
 20
144.020163
 30
0.0
 11
676.959491
 21
144.020163
 31
0.0
  0
CIRCLE
  5
F9B
330
1F
100
AcDbEntity
  8
0
100
AcDbCircle
 10
742.423705
 20
44.200274
 30
0.0
 40
1.1
  0
CIRCLE
  5
F9C
330
1F
100
AcDbEntity
  8
0
100
AcDbCircle
 10
678.595277
 20
44.200274
 30
0.0
 40
1.1
  0
CIRCLE
  5
F9D
330
1F
100
AcDbEntity
  8
0
100
AcDbCircle
 10
742.423705
 20
153.028701
 30
0.0
 40
1.1
  0
CIRCLE
  5
F9E
330
1F
100
AcDbEntity
  8
0
100
AcDbCircle
 10
678.595277
 20
153.028701
 30
0.0
 40
1.1
  0
LINE
  5
F9F
330
1F
100
AcDbEntity
  8
0
100
AcDbLine
 10
683.009491
 20
48.614487
 30
0.0
 11
683.009491
 21
111.020163
 31
0.0
  0
LINE
  5
FA0
330
1F
100
AcDbEntity
  8
0
100
AcDbLine
 10
673.009491
 20
109.020163
 30
0.0
 11
673.009491
 21
42.614487
 31
0.0
  0
LINE
  5
FA1
330
1F
100
AcDbEntity
  8
0
100
AcDbLine
 10
683.009491
 20
141.020163
 30
0.0
 11
683.009491
 21
148.614487
 31
0.0
  0
LINE
  5
FA2
330
1F
100
AcDbEntity
  8
0
100
AcDbLine
 10
673.009491
 20
143.020163
 30
0.0
 11
673.009491
 21
154.614487
 31
0.0
  0
LINE
  5
FA3
330
1F
100
AcDbEntity
  8
0
100
AcDbLine
 10
658.030766
 20
238.026663
 30
0.0
 11
658.030766
 21
138.026663
 31
0.0
  0
LINE
  5
FA4
330
1F
100
AcDbEntity
  8
0
100
AcDbLine
 10
658.030766
 20
138.026663
 30
0.0
 11
713.030766
 21
138.026663
 31
0.0
  0
LINE
  5
FA5
330
1F
100
AcDbEntity
  8
0
100
AcDbLine
 10
658.030766
 20
238.026663
 30
0.0
 11
713.030766
 21
238.026663
 31
0.0
  0
LINE
  5
FA6
330
1F
100
AcDbEntity
  8
0
100
AcDbLine
 10
716.030766
 20
178.620988
 30
0.0
 11
719.080766
 21
178.620988
 31
0.0
  0
LINE
  5
FA7
330
1F
100
AcDbEntity
  8
0
100
AcDbLine
 10
713.030766
 20
175.620988
 30
0.0
 11
716.030766
 21
175.620988
 31
0.0
  0
LINE
  5
FA8
330
1F
100
AcDbEntity
  8
0
100
AcDbLine
 10
719.080766
 20
175.620988
 30
0.0
 11
724.530766
 21
175.620988
 31
0.0
  0
LINE
  5
FA9
330
1F
100
AcDbEntity
  8
0
100
AcDbLine
 10
719.080766
 20
175.620988
 30
0.0
 11
719.080766
 21
178.620988
 31
0.0
  0
LINE
  5
FAA
330
1F
100
AcDbEntity
  8
0
100
AcDbLine
 10
716.030766
 20
175.620988
 30
0.0
 11
716.030766
 21
178.620988
 31
0.0
  0
LINE
  5
FAB
330
1F
100
AcDbEntity
  8
0
100
AcDbLine
 10
713.030766
 20
145.620988
 30
0.0
 11
716.030766
 21
145.620988
 31
0.0
  0
LINE
  5
FAC
330
1F
100
AcDbEntity
  8
0
100
AcDbLine
 10
719.080766
 20
145.620988
 30
0.0
 11
724.530766
 21
145.620988
 31
0.0
  0
LINE
  5
FAD
330
1F
100
AcDbEntity
  8
0
100
AcDbLine
 10
719.080766
 20
142.620988
 30
0.0
 11
719.080766
 21
145.620988
 31
0.0
  0
LINE
  5
FAE
330
1F
100
AcDbEntity
  8
0
100
AcDbLine
 10
716.030766
 20
142.620988
 30
0.0
 11
716.030766
 21
145.620988
 31
0.0
  0
LINE
  5
FAF
330
1F
100
AcDbEntity
  8
0
100
AcDbLine
 10
716.030766
 20
142.620988
 30
0.0
 11
719.080766
 21
142.620988
 31
0.0
  0
ARC
  5
FB0
330
1F
100
AcDbEntity
  8
0
100
AcDbCircle
 10
719.030766
 20
244.026663
 30
0.0
 40
7.499999999998622
100
AcDbArc
 50
0.0
 51
90.0
1001
MCSXDATA5
1071
      167
1004
06000000000000008B0000001C000000E404000000000000000000001F050A025C020509020FEE020C4D43535F46494C4C45545F3109020FEE020C4D43535F46494C4C45545F3209020FEE020C4D43535F46494C4C45545F3309020FEE020C4D43535F46494C4C45545F3409020FEE020C4D43535F46494C4C45545F351202
1004
2602050201030201030202020103020326020402010302012202010302010302010201030201221A
  0
LINE
  5
FB1
330
1F
100
AcDbEntity
  8
0
100
AcDbLine
 10
652.030766
 20
251.526663
 30
0.0
 11
719.030766
 21
251.526663
 31
0.0
  0
ARC
  5
FB2
330
1F
100
AcDbEntity
  8
0
100
AcDbCircle
 10
652.030766
 20
244.026663
 30
0.0
 40
7.499999999999318
100
AcDbArc
 50
90.0
 51
180.0
1001
MCSXDATA5
1071
      167
1004
06000000000000008B0000001C000000E404000000000000000000001F050A025C020509020FEE020C4D43535F46494C4C45545F3109020FEE020C4D43535F46494C4C45545F3209020FEE020C4D43535F46494C4C45545F3309020FEE020C4D43535F46494C4C45545F3409020FEE020C4D43535F46494C4C45545F351202
1004
2602050201030201030202020103020326020402010302012202010302010302010201030201221A
  0
LINE
  5
FB3
330
1F
100
AcDbEntity
  8
0
100
AcDbLine
 10
644.530766
 20
244.026663
 30
0.0
 11
644.530766
 21
132.026663
 31
0.0
  0
ARC
  5
FB4
330
1F
100
AcDbEntity
  8
0
100
AcDbCircle
 10
652.030766
 20
132.026663
 30
0.0
 40
7.500000000000405
100
AcDbArc
 50
180.0
 51
270.0
1001
MCSXDATA5
1071
      167
1004
06000000000000008B0000001C000000E404000000000000000000001F050A025C020509020FEE020C4D43535F46494C4C45545F3109020FEE020C4D43535F46494C4C45545F3209020FEE020C4D43535F46494C4C45545F3309020FEE020C4D43535F46494C4C45545F3409020FEE020C4D43535F46494C4C45545F351202
1004
2602050201030201030202020103020326020402010302012202010302010302010201030201221A
  0
LINE
  5
FB5
330
1F
100
AcDbEntity
  8
0
100
AcDbLine
 10
652.030766
 20
124.526663
 30
0.0
 11
719.030766
 21
124.526663
 31
0.0
  0
ARC
  5
FB6
330
1F
100
AcDbEntity
  8
0
100
AcDbCircle
 10
719.030766
 20
132.026663
 30
0.0
 40
7.500000000003922
100
AcDbArc
 50
270.0
 51
0.0
1001
MCSXDATA5
1071
      167
1004
06000000000000008B0000001C000000E404000000000000000000001F050A025C020509020FEE020C4D43535F46494C4C45545F3109020FEE020C4D43535F46494C4C45545F3209020FEE020C4D43535F46494C4C45545F3309020FEE020C4D43535F46494C4C45545F3409020FEE020C4D43535F46494C4C45545F351202
1004
2602050201030201030202020103020326020402010302012202010302010302010201030201221A
  0
ARC
  5
FB7
330
1F
100
AcDbEntity
  8
0
100
AcDbCircle
 10
724.530766
 20
177.620988
 30
0.0
 40
2.000000000012818
100
AcDbArc
 50
270.0
 51
0.0
1001
MCSXDATA5
1071
      167
1004
06000000000000008B0000001C000000E404000000000000000000001F050A025C020509020FEE020C4D43535F46494C4C45545F3109020FEE020C4D43535F46494C4C45545F3209020FEE020C4D43535F46494C4C45545F3309020FEE020C4D43535F46494C4C45545F3409020FEE020C4D43535F46494C4C45545F351202
1004
2602050201030201030202020103020326020202010302012202010302010302010201030201221A
  0
ARC
  5
FB8
330
1F
100
AcDbEntity
  8
0
100
AcDbCircle
 10
724.530766
 20
143.620988
 30
0.0
 40
2.00000000000054
100
AcDbArc
 50
0.0
 51
90.0
1001
MCSXDATA5
1071
      167
1004
06000000000000008B0000001C000000E404000000000000000000001F050A025C020509020FEE020C4D43535F46494C4C45545F3109020FEE020C4D43535F46494C4C45545F3209020FEE020C4D43535F46494C4C45545F3309020FEE020C4D43535F46494C4C45545F3409020FEE020C4D43535F46494C4C45545F351202
1004
2602050201030201030202020103020326020202010302012202010302010302010201030201221A
  0
CIRCLE
  5
FB9
330
1F
100
AcDbEntity
  8
0
100
AcDbCircle
 10
653.616553
 20
242.440877
 30
0.0
 40
1.1
  0
CIRCLE
  5
FBA
330
1F
100
AcDbEntity
  8
0
100
AcDbCircle
 10
717.44498
 20
242.440877
 30
0.0
 40
1.1
  0
CIRCLE
  5
FBB
330
1F
100
AcDbEntity
  8
0
100
AcDbCircle
 10
653.616553
 20
133.61245
 30
0.0
 40
1.1
  0
CIRCLE
  5
FBC
330
1F
100
AcDbEntity
  8
0
100
AcDbCircle
 10
717.44498
 20
133.61245
 30
0.0
 40
1.1
  0
LINE
  5
FBD
330
1F
100
AcDbEntity
  8
0
100
AcDbLine
 10
713.030766
 20
145.620988
 30
0.0
 11
713.030766
 21
138.026663
 31
0.0
  0
LINE
  5
FBE
330
1F
100
AcDbEntity
  8
0
100
AcDbLine
 10
726.530766
 20
143.620988
 30
0.0
 11
726.530766
 21
132.026663
 31
0.0
  0
LINE
  5
FBF
330
1F
100
AcDbEntity
  8
0
100
AcDbLine
 10
726.530766
 20
244.026663
 30
0.0
 11
726.530766
 21
177.620988
 31
0.0
  0
LINE
  5
FC0
330
1F
100
AcDbEntity
  8
0
100
AcDbLine
 10
713.030766
 20
175.620988
 30
0.0
 11
713.030766
 21
238.026663
 31
0.0
  0
LINE
  5
FC1
330
1F
100
AcDbEntity
  8
0
100
AcDbLine
 10
723.012475
 20
55.528849
 30
0.0
 11
723.012475
 21
91.428849
 31
0.0
  0
LINE
  5
FC2
330
1F
100
AcDbEntity
  8
0
100
AcDbLine
 10
723.012475
 20
55.528849
 30
0.0
 11
696.112475
 21
55.528849
 31
0.0
  0
LINE
  5
FC3
330
1F
100
AcDbEntity
  8
0
100
AcDbLine
 10
723.012475
 20
91.428849
 30
0.0
 11
696.112475
 21
91.428849
 31
0.0
  0
LINE
  5
FC4
330
1F
100
AcDbEntity
  8
0
100
AcDbLine
 10
696.112475
 20
55.528849
 30
0.0
 11
696.112475
 21
91.428849
 31
0.0
  0
VIEWPORT
  5
20F
330
D6
100
AcDbEntity
 67
     1
  8
0
 48
100.0
100
AcDbViewport
 68
     1
 10
0.0
 20
0.0
 30
0.0
 40
466.965848
 41
238.196088
 68
     1
 69
     1
1001
ACAD
1000
MVIEW
1002
{
1070
    16
1010
0.0
1020
0.0
1030
0.0
1010
0.0
1020
0.0
1030
1.0
1040
0.0
1040
238.196088
1040
128.5
1040
97.5
1040
50.0
1040
0.0
1040
0.0
1070
    16
1070
   100
1070
     0
1070
     3
1070
     0
1070
     0
1070
     0
1070
     0
1040
0.0
1040
0.0
1040
0.0
1040
10.0
1040
10.0
1040
10.0
1040
10.0
1070
     0
1002
{
1002
}
1002
}
  0
ENDSEC
  0
SECTION
  2
OBJECTS
  0
DICTIONARY
  5
C
330
0
100
AcDbDictionary
  3
ACAD_COLOR
350
6B
  3
ACAD_GROUP
350
D
  3
ACAD_IMAGE_DICT
350
351
  3
ACAD_LAYOUT
350
1A
  3
ACAD_MATERIAL
350
6A
  3
ACAD_MLEADERSTYLE
350
12D
  3
ACAD_MLINESTYLE
350
17
  3
ACAD_PLOTSETTINGS
350
19
  3
ACAD_SCALELIST
350
10C
  3
ACAD_VISUALSTYLE
350
EF
  3
ACDBHEADERROUNDTRIPXREC
350
FC6
  3
ACDBVARIABLEDICTIONARY
350
5E
  3
DWGPROPS
350
FC9
  3
HOST_DOC_SETTINGS
350
365
  3
MCS_STREAM_DICT
350
34E
1001
ACAD
1000
TREAT_AS_HARD
1070
     0
  0
DICTIONARY
  5
234
330
1F
100
AcDbDictionary
  3
ACAD_SORTENTS
360
235
1001
ACAD
1000
TREAT_AS_HARD
1070
     1
  0
DICTIONARY
  5
6B
102
{ACAD_REACTORS
330
C
102
}
330
C
100
AcDbDictionary
1001
ACAD
1000
TREAT_AS_HARD
1070
     0
  0
DICTIONARY
  5
D
102
{ACAD_REACTORS
330
C
102
}
330
C
100
AcDbDictionary
1001
ACAD
1000
TREAT_AS_HARD
1070
     0
  0
DICTIONARY
  5
351
102
{ACAD_REACTORS
330
C
102
}
330
C
100
AcDbDictionary
1001
ACAD
1000
TREAT_AS_HARD
1070
     0
  0
DICTIONARY
  5
1A
102
{ACAD_REACTORS
330
C
102
}
330
C
100
AcDbDictionary
1001
ACAD
1000
TREAT_AS_HARD
1070
     0
  0
DICTIONARY
  5
6A
102
{ACAD_REACTORS
330
C
102
}
330
C
100
AcDbDictionary
  3
BYBLOCK
350
ED
  3
BYLAYER
350
EC
  3
GLOBAL
350
EE
1001
ACAD
1000
TREAT_AS_HARD
1070
     0
  0
DICTIONARY
  5
12D
102
{ACAD_REACTORS
330
C
102
}
330
C
100
AcDbDictionary
  3
STANDARD
350
12E
  3

350
13B
1001
ACAD
1000
TREAT_AS_HARD
1070
     0
  0
DICTIONARY
  5
17
102
{ACAD_REACTORS
330
C
102
}
330
C
100
AcDbDictionary
  3
STANDARD
350
18
1001
ACAD
1000
TREAT_AS_HARD
1070
     0
  0
DICTIONARY
  5
19
102
{ACAD_REACTORS
330
C
102
}
330
C
100
AcDbDictionary
1001
ACAD
1000
TREAT_AS_HARD
1070
     0
  0
DICTIONARY
  5
10C
102
{ACAD_REACTORS
330
C
102
}
330
C
100
AcDbDictionary
  3
A0
350
10D
  3
A1
350
1BE
  3
A2
350
1BF
  3
A3
350
1C0
  3
A4
350
1C1
  3
A5
350
1C2
  3
A6
350
1C3
  3
A7
350
1C4
  3
A8
350
1C5
  3
A9
350
1C6
  3
B0
350
1C7
  3
B1
350
1C8
  3
B2
350
1C9
  3
B3
350
1CA
  3
B4
350
1CB
  3
B5
350
1CC
  3
B6
350
1CD
1001
ACAD
1000
TREAT_AS_HARD
1070
     0
  0
DICTIONARY
  5
EF
102
{ACAD_REACTORS
330
C
102
}
330
C
100
AcDbDictionary
  3
2DWIREFRAME
350
F5
  3
3D_HIDDEN
350
F7
  3
3DWIREFRAME
350
F6
  3
BASIC
350
F4
  3
BRIGHTEN
350
FB
  3
COLORCHANGE
350
FF
  3
CONCEPTUAL
350
F8
  3
DIM
350
FA
  3
EDGECOLOROFF
350
35E
  3
FACEPATTERN
350
FE
  3
FLAT
350
F0
  3
FLATWITHEDGES
350
F1
  3
GOURAUD
350
F2
  3
GOURAUDWITHEDGES
350
F3
  3
HIDDEN
350
35B
  3
JITTEROFF
350
35C
  3
LINEPATTERN
350
FD
  3
OVERHANGOFF
350
35D
  3
REALISTIC
350
F9
  3
SHADED
350
363
  3
SHADED_WITH_EDGES
350
362
  3
SHADES_OF_GRAY
350
35F
  3
SKETCHY
350
360
  3
THICKEN
350
FC
  3
WIREFRAME
350
35A
  3
X-RAY
350
361
1001
ACAD
1000
TREAT_AS_HARD
1070
     0
  0
DICTIONARY
  5
FC6
102
{ACAD_REACTORS
330
C
102
}
330
C
100
AcDbDictionary
  3
COLORDICT
350
FC7
  3
MATERIALDICT
350
FC8
1001
ACAD
1000
TREAT_AS_HARD
1070
     0
  0
DICTIONARY
  5
5E
102
{ACAD_REACTORS
330
C
102
}
330
C
100
AcDbDictionary
  3
CANNOSCALE
350
146
  3
CMLEADERSTYLE
350
145
  3
CTABLESTYLE
350
84
  3
DIMASSOC
350
5F
  3
HIDETEXT
350
63
  3
LAYEREVAL
350
1AE
  3
LAYERNOTIFY
350
1AF
  3
MSLTSCALE
350
D03
  3
PSOLHEIGHT
350
CFE
  3
PSOLWIDTH
350
CFD
  3
XCLIPFRAME
350
356
1001
ACAD
1000
TREAT_AS_HARD
1070
     0
  0
XRECORD
  5
FC9
102
{ACAD_REACTORS
330
C
102
}
330
C
100
AcDbXrecord
  1
DWGPROPS COOKIE
  2

  3

  4

  6

  7

  8
Autodesk
  9

300
=
301
=
302
=
303
=
304
=
305
=
306
=
307
=
308
=
309
=
 40
0.0
 41
2454082.908383
 42
2458667.770812
  1

 90
        0
  0
DICTIONARY
  5
365
102
{ACAD_REACTORS
330
C
102
}
330
C
100
AcDbDictionary
  3
NCDOCPARAMETERS
350
366
1001
ACAD
1000
TREAT_AS_HARD
1070
     0
  0
DICTIONARY
  5
34E
102
{ACAD_REACTORS
330
C
102
}
330
C
100
AcDbDictionary
  3
MC_VERSION_DATA
350
399
  3
MCS_DOCUMENT_ID
350
357
  3
MCS_PARAMS_DATA
350
38D
1001
ACAD
1000
TREAT_AS_HARD
1070
     0
  0
SORTENTSTABLE
  5
235
102
{ACAD_REACTORS
330
234
102
}
330
234
100
AcDbSortentsTable
330
1F
331
0
  5
237
  0
MATERIAL
  5
ED
102
{ACAD_REACTORS
330
6A
102
}
102
{ACAD_XDICTIONARY
360
FCA
102
}
330
6A
100
AcDbMaterial
  1
BYBLOCK
 73
     2
 78
     2
172
     2
176
     2
270
     2
274
     2
  0
MATERIAL
  5
EC
102
{ACAD_REACTORS
330
6A
102
}
102
{ACAD_XDICTIONARY
360
FCC
102
}
330
6A
100
AcDbMaterial
  1
BYLAYER
 73
     2
 78
     2
172
     2
176
     2
270
     2
274
     2
  0
MATERIAL
  5
EE
102
{ACAD_REACTORS
330
6A
102
}
102
{ACAD_XDICTIONARY
360
FCE
102
}
330
6A
100
AcDbMaterial
  1
GLOBAL
 73
     2
 43
0.0008
 43
0.0
 43
0.0
 43
0.0
 43
0.0
 43
0.0008
 43
0.0
 43
0.0
 43
0.0
 43
0.0
 43
1.0
 43
0.0
 43
0.0
 43
0.0
 43
0.0
 43
1.0
 78
     2
172
     2
 49
0.0008
 49
0.0
 49
0.0
 49
0.0
 49
0.0
 49
0.0008
 49
0.0
 49
0.0
 49
0.0
 49
0.0
 49
1.0
 49
0.0
 49
0.0
 49
0.0
 49
0.0
 49
1.0
176
     2
142
0.0008
142
0.0
142
0.0
142
0.0
142
0.0
142
0.0008
142
0.0
142
0.0
142
0.0
142
0.0
142
1.0
142
0.0
142
0.0
142
0.0
142
0.0
142
1.0
270
     2
144
0.0008
144
0.0
144
0.0
144
0.0
144
0.0
144
0.0008
144
0.0
144
0.0
144
0.0
144
0.0
144
1.0
144
0.0
144
0.0
144
0.0
144
0.0
144
1.0
274
     2
1001
ACAD
1070
    -1
1070
     3
1070
     0
1000

1071
        0
1070
     0
  0
ACAD_PROXY_OBJECT
  5
12E
102
{ACAD_REACTORS
330
12D
102
}
330
12D
100
AcDbZombieObject
 90
      499
 91
      508
 93
      610
310
40901902A4063FBFFFFFE0000000000000020400000000000020404214DD185B99185C990000000000000104090140501A00000000000004100000000000000041025764000000000000039000
340
14
340
0
340
11
340
0
 94
        0
1001
ACAD_MLEADERVER
1070
     2
  0
ACAD_PROXY_OBJECT
  5
13B
102
{ACAD_REACTORS
330
12D
102
}
330
12D
100
AcDbZombieObject
 90
      499
 91
      508
 93
      610
310
40901902A4063FBFFFFFE0000000000000020400000000000020404214DD185B99185C990000000000000104090140501A00000000000004100000000000000041025766000000000000039000
340
14
340
0
340
11
340
0
 94
        0
1001
ACAD_MLEADERVER
1070
     2
  0
MLINESTYLE
  5
18
102
{ACAD_REACTORS
330
17
102
}
330
17
100
AcDbMlineStyle
  2
STANDARD
 70
     0
  3

 62
   256
 51
90.0
 52
90.0
 71
     2
 49
0.5
 62
   256
  6
BYLAYER
 49
-0.5
 62
   256
  6
BYLAYER
  0
ACAD_PROXY_OBJECT
  5
10D
102
{ACAD_REACTORS
330
10C
102
}
330
10C
100
AcDbZombieObject
 90
      499
 91
      507
 93
       41
310
903313A31580
  0
ACAD_PROXY_OBJECT
  5
1BE
102
{ACAD_REACTORS
330
10C
102
}
330
10C
100
AcDbZombieObject
 90
      499
 91
      507
 93
      105
310
903313A324000000000000004000
  0
ACAD_PROXY_OBJECT
  5
1BF
102
{ACAD_REACTORS
330
10C
102
}
330
10C
100
AcDbZombieObject
 90
      499
 91
      507
 93
      105
310
903313A344000000000000104000
  0
ACAD_PROXY_OBJECT
  5
1C0
102
{ACAD_REACTORS
330
10C
102
}
330
10C
100
AcDbZombieObject
 90
      499
 91
      507
 93
      105
310
903313A354000000000000144000
  0
ACAD_PROXY_OBJECT
  5
1C1
102
{ACAD_REACTORS
330
10C
102
}
330
10C
100
AcDbZombieObject
 90
      499
 91
      507
 93
      105
310
903313A384000000000000204000
  0
ACAD_PROXY_OBJECT
  5
1C2
102
{ACAD_REACTORS
330
10C
102
}
330
10C
100
AcDbZombieObject
 90
      499
 91
      507
 93
      113
310
904313A31304000000000000244000
  0
ACAD_PROXY_OBJECT
  5
1C3
102
{ACAD_REACTORS
330
10C
102
}
330
10C
100
AcDbZombieObject
 90
      499
 91
      507
 93
      113
310
904313A31364000000000000304000
  0
ACAD_PROXY_OBJECT
  5
1C4
102
{ACAD_REACTORS
330
10C
102
}
330
10C
100
AcDbZombieObject
 90
      499
 91
      507
 93
      113
310
904313A32304000000000000344000
  0
ACAD_PROXY_OBJECT
  5
1C5
102
{ACAD_REACTORS
330
10C
102
}
330
10C
100
AcDbZombieObject
 90
      499
 91
      507
 93
      113
310
904313A333040000000000003E4000
  0
ACAD_PROXY_OBJECT
  5
1C6
102
{ACAD_REACTORS
330
10C
102
}
330
10C
100
AcDbZombieObject
 90
      499
 91
      507
 93
      113
310
904313A34304000000000000444000
  0
ACAD_PROXY_OBJECT
  5
1C7
102
{ACAD_REACTORS
330
10C
102
}
330
10C
100
AcDbZombieObject
 90
      499
 91
      507
 93
      113
310
904313A35304000000000000494000
  0
ACAD_PROXY_OBJECT
  5
1C8
102
{ACAD_REACTORS
330
10C
102
}
330
10C
100
AcDbZombieObject
 90
      499
 91
      507
 93
      121
310
905313A3130304000000000000594000
  0
ACAD_PROXY_OBJECT
  5
1C9
102
{ACAD_REACTORS
330
10C
102
}
330
10C
100
AcDbZombieObject
 90
      499
 91
      507
 93
      105
310
903323A310000000000000010100
  0
ACAD_PROXY_OBJECT
  5
1CA
102
{ACAD_REACTORS
330
10C
102
}
330
10C
100
AcDbZombieObject
 90
      499
 91
      507
 93
      105
310
903343A310000000000000410100
  0
ACAD_PROXY_OBJECT
  5
1CB
102
{ACAD_REACTORS
330
10C
102
}
330
10C
100
AcDbZombieObject
 90
      499
 91
      507
 93
      105
310
903383A310000000000000810100
  0
ACAD_PROXY_OBJECT
  5
1CC
102
{ACAD_REACTORS
330
10C
102
}
330
10C
100
AcDbZombieObject
 90
      499
 91
      507
 93
      113
310
90431303A310000000000000910100
  0
ACAD_PROXY_OBJECT
  5
1CD
102
{ACAD_REACTORS
330
10C
102
}
330
10C
100
AcDbZombieObject
 90
      499
 91
      507
 93
      121
310
9053130303A310000000000001650100
  0
ACAD_PROXY_OBJECT
  5
F5
102
{ACAD_REACTORS
330
EF
102
}
330
EF
100
AcDbZombieObject
 90
      499
 91
      506
 93
      444
310
42CC9915DA5C99599C985B59504902404333333333333E3BF0000000000000FB0107901411070040501600405405064090741402480A0340
1001
ACAD
1000
AcDbSavedByObjectVersion
1070
     0
  0
ACAD_PROXY_OBJECT
  5
F7
102
{ACAD_REACTORS
330
EF
102
}
330
EF
100
AcDbZombieObject
 90
      499
 91
      506
 93
      500
310
424CD108121A5919195B90640502408333333333333E3BF0000000000000FB01079024090700405020000000000001110200405405064090740C02480A0340
1001
ACAD
1000
AcDbSavedByObjectVersion
1070
     0
  0
ACAD_PROXY_OBJECT
  5
F6
102
{ACAD_REACTORS
330
EF
102
}
330
EF
100
AcDbZombieObject
 90
      499
 91
      506
 93
      444
310
42CCD915DA5C99599C985B59505902404333333333333E3BF0000000000000FB0107901411070040501600405405064090741402480A0340
1001
ACAD
1000
AcDbSavedByObjectVersion
1070
     0
  0
ACAD_PROXY_OBJECT
  5
F4
102
{ACAD_REACTORS
330
EF
102
}
330
EF
100
AcDbZombieObject
 90
      499
 91
      506
 93
      388
310
4150985CDA58D07406404333333333333E3BF0000000000000FB0107A41107004050150841D405064090741402480A0350
1001
ACAD
1000
AcDbSavedByObjectVersion
1070
     0
  0
ACAD_PROXY_OBJECT
  5
FB
102
{ACAD_REACTORS
330
EF
102
}
330
EF
100
AcDbZombieObject
 90
      499
 91
      506
 93
      436
310
42109C9A59DA1D195B90C40902404333333333333E3BF0000000000000FB010790141107004050150841D405064090741402480A029950
1001
ACAD
1000
AcDbSavedByObjectVersion
1070
     0
  0
ACAD_PROXY_OBJECT
  5
FF
102
{ACAD_REACTORS
330
EF
102
}
330
EF
100
AcDbZombieObject
 90
      499
 91
      506
 93
      452
310
42D0DBDB1BDC90DA185B99D95104090240C333333333333E3BF0000000000000FB0108901411070040501508421405064090741402480A0350
1001
ACAD
1000
AcDbSavedByObjectVersion
1070
     0
  0
ACAD_PROXY_OBJECT
  5
F8
102
{ACAD_REACTORS
330
EF
102
}
330
EF
100
AcDbZombieObject
 90
      499
 91
      506
 93
      508
310
4290DBDB98D95C1D1D585B10940D02404333333333333E3BF0000000000000FB0107902409070040501000000000000111010841D405064090740C02480A0340
1001
ACAD
1000
AcDbSavedByObjectVersion
1070
     0
  0
ACAD_PROXY_OBJECT
  5
FA
102
{ACAD_REACTORS
330
EF
102
}
330
EF
100
AcDbZombieObject
 90
      499
 91
      506
 93
      420
310
40D11A5B50B40902404333333333333E3BF0000000000000FB010790141107004050150841D405064090741402480A02677FFFFFD0
1001
ACAD
1000
AcDbSavedByObjectVersion
1070
     0
  0
ACAD_PROXY_OBJECT
  5
35E
102
{ACAD_REACTORS
330
EF
102
}
330
EF
100
AcDbZombieObject
 90
      499
 91
      506
 93
      452
310
43115919D950DBDB1BDC93D999916409028333333333333E33F0000000000000F9010790141107004050150841D405064090741402480A0350
1001
ACAD
1000
AcDbSavedByObjectVersion
1070
     0
  0
ACAD_PROXY_OBJECT
  5
FE
102
{ACAD_REACTORS
330
EF
102
}
330
EF
100
AcDbZombieObject
 90
      499
 91
      506
 93
      452
310
42D19858D95C185D1D195C9B90F40902404333333333333E3BF0000000000000FB010790141107004050150841D405064090741402480A0350
1001
ACAD
1000
AcDbSavedByObjectVersion
1070
     0
  0
ACAD_PROXY_OBJECT
  5
F0
102
{ACAD_REACTORS
330
EF
102
}
330
EF
100
AcDbZombieObject
 90
      499
 91
      506
 93
      388
310
41119B185D240901404333333333333E3BF0000000000000F9010740A41107004050150841D405064090741402480A0350
1001
ACAD
1000
AcDbSavedByObjectVersion
1070
     0
  0
ACAD_PROXY_OBJECT
  5
F1
102
{ACAD_REACTORS
330
EF
102
}
330
EF
100
AcDbZombieObject
 90
      499
 91
      506
 93
      476
310
43519B185D15DA5D1A115919D95CD0140901404333333333333E3BF0000000000000F9010740901411070040501600405405064090741402480A0350
1001
ACAD
1000
AcDbSavedByObjectVersion
1070
     0
  0
ACAD_PROXY_OBJECT
  5
F2
102
{ACAD_REACTORS
330
EF
102
}
330
EF
100
AcDbZombieObject
 90
      499
 91
      506
 93
      412
310
41D1DBDD5C985D5910240902404333333333333E3BF0000000000000F9010740A411070040501641D405064090741402480A0350
1001
ACAD
1000
AcDbSavedByObjectVersion
1070
     0
  0
ACAD_PROXY_OBJECT
  5
F3
102
{ACAD_REACTORS
330
EF
102
}
330
EF
100
AcDbZombieObject
 90
      499
 91
      506
 93
      500
310
4411DBDD5C985D5915DA5D1A115919D95CD0340902404333333333333E3BF0000000000000F9010740901411070040501600405405064090741402480A0350
1001
ACAD
1000
AcDbSavedByObjectVersion
1070
     0
  0
ACAD_PROXY_OBJECT
  5
35B
102
{ACAD_REACTORS
330
EF
102
}
330
EF
100
AcDbZombieObject
 90
      499
 91
      506
 93
      476
310
41921A5919195B90640502408333333333333E33F0000000000000F901079024090700405020000000000001110200405405064090740C02480A0340
1001
ACAD
1000
AcDbSavedByObjectVersion
1070
     0
  0
ACAD_PROXY_OBJECT
  5
35C
102
{ACAD_REACTORS
330
EF
102
}
330
EF
100
AcDbZombieObject
 90
      499
 91
      506
 93
      428
310
42529A5D1D195C93D999914409028333333333333E33F0000000000000F9010790141107004050150A41D405064090741402480A0350
1001
ACAD
1000
AcDbSavedByObjectVersion
1070
     0
  0
ACAD_PROXY_OBJECT
  5
FD
102
{ACAD_REACTORS
330
EF
102
}
330
EF
100
AcDbZombieObject
 90
      499
 91
      506
 93
      452
310
42D31A5B995C185D1D195C9B90E40902404333333333333E3BF0000000000000FB010790141107004050750841D405064090741402483A0350
1001
ACAD
1000
AcDbSavedByObjectVersion
1070
     0
  0
ACAD_PROXY_OBJECT
  5
35D
102
{ACAD_REACTORS
330
EF
102
}
330
EF
100
AcDbZombieObject
 90
      499
 91
      506
 93
      444
310
42D3DD995C9A185B99D3D999915409028333333333333E33F0000000000000F9010790141107004050150941D405064090741402480A0350
1001
ACAD
1000
AcDbSavedByObjectVersion
1070
     0
  0
ACAD_PROXY_OBJECT
  5
F9
102
{ACAD_REACTORS
330
EF
102
}
330
EF
100
AcDbZombieObject
 90
      499
 91
      506
 93
      428
310
425499585B1A5CDD1A58D0840902404333333333333E3BF0000000000000FB01079019070040501508421405064090741402480A1B40
1001
ACAD
1000
AcDbSavedByObjectVersion
1070
     0
  0
ACAD_PROXY_OBJECT
  5
363
102
{ACAD_REACTORS
330
EF
102
}
330
EF
100
AcDbZombieObject
 90
      499
 91
      506
 93
      420
310
4194DA1859195911B40902404333333333333E33F0000000000000F9010740A41107004050150800405405064090840C02480A0B40
1001
ACAD
1000
AcDbSavedByObjectVersion
1070
     0
  0
ACAD_PROXY_OBJECT
  5
362
102
{ACAD_REACTORS
330
EF
102
}
330
EF
100
AcDbZombieObject
 90
      499
 91
      506
 93
      516
310
4454DA18591959081DDA5D1A08195919D95CD1A40902404333333333333E33F0000000000000F901074090142907004050250800405405064090740C02480A0B40
1001
ACAD
1000
AcDbSavedByObjectVersion
1070
     0
  0
ACAD_PROXY_OBJECT
  5
35F
102
{ACAD_REACTORS
330
EF
102
}
330
EF
100
AcDbZombieObject
 90
      499
 91
      506
 93
      532
310
4394DA1859195CC81BD98811DC985E5174090240C333333333333E33F0000000000000F901079024090741D01000000000000111010841D405064090740C02480A0340
1001
ACAD
1000
AcDbSavedByObjectVersion
1070
     0
  0
ACAD_PROXY_OBJECT
  5
360
102
{ACAD_REACTORS
330
EF
102
}
330
EF
100
AcDbZombieObject
 90
      499
 91
      506
 93
      476
310
41D4DAD95D18DA1E51840502408333333333333E33F0000000000000F901079024090741D01000000000000111010B41D405064090741802480A0340
1001
ACAD
1000
AcDbSavedByObjectVersion
1070
     0
  0
ACAD_PROXY_OBJECT
  5
FC
102
{ACAD_REACTORS
330
EF
102
}
330
EF
100
AcDbZombieObject
 90
      499
 91
      506
 93
      420
310
41D51A1A58DAD95B90D40902404333333333333E3BF0000000000000FB010790141107004050150C41D405064090741402480A0350
1001
ACAD
1000
AcDbSavedByObjectVersion
1070
     0
  0
ACAD_PROXY_OBJECT
  5
35A
102
{ACAD_REACTORS
330
EF
102
}
330
EF
100
AcDbZombieObject
 90
      499
 91
      506
 93
      420
310
4255DA5C99599C985B595059028333333333333E33F0000000000000F90107901411070040501600405405064090740C02480A0340
1001
ACAD
1000
AcDbSavedByObjectVersion
1070
     0
  0
ACAD_PROXY_OBJECT
  5
361
102
{ACAD_REACTORS
330
EF
102
}
330
EF
100
AcDbZombieObject
 90
      499
 91
      506
 93
      404
310
41560B54985E51940902404000000000000E03F0000000000000F9010740501907004050150841D405064090740C02480A1B40
1001
ACAD
1000
AcDbSavedByObjectVersion
1070
     0
  0
XRECORD
  5
FC7
102
{ACAD_REACTORS
330
FC6
102
}
330
FC6
100
AcDbXrecord
340
6B
  0
XRECORD
  5
FC8
102
{ACAD_REACTORS
330
FC6
102
}
330
FC6
100
AcDbXrecord
340
6A
  0
DICTIONARYVAR
  5
146
102
{ACAD_REACTORS
330
5E
102
}
330
5E
100
DictionaryVariables
280
     0
  1
1:1
  0
DICTIONARYVAR
  5
145
102
{ACAD_REACTORS
330
5E
102
}
330
5E
100
DictionaryVariables
280
     0
  1
Standard
  0
DICTIONARYVAR
  5
84
102
{ACAD_REACTORS
330
5E
102
}
330
5E
100
DictionaryVariables
280
     0
  1
Standard
  0
DICTIONARYVAR
  5
5F
102
{ACAD_REACTORS
330
5E
102
}
330
5E
100
DictionaryVariables
280
     0
  1
2
  0
DICTIONARYVAR
  5
63
102
{ACAD_REACTORS
330
5E
102
}
330
5E
100
DictionaryVariables
280
     0
  1
1
  0
DICTIONARYVAR
  5
1AE
102
{ACAD_REACTORS
330
5E
102
}
330
5E
100
DictionaryVariables
280
     0
  1
0
  0
DICTIONARYVAR
  5
1AF
102
{ACAD_REACTORS
330
5E
102
}
330
5E
100
DictionaryVariables
280
     0
  1
0
  0
DICTIONARYVAR
  5
D03
102
{ACAD_REACTORS
330
5E
102
}
330
5E
100
DictionaryVariables
280
     0
  1
1
  0
DICTIONARYVAR
  5
CFE
102
{ACAD_REACTORS
330
5E
102
}
330
5E
100
DictionaryVariables
280
     0
  1
80.000000
  0
DICTIONARYVAR
  5
CFD
102
{ACAD_REACTORS
330
5E
102
}
330
5E
100
DictionaryVariables
280
     0
  1
5.000000
  0
DICTIONARYVAR
  5
356
102
{ACAD_REACTORS
330
5E
102
}
330
5E
100
DictionaryVariables
280
     0
  1
0
  0
CSACDOCUMENTOPTIONS
  5
366
102
{ACAD_REACTORS
330
365
102
}
330
365
  0
XRECORD
  5
399
102
{ACAD_REACTORS
330
34E
102
}
330
34E
100
AcDbXrecord
300
MC_VERSION_DATA
 90
       95
310
0600000002000000570000001C000000E404000000000000000000007801936764E5D8CF7A8393818115C460606066E0646662626666706006F214793899F8DE3171E725E6E53B3BBA2878E6951050AF75FEFFFFFF520032DE0F3057000000
  0
XRECORD
  5
357
102
{ACAD_REACTORS
330
34E
102
}
330
34E
100
AcDbXrecord
1001
MCS_DOCUMENT_ID
1071
       45
1004
05000000000000001500000018000100E3040000000000000DBF618EF1E6FC7F438A70C1EC46F95924FFFFFFFF
  0
XRECORD
  5
38D
102
{ACAD_REACTORS
330
34E
102
}
330
34E
100
AcDbXrecord
300
MCS_PARAMS_DATA
 90
     3313
310
0600000002000000F64B00001C000000E404000000000000000000007801C55C5B6C5CC519DE9D595FD6B9DF494B53970A1A6F4A58DF92A6426A1A1210527090E23EF0543976A2BA75E25CAC160A6DA92AF5A55255A96AD556551F4A49A0CF15A03EC0438190865E482021147221409310B6900B3826B1FB7F7366CEFC73E6
310
1CAFBDDE3D9B07D8FF3F73CEF7DFE6FB67E6ECBA757EA3143929F767A4FCCE8636299AA49C90529036BB402C105929F279912F89C6DEAF6FD8BC69AB14A46C51EAC2B9898909BA39945F872C1FCD848A834A91A13B1AD51D6D5266E8A9FAF627E9AABE92BD45CA6F03BD81A3CFC24D59D990C96408C7E066656E0232E13A03
310
14B0AB01724443F05CC3F08780DFC8F19B03FC710A073DC8486413411B49060E3311A05C24C45064703B01D7CCE196A818E5C59C9268B967CBD6DED68ED59DC52EEB78BEF08E09F8223D745649346F1DE9DB35D0B777C089FC5FC3C8EB60BF1A286CF47FE3467F17CC59C5CD990B0CD948C1A77FB9F5CA0E4F479188EA541E
310
3C25A2E22BC99C8892456878B2821857F6B05492C2AD881B41409C21325211340605C9C6DC6006EC49AC088A0CCBB25B1159B72248E415019155047D5453031360047082A7405D92B72AB0F03379693EAB50870260AC609E2C6F6510BB3D081DFE4EF5EFECD71494A7B3590EC7F12C5B25CB32539229914732934ECE22AF1D
310
D259AC8B7B7649E437DE7BDFA69EADF76EE95186E95A7ED74C032DBFA66A9BF1CEF341B19B78E45DDED9EF56FE29189043E4814BF734E1FF34659991678231F23A51010DA578E8294D435524988818E84710A7B2643B4F7C134F5CC6936D1E4176D01398C4D0A83AE0A6BDC86B0BB5C3E1E8299D70A5A945AC12322FE697C4
310
9C8DC3BBBE34D2BA77FBEEA1BEFEED79D15C120DF70F0FEE1A093EF60C8FF47F4BCAB3B0ED666EDB17F5733E2B445B5E2C298985C507BB8BEBBA3A3A3774178B1D777FA5B36B9D327BBE1ED84C030BC74C9EDAB5B64D88BC405AEF1E1CD9D73A34B88F70838775AD5DDBD1B9B6BBABBB73A0ABA37F5D7BE0E757F57D1DB80F
310
037BFBB60D6D6F1DDED1DA3B3CB47D6FDF2EF8A0AD5933506CEF2FF6F7ADD9D6B56D5DFF9A60D6A95222FF670B51F8295953F8455019945B7EE9315C7A8AFEC352DE9D4B4A5050256AA6D1B42D5F0C265BEED4473538E9811F770DEFDCDD3732B86D706870E4A1D69DC303E45F6349C807B6EFCB8B8692103DC352AE816545
310
9E9E798813B5E9A692C86DD9B1A355A5424F8E0BF018466AF90D150136590E2905AA568F782650907D5A7180140B84AD0159F8156902B8F63BDA8BE1A72E29AF48322EA98B5F578631B6F5489B26184C63434803DB221A328E6B58DEAED6DB808FEB6DC068BD0DF8A4DE065CABB7018B3045EB390B3EAD7704C6EA6DC07518
310
10B79C17773A0DB6C361F03BDD064B22C8C7303844629E5064B47323116EB9039777E096BB70247238880C6E39831B9F221C81B3E543C57019D4736C30574EE2DD4AD73B12B9771099772B997713E97A974DF4CECD5D9582B938116EC00926492C777A7F676A8F441E4C882C98032C983211AE26DE8974E196022EC7174366
310
F9AE62C95769E105B5C4B012E2E82ED8CD3516C5E34D519CF0D1F6765A8551C6CC0505130A3E8ABEC46EF81CED54DC1DA04AB7BC4DB0CA082453194AB29B82400C2B438BA6322032B88FE093B3E13470C11297490C8EEF78E88158D51A8AD42283A38F61044E78707A57F8BBDFE2DF2167F36975041D1DA7FCF59430C35792
310
05112533A905D5D3CAAB4759DBB4CA160F3E9309466F934A1794E7E1154C402D3088858048DCDF7EA3E7FECD5B7A7B376D5480CBF43A7E5E49CCBE6BEB37D945B2402FC65F52AB73B67E7F3A58AE93F37A04F6B7011D680556EBCCA2819BC8A21C320F385BBDB4EE56E6E32CE2CB18E358AD7676B4C7C096B1674BAF7B1278
310
1E906198B0DF8681EA696AF34D20563061CAB731C0DB01185B8B0DCA46538BD880EB0E2C6FC3120B40E62289BC162112587895C11513E18290E892090EBF46A9321968C513E0BB89A0AE8F2431B88A7DFC9E07A7BD0A8E668E3AF3CDEA083A3A8ECFB770A00AB53712018F2859D8DB3D93C2E4D422CB77A40BB73A5DB807A7
310
0857A5727AC8838BE45965D0D3D5B29CBEEF99145F4E558AC0C3E9C23D922EDC0FD285FBA107E7958EEDE721E98018A3E3AAC64E7F5C166D7ABA81B65C437BB31D766C74A6ED6E1FBC2766B7AFDAD87156F9771BF44A2A724C461AB43EE729AAFB710D63E2111810BBA3ABC9AE6037E09AB9BF3AB40BE8309F8736AB64CAB2
310
BE7E3364E5AC569CA6976081AF5A311628A8EF68C5B3A4609E3E86AC3AA156E3E83562F4B5A292099A878C61EB3B549CF92354989982613F016CE7AD5A4D09AA1F5126387AAD451EE384D9C035A925859E39C1AA865EE9A9B8DA21CEE289167F7CF1D4C4BC7A125EC5AED5D8BB0B5A9D9144D134CFA71BF85A8D44BE568348
310
F6AA55A2F3CAEACF6982FD29118CC249D3CBF852A586F278BA70FBD3853B90085793EDE51E143F0AD06C6B4CB2242BDDBDD1419166C2865E85F9CE1648F3CBF54B2E655D5432557AB8C599EEE6E763403914E55050D879E2BFFA30F366F009F0CB378371CA9B99D05949929DD07465EA8797A3808B6B06B9536E64AF9C844C
310
903AF2F3709D3783A318A078E4F37AEBBCEC2DD1B228B722F785DC2DB9D64C476675A63353CC74E937B1FA39BFA7DB58A6AFC19E49583A4A9B6110A6BA038D3C80418F79D091B18A763C1D8524AA5361F194EC4CC4B23EDBA3192533E95398E41423EB6DCA1C239B4DBF91D13F6D762A6897D7013D496371DC8BECCAA7D45E
310
0C251095ABC98AA38E1B6540CD3DACF829EF15C38D27C2B92DA64A071D13897001094F16523EC1C9E5A99FF465029665AB5B13C49AF8984D174EA40B273D389D33BB29A272F6749622C2719C22AC925104534E7A8CF33714555C6B3CF3BE4BE0AF28994CA9B8353E0F28878DD26D8D2F007FBAAD11BD305CEB4EAB35BE08B8
310
B8D678FEB81BD9134AB6ADF10A644BBEF9C2334A81E4EAA6772450D87DD2AF49C178F020A0EBD3055FF292CC5B8AB3FC4114C86BA708ACDB15F49C43C04EBBE7FCBD0CA8A1CB2AF59CC3897035E1E39713E16AD873FE91085A131FFF19C04DBEDBF8D75406FD3B3A2842E56C8ABE82A171BC3BF89ECB0E0F287926BC7B0450
310
75E4DDA3C09F2EEF56BE2579157071BCBBE7881BD93E255BDE7D04B225A07C61BD5230DE1DBA8C1158736B225E412358525F03747D78F79897E472BCCBAF5BAF2BA0DDE3804E9B765F2F035A65DA3D910857134A7A2311AE52DA8D6E0E9C1341735A873DD47F12A16BE2E99BE9C275792B70532835F1AEDB838B7404B509F7
310
74C449519D9AA19EB28205FF5B08785CE3F9307262735AC933693C270155C7C6730AF8E9359ED3808B6B3CA387DDC6734EC9B6F1C897238DE72006D89713F9C2E58B91C6F3388D608DE70CA0A7DA7866D30F8008DC16BEAA2D26A2AAB848F4108A0CF46D0F54D7A73989E2C56D75B6B8431D2F6EAB64C5CD94644C04869974
310
1626C5B6A280378D1BEE62BCE2C3917700E714386FAA719B1D7E7D464DF7DD444F8317374E8CAA75BEF65E19D0F8F0523EC21D7470DCC60B8CAEF29753FC38EF4760CFDBF99B4673F680D0869F6742513F06849341B61DF57EE3400A02734628D75C0DBC8B68A868B98655ECA330208EA3C6F1B52E3DF1E8849E2433679564
310
431A886148B568E62C4406F75F64308EFD2F9D7039EA6D259B5B2BF91AD8396F72B01004EFC5CD6C88F911E8CCDF849C077E5C64E9488747967101058B73015D99FA9B900B808B63FFB117DCC85E50324556799F2F34BC086EC70CD18A4318C0D9FF2AB6807CDB718046B0A4BE0FE8B4D9FFA207EA504E3D7E65FA014C7226
310
B329B0E8D703AAFEBAA304E869379E693123CD68457958A4FF2F11AE86ECFF6119D078F6E7138AD87FF2370F86D6E1E34789702D76FED2134932CCA824CB8C811832A3160D33426421BD940847AF6F0C11D33DEECB1CFE9B7175D1F926045DE5BD8DBFBDBE9C081764D0049324E6DDB40A8607F34A225C4D16463974B5B836
310
F3B3A32E193EACE499B49986C93A780A6DA631A981D7A6CD34012EAECDFCF23937B23F51B26D337F80CCDBCC36A5C0ECD07DE7E7A7236D663D8D6033A419D0536D33E07F56B8C4CA7C0D48229F9610695A461A0883CE7B494E8DD95B004DF38E8247AB09FE45AC1A52EDAC32A0861DD8DA85D8A76276989D08579353913989
310
700119397510D9BB4CAB9DF096393711B4263ECE4B176E7EBA700B3C389DB3F0B5335AA6A7234288EA142D784A9083AFB414616018456CF64C3293C4CD2F49D3E5A5F0410CEE3E0F2E6A6FEA11580893E29AEE529C2FC11C4DF48D4AA628982DB44A422820F8563073C8F989CF2240392BED74F7768B819FDEDE6E09E0E29A
310
EE0AFA030B3CB273954C91D5916E83CC9BEE074FAB1E6B73B11CFB6CBEB73B4C23589D2D05F4CC9AAE2E4C768646F0614DBB4BD40606BDCC4B726A4DF72640A7DD749797013521AB4ED3C5971C1BF2225712D922FD192CAA82F186C253F467B664EED8B163100EA1787299890C1D4314EEF90B040C236113FD72905624B8F0
310
99FF03A92412CEF64B0000
  0
DICTIONARY
  5
FCA
330
ED
100
AcDbDictionary
  3
ACAD_XREC_ROUNDTRIP
360
FCB
1001
ACAD
1000
TREAT_AS_HARD
1070
     1
  0
DICTIONARY
  5
FCC
330
EC
100
AcDbDictionary
  3
ACAD_XREC_ROUNDTRIP
360
FCD
1001
ACAD
1000
TREAT_AS_HARD
1070
     1
  0
DICTIONARY
  5
FCE
330
EE
100
AcDbDictionary
  3
ACAD_XREC_ROUNDTRIP
360
FCF
1001
ACAD
1000
TREAT_AS_HARD
1070
     1
  0
XRECORD
  5
FCB
102
{ACAD_REACTORS
330
FCA
102
}
330
FCA
100
AcDbXrecord
102
MATERIAL
148
0.0
149
0.0
149
0.0
 93
        0
 94
       63
282
     0
 72
     1
 77
     1
171
     1
175
     1
179
     1
273
     0
  0
XRECORD
  5
FCD
102
{ACAD_REACTORS
330
FCC
102
}
330
FCC
100
AcDbXrecord
102
MATERIAL
148
0.0
149
0.0
149
0.0
 93
        0
 94
       63
282
     0
 72
     1
 77
     1
171
     1
175
     1
179
     1
273
     0
  0
XRECORD
  5
FCF
102
{ACAD_REACTORS
330
FCE
102
}
330
FCE
100
AcDbXrecord
102
MATERIAL
148
0.0
149
0.0
149
0.0
 93
        0
 94
       63
282
     0
 72
     1
 77
     1
171
     1
175
     1
179
     1
273
     0
  0
ENDSEC
  0
EOF
